<?xml version="1.0" encoding="UTF-8" standalone="no"?><svg xmlns="http://www.w3.org/2000/svg" xmlns:xlink="http://www.w3.org/1999/xlink" contentStyleType="text/css" height="218px" preserveAspectRatio="none" style="width:392px;height:218px;background:#FFFFFF;" version="1.1" viewBox="0 0 392 218" width="392px" zoomAndPan="magnify"><defs/><g><!--MD5=[fc07866a383d07d405a25512054a0e5c]
class Target--><g id="elem_Target"><rect codeLine="1" fill="#F1F1F1" height="64.2969" id="Target" rx="2.5" ry="2.5" style="stroke:#181818;stroke-width:0.5;" width="77" x="113" y="7"/><ellipse cx="128" cy="23" fill="#B4A7E5" rx="11" ry="11" style="stroke:#181818;stroke-width:1.0;"/><path d="M123.9219,18.7656 L123.9219,16.6094 L131.3125,16.6094 L131.3125,18.7656 L128.8438,18.7656 L128.8438,26.8438 L131.3125,26.8438 L131.3125,29 L123.9219,29 L123.9219,26.8438 L126.3906,26.8438 L126.3906,18.7656 L123.9219,18.7656 Z " fill="#000000"/><text fill="#000000" font-family="sans-serif" font-size="14" font-style="italic" lengthAdjust="spacing" textLength="45" x="142" y="27.8467">Target</text><line style="stroke:#181818;stroke-width:0.5;" x1="114" x2="189" y1="39" y2="39"/><line style="stroke:#181818;stroke-width:0.5;" x1="114" x2="189" y1="47" y2="47"/><text fill="#000000" font-family="sans-serif" font-size="14" lengthAdjust="spacing" textLength="64" x="119" y="63.9951">request()</text></g><!--MD5=[ed6624c6556d5e7b1bd23032162d20b7]
class Client--><g id="elem_Client"><rect fill="#F1F1F1" height="48" id="Client" rx="2.5" ry="2.5" style="stroke:#181818;stroke-width:0.5;" width="71" x="7" y="15"/><ellipse cx="22" cy="31" fill="#ADD1B2" rx="11" ry="11" style="stroke:#181818;stroke-width:1.0;"/><path d="M24.9688,36.6406 Q24.3906,36.9375 23.75,37.0781 Q23.1094,37.2344 22.4063,37.2344 Q19.9063,37.2344 18.5781,35.5938 Q17.2656,33.9375 17.2656,30.8125 Q17.2656,27.6875 18.5781,26.0313 Q19.9063,24.375 22.4063,24.375 Q23.1094,24.375 23.75,24.5313 Q24.4063,24.6875 24.9688,24.9844 L24.9688,27.7031 Q24.3438,27.125 23.75,26.8594 Q23.1563,26.5781 22.5313,26.5781 Q21.1875,26.5781 20.5,27.6563 Q19.8125,28.7188 19.8125,30.8125 Q19.8125,32.9063 20.5,33.9844 Q21.1875,35.0469 22.5313,35.0469 Q23.1563,35.0469 23.75,34.7813 Q24.3438,34.5 24.9688,33.9219 L24.9688,36.6406 Z " fill="#000000"/><text fill="#000000" font-family="sans-serif" font-size="14" lengthAdjust="spacing" textLength="39" x="36" y="35.8467">Client</text><line style="stroke:#181818;stroke-width:0.5;" x1="8" x2="77" y1="47" y2="47"/><line style="stroke:#181818;stroke-width:0.5;" x1="8" x2="77" y1="55" y2="55"/></g><!--MD5=[7393b79429f23cd61e6e6a493d3a2b14]
class Adaptee--><g id="elem_Adaptee"><rect codeLine="5" fill="#F1F1F1" height="64.2969" id="Adaptee" rx="2.5" ry="2.5" style="stroke:#181818;stroke-width:0.5;" width="133" x="252" y="139.5"/><ellipse cx="285.9" cy="155.5" fill="#B4A7E5" rx="11" ry="11" style="stroke:#181818;stroke-width:1.0;"/><path d="M281.8219,151.2656 L281.8219,149.1094 L289.2125,149.1094 L289.2125,151.2656 L286.7438,151.2656 L286.7438,159.3438 L289.2125,159.3438 L289.2125,161.5 L281.8219,161.5 L281.8219,159.3438 L284.2906,159.3438 L284.2906,151.2656 L281.8219,151.2656 Z " fill="#000000"/><text fill="#000000" font-family="sans-serif" font-size="14" font-style="italic" lengthAdjust="spacing" textLength="59" x="304.1" y="160.3467">Adaptee</text><line style="stroke:#181818;stroke-width:0.5;" x1="253" x2="384" y1="171.5" y2="171.5"/><line style="stroke:#181818;stroke-width:0.5;" x1="253" x2="384" y1="179.5" y2="179.5"/><text fill="#000000" font-family="sans-serif" font-size="14" lengthAdjust="spacing" textLength="121" x="258" y="196.4951">specificRequest()</text></g><!--MD5=[f38a85e47f7d4f812523dd9b6d7d2c16]
class Adapter--><g id="elem_Adapter"><rect codeLine="8" fill="#F1F1F1" height="80.5938" id="Adapter" rx="2.5" ry="2.5" style="stroke:#181818;stroke-width:0.5;" width="131" x="86" y="131"/><ellipse cx="121.25" cy="147" fill="#ADD1B2" rx="11" ry="11" style="stroke:#181818;stroke-width:1.0;"/><path d="M124.2188,152.6406 Q123.6406,152.9375 123,153.0781 Q122.3594,153.2344 121.6563,153.2344 Q119.1563,153.2344 117.8281,151.5938 Q116.5156,149.9375 116.5156,146.8125 Q116.5156,143.6875 117.8281,142.0313 Q119.1563,140.375 121.6563,140.375 Q122.3594,140.375 123,140.5313 Q123.6563,140.6875 124.2188,140.9844 L124.2188,143.7031 Q123.5938,143.125 123,142.8594 Q122.4063,142.5781 121.7813,142.5781 Q120.4375,142.5781 119.75,143.6563 Q119.0625,144.7188 119.0625,146.8125 Q119.0625,148.9063 119.75,149.9844 Q120.4375,151.0469 121.7813,151.0469 Q122.4063,151.0469 123,150.7813 Q123.5938,150.5 124.2188,149.9219 L124.2188,152.6406 Z " fill="#000000"/><text fill="#000000" font-family="sans-serif" font-size="14" lengthAdjust="spacing" textLength="54" x="139.75" y="151.8467">Adapter</text><line style="stroke:#181818;stroke-width:0.5;" x1="87" x2="216" y1="163" y2="163"/><text fill="#000000" font-family="sans-serif" font-size="14" lengthAdjust="spacing" textLength="119" x="92" y="179.9951">Adaptee adaptee</text><line style="stroke:#181818;stroke-width:0.5;" x1="87" x2="216" y1="187.2969" y2="187.2969"/><text fill="#000000" font-family="sans-serif" font-size="14" lengthAdjust="spacing" textLength="64" x="92" y="204.292">request()</text></g><!--MD5=[431c3f1848dccc83292155c400886313]
link Client to Target--><g id="link_Client_Target"><path codeLine="4" d="M78.27,39 C85.39,39 92.51,39 99.63,39 " fill="none" id="Client-to-Target" style="stroke:#181818;stroke-width:1.0;"/><polygon fill="none" points="112.88,39,106.88,35,100.88,39,106.88,43,112.88,39" style="stroke:#181818;stroke-width:1.0;"/></g><!--MD5=[ac16be24c016d0cc1b5b2bfc6dfbddbe]
link Adapter to Adaptee--><g id="link_Adapter_Adaptee"><path codeLine="12" d="M217.06,171.5 C224.33,171.5 231.59,171.5 238.85,171.5 " fill="none" id="Adapter-to-Adaptee" style="stroke:#181818;stroke-width:1.0;"/><polygon fill="none" points="251.93,171.5,245.93,167.5,239.93,171.5,245.93,175.5,251.93,171.5" style="stroke:#181818;stroke-width:1.0;"/></g><!--MD5=[e8afce381d6978114aa9e217ec9a4ba2]
reverse link Target to Adapter--><g id="link_Target_Adapter"><path codeLine="13" d="M151.5,91.41 C151.5,104.43 151.5,118.23 151.5,130.59 " fill="none" id="Target-backto-Adapter" style="stroke:#181818;stroke-width:1.0;stroke-dasharray:7.0,7.0;"/><polygon fill="none" points="144.5,91.26,151.5,71.26,158.5,91.26,144.5,91.26" style="stroke:#181818;stroke-width:1.0;"/></g><!--MD5=[203308afae7b3c85922caeed2735b501]
@startuml
interface Target {
  request()
}
Client -right-o Target
interface Adaptee {
  specificRequest()
}
class Adapter {
  Adaptee adaptee
  request()
}
Adapter -right-o Adaptee
Adapter .up.|> Target
@enduml

PlantUML version 1.2022.7(Tue Aug 23 00:01:30 ICT 2022)
(GPL source distribution)
Java Runtime: OpenJDK Runtime Environment
JVM: OpenJDK 64-Bit Server VM
Default Encoding: UTF-8
Language: en
Country: null
--></g></svg>