<?xml version="1.0" encoding="UTF-8" standalone="no"?><svg xmlns="http://www.w3.org/2000/svg" xmlns:xlink="http://www.w3.org/1999/xlink" contentStyleType="text/css" height="391px" preserveAspectRatio="none" style="width:934px;height:391px;background:#FFFFFF;" version="1.1" viewBox="0 0 934 391" width="934px" zoomAndPan="magnify"><defs/><g><!--MD5=[f45f2220b0b110c1551a8318691639c0]
class Beverage--><g id="elem_Beverage"><rect codeLine="1" fill="#F1F1F1" height="96.8906" id="Beverage" rx="2.5" ry="2.5" style="stroke:#181818;stroke-width:0.5;" width="147" x="578" y="7"/><ellipse cx="614.6" cy="23" fill="#A9DCDF" rx="11" ry="11" style="stroke:#181818;stroke-width:1.0;"/><path d="M614.7094,18.3438 L613.5531,23.4219 L615.8813,23.4219 L614.7094,18.3438 Z M613.225,16.1094 L616.2094,16.1094 L619.5688,28.5 L617.1156,28.5 L616.35,25.4375 L613.0688,25.4375 L612.3188,28.5 L609.8813,28.5 L613.225,16.1094 Z " fill="#000000"/><text fill="#000000" font-family="sans-serif" font-size="14" font-style="italic" lengthAdjust="spacing" textLength="67" x="633.4" y="27.8467">Beverage</text><line style="stroke:#181818;stroke-width:0.5;" x1="579" x2="724" y1="39" y2="39"/><rect fill="none" height="6" style="stroke:#C82930;stroke-width:1.0;" width="6" x="586" y="49.6484"/><text fill="#000000" font-family="sans-serif" font-size="14" lengthAdjust="spacing" textLength="121" x="598" y="55.9951">String description</text><line style="stroke:#181818;stroke-width:0.5;" x1="579" x2="724" y1="63.2969" y2="63.2969"/><ellipse cx="589" cy="76.9453" fill="#84BE84" rx="3" ry="3" style="stroke:#038048;stroke-width:1.0;"/><text fill="#000000" font-family="sans-serif" font-size="14" lengthAdjust="spacing" textLength="112" x="598" y="80.292">getDescription()</text><ellipse cx="589" cy="93.2422" fill="#84BE84" rx="3" ry="3" style="stroke:#038048;stroke-width:1.0;"/><text fill="#000000" font-family="sans-serif" font-size="14" lengthAdjust="spacing" textLength="40" x="598" y="96.5889">cost()</text></g><!--MD5=[bd7e272a4a95bdce642fcc687eddedc1]
class HouseBlend--><g id="elem_HouseBlend"><rect codeLine="6" fill="#F1F1F1" height="64.2969" id="HouseBlend" rx="2.5" ry="2.5" style="stroke:#181818;stroke-width:0.5;" width="117" x="386" y="164"/><ellipse cx="401" cy="180" fill="#ADD1B2" rx="11" ry="11" style="stroke:#181818;stroke-width:1.0;"/><path d="M403.9688,185.6406 Q403.3906,185.9375 402.75,186.0781 Q402.1094,186.2344 401.4063,186.2344 Q398.9063,186.2344 397.5781,184.5938 Q396.2656,182.9375 396.2656,179.8125 Q396.2656,176.6875 397.5781,175.0313 Q398.9063,173.375 401.4063,173.375 Q402.1094,173.375 402.75,173.5313 Q403.4063,173.6875 403.9688,173.9844 L403.9688,176.7031 Q403.3438,176.125 402.75,175.8594 Q402.1563,175.5781 401.5313,175.5781 Q400.1875,175.5781 399.5,176.6563 Q398.8125,177.7188 398.8125,179.8125 Q398.8125,181.9063 399.5,182.9844 Q400.1875,184.0469 401.5313,184.0469 Q402.1563,184.0469 402.75,183.7813 Q403.3438,183.5 403.9688,182.9219 L403.9688,185.6406 Z " fill="#000000"/><text fill="#000000" font-family="sans-serif" font-size="14" lengthAdjust="spacing" textLength="85" x="415" y="184.8467">HouseBlend</text><line style="stroke:#181818;stroke-width:0.5;" x1="387" x2="502" y1="196" y2="196"/><line style="stroke:#181818;stroke-width:0.5;" x1="387" x2="502" y1="204" y2="204"/><ellipse cx="397" cy="217.6484" fill="#84BE84" rx="3" ry="3" style="stroke:#038048;stroke-width:1.0;"/><text fill="#000000" font-family="sans-serif" font-size="14" lengthAdjust="spacing" textLength="40" x="406" y="220.9951">cost()</text></g><!--MD5=[ef2f5c504d6cfaf85f831bdc93bdfcbf]
class DarkRoast--><g id="elem_DarkRoast"><rect codeLine="9" fill="#F1F1F1" height="64.2969" id="DarkRoast" rx="2.5" ry="2.5" style="stroke:#181818;stroke-width:0.5;" width="104" x="538.5" y="164"/><ellipse cx="553.5" cy="180" fill="#ADD1B2" rx="11" ry="11" style="stroke:#181818;stroke-width:1.0;"/><path d="M556.4688,185.6406 Q555.8906,185.9375 555.25,186.0781 Q554.6094,186.2344 553.9063,186.2344 Q551.4063,186.2344 550.0781,184.5938 Q548.7656,182.9375 548.7656,179.8125 Q548.7656,176.6875 550.0781,175.0313 Q551.4063,173.375 553.9063,173.375 Q554.6094,173.375 555.25,173.5313 Q555.9063,173.6875 556.4688,173.9844 L556.4688,176.7031 Q555.8438,176.125 555.25,175.8594 Q554.6563,175.5781 554.0313,175.5781 Q552.6875,175.5781 552,176.6563 Q551.3125,177.7188 551.3125,179.8125 Q551.3125,181.9063 552,182.9844 Q552.6875,184.0469 554.0313,184.0469 Q554.6563,184.0469 555.25,183.7813 Q555.8438,183.5 556.4688,182.9219 L556.4688,185.6406 Z " fill="#000000"/><text fill="#000000" font-family="sans-serif" font-size="14" lengthAdjust="spacing" textLength="72" x="567.5" y="184.8467">DarkRoast</text><line style="stroke:#181818;stroke-width:0.5;" x1="539.5" x2="641.5" y1="196" y2="196"/><line style="stroke:#181818;stroke-width:0.5;" x1="539.5" x2="641.5" y1="204" y2="204"/><ellipse cx="549.5" cy="217.6484" fill="#84BE84" rx="3" ry="3" style="stroke:#038048;stroke-width:1.0;"/><text fill="#000000" font-family="sans-serif" font-size="14" lengthAdjust="spacing" textLength="40" x="558.5" y="220.9951">cost()</text></g><!--MD5=[4188fab1d5603701389174163c352652]
class Decaf--><g id="elem_Decaf"><rect codeLine="12" fill="#F1F1F1" height="64.2969" id="Decaf" rx="2.5" ry="2.5" style="stroke:#181818;stroke-width:0.5;" width="72" x="677.5" y="164"/><ellipse cx="692.5" cy="180" fill="#ADD1B2" rx="11" ry="11" style="stroke:#181818;stroke-width:1.0;"/><path d="M695.4688,185.6406 Q694.8906,185.9375 694.25,186.0781 Q693.6094,186.2344 692.9063,186.2344 Q690.4063,186.2344 689.0781,184.5938 Q687.7656,182.9375 687.7656,179.8125 Q687.7656,176.6875 689.0781,175.0313 Q690.4063,173.375 692.9063,173.375 Q693.6094,173.375 694.25,173.5313 Q694.9063,173.6875 695.4688,173.9844 L695.4688,176.7031 Q694.8438,176.125 694.25,175.8594 Q693.6563,175.5781 693.0313,175.5781 Q691.6875,175.5781 691,176.6563 Q690.3125,177.7188 690.3125,179.8125 Q690.3125,181.9063 691,182.9844 Q691.6875,184.0469 693.0313,184.0469 Q693.6563,184.0469 694.25,183.7813 Q694.8438,183.5 695.4688,182.9219 L695.4688,185.6406 Z " fill="#000000"/><text fill="#000000" font-family="sans-serif" font-size="14" lengthAdjust="spacing" textLength="40" x="706.5" y="184.8467">Decaf</text><line style="stroke:#181818;stroke-width:0.5;" x1="678.5" x2="748.5" y1="196" y2="196"/><line style="stroke:#181818;stroke-width:0.5;" x1="678.5" x2="748.5" y1="204" y2="204"/><ellipse cx="688.5" cy="217.6484" fill="#84BE84" rx="3" ry="3" style="stroke:#038048;stroke-width:1.0;"/><text fill="#000000" font-family="sans-serif" font-size="14" lengthAdjust="spacing" textLength="40" x="697.5" y="220.9951">cost()</text></g><!--MD5=[f5ea9ff06fc8109cace2c9440d07df67]
class Espresso--><g id="elem_Espresso"><rect codeLine="15" fill="#F1F1F1" height="64.2969" id="Espresso" rx="2.5" ry="2.5" style="stroke:#181818;stroke-width:0.5;" width="97" x="785" y="164"/><ellipse cx="800" cy="180" fill="#ADD1B2" rx="11" ry="11" style="stroke:#181818;stroke-width:1.0;"/><path d="M802.9688,185.6406 Q802.3906,185.9375 801.75,186.0781 Q801.1094,186.2344 800.4063,186.2344 Q797.9063,186.2344 796.5781,184.5938 Q795.2656,182.9375 795.2656,179.8125 Q795.2656,176.6875 796.5781,175.0313 Q797.9063,173.375 800.4063,173.375 Q801.1094,173.375 801.75,173.5313 Q802.4063,173.6875 802.9688,173.9844 L802.9688,176.7031 Q802.3438,176.125 801.75,175.8594 Q801.1563,175.5781 800.5313,175.5781 Q799.1875,175.5781 798.5,176.6563 Q797.8125,177.7188 797.8125,179.8125 Q797.8125,181.9063 798.5,182.9844 Q799.1875,184.0469 800.5313,184.0469 Q801.1563,184.0469 801.75,183.7813 Q802.3438,183.5 802.9688,182.9219 L802.9688,185.6406 Z " fill="#000000"/><text fill="#000000" font-family="sans-serif" font-size="14" lengthAdjust="spacing" textLength="65" x="814" y="184.8467">Espresso</text><line style="stroke:#181818;stroke-width:0.5;" x1="786" x2="881" y1="196" y2="196"/><line style="stroke:#181818;stroke-width:0.5;" x1="786" x2="881" y1="204" y2="204"/><ellipse cx="796" cy="217.6484" fill="#84BE84" rx="3" ry="3" style="stroke:#038048;stroke-width:1.0;"/><text fill="#000000" font-family="sans-serif" font-size="14" lengthAdjust="spacing" textLength="40" x="805" y="220.9951">cost()</text></g><!--MD5=[8db1e71afe3fc67a239e81af71b3e2c9]
class CondimentDecorator--><g id="elem_CondimentDecorator"><rect codeLine="18" fill="#F1F1F1" height="64.2969" id="CondimentDecorator" rx="2.5" ry="2.5" style="stroke:#181818;stroke-width:0.5;" width="177" x="174" y="164"/><ellipse cx="189" cy="180" fill="#A9DCDF" rx="11" ry="11" style="stroke:#181818;stroke-width:1.0;"/><path d="M189.1094,175.3438 L187.9531,180.4219 L190.2813,180.4219 L189.1094,175.3438 Z M187.625,173.1094 L190.6094,173.1094 L193.9688,185.5 L191.5156,185.5 L190.75,182.4375 L187.4688,182.4375 L186.7188,185.5 L184.2813,185.5 L187.625,173.1094 Z " fill="#000000"/><text fill="#000000" font-family="sans-serif" font-size="14" font-style="italic" lengthAdjust="spacing" textLength="145" x="203" y="184.8467">CondimentDecorator</text><line style="stroke:#181818;stroke-width:0.5;" x1="175" x2="350" y1="196" y2="196"/><line style="stroke:#181818;stroke-width:0.5;" x1="175" x2="350" y1="204" y2="204"/><ellipse cx="185" cy="217.6484" fill="#84BE84" rx="3" ry="3" style="stroke:#038048;stroke-width:1.0;"/><text fill="#000000" font-family="sans-serif" font-size="14" lengthAdjust="spacing" textLength="112" x="194" y="220.9951">getDescription()</text></g><!--MD5=[100525086f0e815ee31f4f59acfdddec]
class Milk--><g id="elem_Milk"><rect codeLine="27" fill="#F1F1F1" height="96.8906" id="Milk" rx="2.5" ry="2.5" style="stroke:#181818;stroke-width:0.5;" width="147" x="7" y="288"/><ellipse cx="63.25" cy="304" fill="#ADD1B2" rx="11" ry="11" style="stroke:#181818;stroke-width:1.0;"/><path d="M66.2188,309.6406 Q65.6406,309.9375 65,310.0781 Q64.3594,310.2344 63.6563,310.2344 Q61.1563,310.2344 59.8281,308.5938 Q58.5156,306.9375 58.5156,303.8125 Q58.5156,300.6875 59.8281,299.0313 Q61.1563,297.375 63.6563,297.375 Q64.3594,297.375 65,297.5313 Q65.6563,297.6875 66.2188,297.9844 L66.2188,300.7031 Q65.5938,300.125 65,299.8594 Q64.4063,299.5781 63.7813,299.5781 Q62.4375,299.5781 61.75,300.6563 Q61.0625,301.7188 61.0625,303.8125 Q61.0625,305.9063 61.75,306.9844 Q62.4375,308.0469 63.7813,308.0469 Q64.4063,308.0469 65,307.7813 Q65.5938,307.5 66.2188,306.9219 L66.2188,309.6406 Z " fill="#000000"/><text fill="#000000" font-family="sans-serif" font-size="14" lengthAdjust="spacing" textLength="26" x="83.75" y="308.8467">Milk</text><line style="stroke:#181818;stroke-width:0.5;" x1="8" x2="153" y1="320" y2="320"/><text fill="#000000" font-family="sans-serif" font-size="14" lengthAdjust="spacing" textLength="135" x="13" y="336.9951">Beverage beverage</text><line style="stroke:#181818;stroke-width:0.5;" x1="8" x2="153" y1="344.2969" y2="344.2969"/><ellipse cx="18" cy="357.9453" fill="#84BE84" rx="3" ry="3" style="stroke:#038048;stroke-width:1.0;"/><text fill="#000000" font-family="sans-serif" font-size="14" lengthAdjust="spacing" textLength="40" x="27" y="361.292">cost()</text><ellipse cx="18" cy="374.2422" fill="#84BE84" rx="3" ry="3" style="stroke:#038048;stroke-width:1.0;"/><text fill="#000000" font-family="sans-serif" font-size="14" lengthAdjust="spacing" textLength="112" x="27" y="377.5889">getDescription()</text></g><!--MD5=[1d657684344ca27a012d5cb815ad43ed]
class Soy--><g id="elem_Soy"><rect codeLine="32" fill="#F1F1F1" height="96.8906" id="Soy" rx="2.5" ry="2.5" style="stroke:#181818;stroke-width:0.5;" width="147" x="707" y="288"/><ellipse cx="763.75" cy="304" fill="#ADD1B2" rx="11" ry="11" style="stroke:#181818;stroke-width:1.0;"/><path d="M766.7188,309.6406 Q766.1406,309.9375 765.5,310.0781 Q764.8594,310.2344 764.1563,310.2344 Q761.6563,310.2344 760.3281,308.5938 Q759.0156,306.9375 759.0156,303.8125 Q759.0156,300.6875 760.3281,299.0313 Q761.6563,297.375 764.1563,297.375 Q764.8594,297.375 765.5,297.5313 Q766.1563,297.6875 766.7188,297.9844 L766.7188,300.7031 Q766.0938,300.125 765.5,299.8594 Q764.9063,299.5781 764.2813,299.5781 Q762.9375,299.5781 762.25,300.6563 Q761.5625,301.7188 761.5625,303.8125 Q761.5625,305.9063 762.25,306.9844 Q762.9375,308.0469 764.2813,308.0469 Q764.9063,308.0469 765.5,307.7813 Q766.0938,307.5 766.7188,306.9219 L766.7188,309.6406 Z " fill="#000000"/><text fill="#000000" font-family="sans-serif" font-size="14" lengthAdjust="spacing" textLength="25" x="784.25" y="308.8467">Soy</text><line style="stroke:#181818;stroke-width:0.5;" x1="708" x2="853" y1="320" y2="320"/><text fill="#000000" font-family="sans-serif" font-size="14" lengthAdjust="spacing" textLength="135" x="713" y="336.9951">Beverage beverage</text><line style="stroke:#181818;stroke-width:0.5;" x1="708" x2="853" y1="344.2969" y2="344.2969"/><ellipse cx="718" cy="357.9453" fill="#84BE84" rx="3" ry="3" style="stroke:#038048;stroke-width:1.0;"/><text fill="#000000" font-family="sans-serif" font-size="14" lengthAdjust="spacing" textLength="40" x="727" y="361.292">cost()</text><ellipse cx="718" cy="374.2422" fill="#84BE84" rx="3" ry="3" style="stroke:#038048;stroke-width:1.0;"/><text fill="#000000" font-family="sans-serif" font-size="14" lengthAdjust="spacing" textLength="112" x="727" y="377.5889">getDescription()</text></g><!--MD5=[826a7f68534f7bc14c11c5eacbfd79df]
class Mocha--><g id="elem_Mocha"><rect codeLine="37" fill="#F1F1F1" height="96.8906" id="Mocha" rx="2.5" ry="2.5" style="stroke:#181818;stroke-width:0.5;" width="147" x="189" y="288"/><ellipse cx="235.25" cy="304" fill="#ADD1B2" rx="11" ry="11" style="stroke:#181818;stroke-width:1.0;"/><path d="M238.2188,309.6406 Q237.6406,309.9375 237,310.0781 Q236.3594,310.2344 235.6563,310.2344 Q233.1563,310.2344 231.8281,308.5938 Q230.5156,306.9375 230.5156,303.8125 Q230.5156,300.6875 231.8281,299.0313 Q233.1563,297.375 235.6563,297.375 Q236.3594,297.375 237,297.5313 Q237.6563,297.6875 238.2188,297.9844 L238.2188,300.7031 Q237.5938,300.125 237,299.8594 Q236.4063,299.5781 235.7813,299.5781 Q234.4375,299.5781 233.75,300.6563 Q233.0625,301.7188 233.0625,303.8125 Q233.0625,305.9063 233.75,306.9844 Q234.4375,308.0469 235.7813,308.0469 Q236.4063,308.0469 237,307.7813 Q237.5938,307.5 238.2188,306.9219 L238.2188,309.6406 Z " fill="#000000"/><text fill="#000000" font-family="sans-serif" font-size="14" lengthAdjust="spacing" textLength="46" x="255.75" y="308.8467">Mocha</text><line style="stroke:#181818;stroke-width:0.5;" x1="190" x2="335" y1="320" y2="320"/><text fill="#000000" font-family="sans-serif" font-size="14" lengthAdjust="spacing" textLength="135" x="195" y="336.9951">Beverage beverage</text><line style="stroke:#181818;stroke-width:0.5;" x1="190" x2="335" y1="344.2969" y2="344.2969"/><ellipse cx="200" cy="357.9453" fill="#84BE84" rx="3" ry="3" style="stroke:#038048;stroke-width:1.0;"/><text fill="#000000" font-family="sans-serif" font-size="14" lengthAdjust="spacing" textLength="40" x="209" y="361.292">cost()</text><ellipse cx="200" cy="374.2422" fill="#84BE84" rx="3" ry="3" style="stroke:#038048;stroke-width:1.0;"/><text fill="#000000" font-family="sans-serif" font-size="14" lengthAdjust="spacing" textLength="112" x="209" y="377.5889">getDescription()</text></g><!--MD5=[855bfe7603ce1fa68f47ee6242167d19]
class Whip--><g id="elem_Whip"><rect codeLine="42" fill="#F1F1F1" height="96.8906" id="Whip" rx="2.5" ry="2.5" style="stroke:#181818;stroke-width:0.5;" width="147" x="371" y="288"/><ellipse cx="423.25" cy="304" fill="#ADD1B2" rx="11" ry="11" style="stroke:#181818;stroke-width:1.0;"/><path d="M426.2188,309.6406 Q425.6406,309.9375 425,310.0781 Q424.3594,310.2344 423.6563,310.2344 Q421.1563,310.2344 419.8281,308.5938 Q418.5156,306.9375 418.5156,303.8125 Q418.5156,300.6875 419.8281,299.0313 Q421.1563,297.375 423.6563,297.375 Q424.3594,297.375 425,297.5313 Q425.6563,297.6875 426.2188,297.9844 L426.2188,300.7031 Q425.5938,300.125 425,299.8594 Q424.4063,299.5781 423.7813,299.5781 Q422.4375,299.5781 421.75,300.6563 Q421.0625,301.7188 421.0625,303.8125 Q421.0625,305.9063 421.75,306.9844 Q422.4375,308.0469 423.7813,308.0469 Q424.4063,308.0469 425,307.7813 Q425.5938,307.5 426.2188,306.9219 L426.2188,309.6406 Z " fill="#000000"/><text fill="#000000" font-family="sans-serif" font-size="14" lengthAdjust="spacing" textLength="34" x="443.75" y="308.8467">Whip</text><line style="stroke:#181818;stroke-width:0.5;" x1="372" x2="517" y1="320" y2="320"/><text fill="#000000" font-family="sans-serif" font-size="14" lengthAdjust="spacing" textLength="135" x="377" y="336.9951">Beverage beverage</text><line style="stroke:#181818;stroke-width:0.5;" x1="372" x2="517" y1="344.2969" y2="344.2969"/><ellipse cx="382" cy="357.9453" fill="#84BE84" rx="3" ry="3" style="stroke:#038048;stroke-width:1.0;"/><text fill="#000000" font-family="sans-serif" font-size="14" lengthAdjust="spacing" textLength="40" x="391" y="361.292">cost()</text><ellipse cx="382" cy="374.2422" fill="#84BE84" rx="3" ry="3" style="stroke:#038048;stroke-width:1.0;"/><text fill="#000000" font-family="sans-serif" font-size="14" lengthAdjust="spacing" textLength="112" x="391" y="377.5889">getDescription()</text></g><!--MD5=[45d306746d61aae6853d584fda6d9989]
reverse link Beverage to HouseBlend--><g id="link_Beverage_HouseBlend"><path codeLine="21" d="M563.64,115.29 C538.62,132.03 512.35,149.61 490.86,163.98 " fill="none" id="Beverage-backto-HouseBlend" style="stroke:#181818;stroke-width:1.0;"/><polygon fill="none" points="559.75,109.47,580.26,104.16,567.53,121.1,559.75,109.47" style="stroke:#181818;stroke-width:1.0;"/></g><!--MD5=[07a2fcabb36df965a4c7bf35e4d074c0]
reverse link Beverage to DarkRoast--><g id="link_Beverage_DarkRoast"><path codeLine="22" d="M622.34,122.7 C616.03,137.04 609.64,151.55 604.25,163.77 " fill="none" id="Beverage-backto-DarkRoast" style="stroke:#181818;stroke-width:1.0;"/><polygon fill="none" points="616.04,119.65,630.51,104.16,628.85,125.29,616.04,119.65" style="stroke:#181818;stroke-width:1.0;"/></g><!--MD5=[2043822e86ab2b7f3d53c168bf142118]
reverse link Beverage to Decaf--><g id="link_Beverage_Decaf"><path codeLine="23" d="M681.14,122.7 C687.55,137.04 694.05,151.55 699.52,163.77 " fill="none" id="Beverage-backto-Decaf" style="stroke:#181818;stroke-width:1.0;"/><polygon fill="none" points="674.62,125.28,672.84,104.16,687.4,119.56,674.62,125.28" style="stroke:#181818;stroke-width:1.0;"/></g><!--MD5=[9ab9d4bf547d7982b0339bff1cafba9c]
reverse link Beverage to Espresso--><g id="link_Beverage_Espresso"><path codeLine="24" d="M730.33,116.49 C751.85,132.87 774.3,149.95 792.74,163.98 " fill="none" id="Beverage-backto-Espresso" style="stroke:#181818;stroke-width:1.0;"/><polygon fill="none" points="725.81,121.85,714.13,104.16,734.29,110.71,725.81,121.85" style="stroke:#181818;stroke-width:1.0;"/></g><!--MD5=[520e3a59fb10c3c044ab0f1ed697dfb8]
reverse link Beverage to CondimentDecorator--><g id="link_Beverage_CondimentDecorator"><path codeLine="25" d="M558.89,89.47 C495.5,112.04 411.98,141.78 349.77,163.93 " fill="none" id="Beverage-backto-CondimentDecorator" style="stroke:#181818;stroke-width:1.0;"/><polygon fill="none" points="556.69,82.83,577.87,82.71,561.38,96.02,556.69,82.83" style="stroke:#181818;stroke-width:1.0;"/></g><!--MD5=[e0b40310d863662c60be0a585fc86e22]
reverse link CondimentDecorator to Milk--><g id="link_CondimentDecorator_Milk"><path codeLine="47" d="M205.65,240.26 C185.77,255.39 163.34,272.46 143.02,287.93 " fill="none" id="CondimentDecorator-backto-Milk" style="stroke:#181818;stroke-width:1.0;"/><polygon fill="none" points="201.5,234.62,221.66,228.08,209.98,245.76,201.5,234.62" style="stroke:#181818;stroke-width:1.0;"/></g><!--MD5=[b2f35954bc03414be1fa3899b002b144]
reverse link CondimentDecorator to Soy--><g id="link_CondimentDecorator_Soy"><path codeLine="48" d="M370.64,228.52 C499.46,263.97 628.01,296.99 706.65,316.92 " fill="none" id="CondimentDecorator-backto-Soy" style="stroke:#181818;stroke-width:1.0;"/><polygon fill="none" points="368.64,235.23,351.22,223.16,372.37,221.73,368.64,235.23" style="stroke:#181818;stroke-width:1.0;"/></g><!--MD5=[a8ddc1e494c296992a933b761d3c2a93]
reverse link CondimentDecorator to Mocha--><g id="link_CondimentDecorator_Mocha"><path codeLine="49" d="M262.5,248.13 C262.5,261.15 262.5,275.09 262.5,287.93 " fill="none" id="CondimentDecorator-backto-Mocha" style="stroke:#181818;stroke-width:1.0;"/><polygon fill="none" points="255.5,248.08,262.5,228.08,269.5,248.08,255.5,248.08" style="stroke:#181818;stroke-width:1.0;"/></g><!--MD5=[4f2329419c5f4da4a439c67d0b584d15]
reverse link CondimentDecorator to Whip--><g id="link_CondimentDecorator_Whip"><path codeLine="50" d="M319.35,240.26 C339.23,255.39 361.66,272.46 381.98,287.93 " fill="none" id="CondimentDecorator-backto-Whip" style="stroke:#181818;stroke-width:1.0;"/><polygon fill="none" points="315.02,245.76,303.34,228.08,323.5,234.62,315.02,245.76" style="stroke:#181818;stroke-width:1.0;"/></g><!--MD5=[dcf2b137cff397b4b730734989c79aa2]
reverse link Beverage to Soy--><g id="link_Beverage_Soy"><path codeLine="52" d="M738.06,69.39 C794.44,82.76 863.9,109.77 899.5,164 C927.34,206.41 889.14,253.73 848.81,287.9 " fill="none" id="Beverage-backto-Soy" style="stroke:#181818;stroke-width:1.0;"/><polygon fill="none" points="725.15,66.51,730.1301,71.7252,736.8596,69.1341,731.8795,63.9189,725.15,66.51" style="stroke:#181818;stroke-width:1.0;"/></g><!--MD5=[3dca366c5bf54ec11f63148dd7cbdac4]
@startuml
abstract Beverage {
  -String description
  +getDescription()
  +cost()
}
class HouseBlend {
  +cost()
}
class DarkRoast {
  +cost()
}
class Decaf {
  +cost()
}
class Espresso {
  +cost()
}
abstract CondimentDecorator {
  +getDescription()
}
HouseBlend -up-|>Beverage
DarkRoast -up-|>Beverage
Decaf -up-|>Beverage
Espresso -up-|>Beverage
CondimentDecorator -up-|>Beverage

class Milk {
  Beverage beverage
  +cost()
  +getDescription()
}
class Soy {
  Beverage beverage
  +cost()
  +getDescription()
}
class Mocha {
  Beverage beverage
  +cost()
  +getDescription()
}
class Whip {
  Beverage beverage
  +cost()
  +getDescription()
}
Milk -up-|> CondimentDecorator
Soy -up-|> CondimentDecorator
Mocha -up-|> CondimentDecorator
Whip -up-|> CondimentDecorator

Soy -up-o Beverage
@enduml

PlantUML version 1.2022.7(Tue Aug 23 00:01:30 ICT 2022)
(GPL source distribution)
Java Runtime: OpenJDK Runtime Environment
JVM: OpenJDK 64-Bit Server VM
Default Encoding: UTF-8
Language: en
Country: null
--></g></svg>