<?xml version="1.0" encoding="UTF-8" standalone="no"?><svg xmlns="http://www.w3.org/2000/svg" xmlns:xlink="http://www.w3.org/1999/xlink" contentStyleType="text/css" height="430px" preserveAspectRatio="none" style="width:510px;height:430px;background:#FFFFFF;" version="1.1" viewBox="0 0 510 430" width="510px" zoomAndPan="magnify"><defs/><g><!--MD5=[f45f2220b0b110c1551a8318691639c0]
class Beverage--><g id="elem_Beverage"><rect codeLine="1" fill="#F1F1F1" height="292.4531" id="Beverage" rx="2.5" ry="2.5" style="stroke:#181818;stroke-width:0.5;" width="133" x="206" y="7"/><ellipse cx="236.3" cy="23" fill="#A9DCDF" rx="11" ry="11" style="stroke:#181818;stroke-width:1.0;"/><path d="M236.4094,18.3438 L235.2531,23.4219 L237.5813,23.4219 L236.4094,18.3438 Z M234.925,16.1094 L237.9094,16.1094 L241.2688,28.5 L238.8156,28.5 L238.05,25.4375 L234.7688,25.4375 L234.0188,28.5 L231.5813,28.5 L234.925,16.1094 Z " fill="#000000"/><text fill="#000000" font-family="sans-serif" font-size="14" font-style="italic" lengthAdjust="spacing" textLength="67" x="253.7" y="27.8467">Beverage</text><line style="stroke:#181818;stroke-width:0.5;" x1="207" x2="338" y1="39" y2="39"/><text fill="#000000" font-family="sans-serif" font-size="14" lengthAdjust="spacing" textLength="121" x="212" y="55.9951">String description</text><text fill="#000000" font-family="sans-serif" font-size="14" lengthAdjust="spacing" textLength="87" x="212" y="72.292">boolean milk</text><text fill="#000000" font-family="sans-serif" font-size="14" lengthAdjust="spacing" textLength="84" x="212" y="88.5889">boolean soy</text><text fill="#000000" font-family="sans-serif" font-size="14" lengthAdjust="spacing" textLength="107" x="212" y="104.8857">boolean mocha</text><text fill="#000000" font-family="sans-serif" font-size="14" lengthAdjust="spacing" textLength="92" x="212" y="121.1826">boolean whip</text><line style="stroke:#181818;stroke-width:0.5;" x1="207" x2="338" y1="128.4844" y2="128.4844"/><text fill="#000000" font-family="sans-serif" font-size="14" lengthAdjust="spacing" textLength="112" x="212" y="145.4795">getDescription()</text><text fill="#000000" font-family="sans-serif" font-size="14" lengthAdjust="spacing" textLength="61" x="212" y="161.7764">hasMilk()</text><text fill="#000000" font-family="sans-serif" font-size="14" lengthAdjust="spacing" textLength="81" x="212" y="178.0732">hasMocha()</text><text fill="#000000" font-family="sans-serif" font-size="14" lengthAdjust="spacing" textLength="69" x="212" y="194.3701">hasWhip()</text><text fill="#000000" font-family="sans-serif" font-size="14" lengthAdjust="spacing" textLength="60" x="212" y="210.667">hasSoy()</text><text fill="#000000" font-family="sans-serif" font-size="14" lengthAdjust="spacing" textLength="58" x="212" y="226.9639">setMilk()</text><text fill="#000000" font-family="sans-serif" font-size="14" lengthAdjust="spacing" textLength="57" x="212" y="243.2607">setSoy()</text><text fill="#000000" font-family="sans-serif" font-size="14" lengthAdjust="spacing" textLength="78" x="212" y="259.5576">setMocha()</text><text fill="#000000" font-family="sans-serif" font-size="14" lengthAdjust="spacing" textLength="66" x="212" y="275.8545">setWhip()</text><text fill="#000000" font-family="sans-serif" font-size="14" lengthAdjust="spacing" textLength="40" x="212" y="292.1514">cost()</text></g><!--MD5=[bd7e272a4a95bdce642fcc687eddedc1]
class HouseBlend--><g id="elem_HouseBlend"><rect codeLine="18" fill="#F1F1F1" height="64.2969" id="HouseBlend" rx="2.5" ry="2.5" style="stroke:#181818;stroke-width:0.5;" width="117" x="7" y="359"/><ellipse cx="22" cy="375" fill="#ADD1B2" rx="11" ry="11" style="stroke:#181818;stroke-width:1.0;"/><path d="M24.9688,380.6406 Q24.3906,380.9375 23.75,381.0781 Q23.1094,381.2344 22.4063,381.2344 Q19.9063,381.2344 18.5781,379.5938 Q17.2656,377.9375 17.2656,374.8125 Q17.2656,371.6875 18.5781,370.0313 Q19.9063,368.375 22.4063,368.375 Q23.1094,368.375 23.75,368.5313 Q24.4063,368.6875 24.9688,368.9844 L24.9688,371.7031 Q24.3438,371.125 23.75,370.8594 Q23.1563,370.5781 22.5313,370.5781 Q21.1875,370.5781 20.5,371.6563 Q19.8125,372.7188 19.8125,374.8125 Q19.8125,376.9063 20.5,377.9844 Q21.1875,379.0469 22.5313,379.0469 Q23.1563,379.0469 23.75,378.7813 Q24.3438,378.5 24.9688,377.9219 L24.9688,380.6406 Z " fill="#000000"/><text fill="#000000" font-family="sans-serif" font-size="14" lengthAdjust="spacing" textLength="85" x="36" y="379.8467">HouseBlend</text><line style="stroke:#181818;stroke-width:0.5;" x1="8" x2="123" y1="391" y2="391"/><line style="stroke:#181818;stroke-width:0.5;" x1="8" x2="123" y1="399" y2="399"/><text fill="#000000" font-family="sans-serif" font-size="14" lengthAdjust="spacing" textLength="40" x="13" y="415.9951">cost()</text></g><!--MD5=[ef2f5c504d6cfaf85f831bdc93bdfcbf]
class DarkRoast--><g id="elem_DarkRoast"><rect codeLine="21" fill="#F1F1F1" height="64.2969" id="DarkRoast" rx="2.5" ry="2.5" style="stroke:#181818;stroke-width:0.5;" width="104" x="159.5" y="359"/><ellipse cx="174.5" cy="375" fill="#ADD1B2" rx="11" ry="11" style="stroke:#181818;stroke-width:1.0;"/><path d="M177.4688,380.6406 Q176.8906,380.9375 176.25,381.0781 Q175.6094,381.2344 174.9063,381.2344 Q172.4063,381.2344 171.0781,379.5938 Q169.7656,377.9375 169.7656,374.8125 Q169.7656,371.6875 171.0781,370.0313 Q172.4063,368.375 174.9063,368.375 Q175.6094,368.375 176.25,368.5313 Q176.9063,368.6875 177.4688,368.9844 L177.4688,371.7031 Q176.8438,371.125 176.25,370.8594 Q175.6563,370.5781 175.0313,370.5781 Q173.6875,370.5781 173,371.6563 Q172.3125,372.7188 172.3125,374.8125 Q172.3125,376.9063 173,377.9844 Q173.6875,379.0469 175.0313,379.0469 Q175.6563,379.0469 176.25,378.7813 Q176.8438,378.5 177.4688,377.9219 L177.4688,380.6406 Z " fill="#000000"/><text fill="#000000" font-family="sans-serif" font-size="14" lengthAdjust="spacing" textLength="72" x="188.5" y="379.8467">DarkRoast</text><line style="stroke:#181818;stroke-width:0.5;" x1="160.5" x2="262.5" y1="391" y2="391"/><line style="stroke:#181818;stroke-width:0.5;" x1="160.5" x2="262.5" y1="399" y2="399"/><text fill="#000000" font-family="sans-serif" font-size="14" lengthAdjust="spacing" textLength="40" x="165.5" y="415.9951">cost()</text></g><!--MD5=[4188fab1d5603701389174163c352652]
class Decaf--><g id="elem_Decaf"><rect codeLine="24" fill="#F1F1F1" height="64.2969" id="Decaf" rx="2.5" ry="2.5" style="stroke:#181818;stroke-width:0.5;" width="72" x="298.5" y="359"/><ellipse cx="313.5" cy="375" fill="#ADD1B2" rx="11" ry="11" style="stroke:#181818;stroke-width:1.0;"/><path d="M316.4688,380.6406 Q315.8906,380.9375 315.25,381.0781 Q314.6094,381.2344 313.9063,381.2344 Q311.4063,381.2344 310.0781,379.5938 Q308.7656,377.9375 308.7656,374.8125 Q308.7656,371.6875 310.0781,370.0313 Q311.4063,368.375 313.9063,368.375 Q314.6094,368.375 315.25,368.5313 Q315.9063,368.6875 316.4688,368.9844 L316.4688,371.7031 Q315.8438,371.125 315.25,370.8594 Q314.6563,370.5781 314.0313,370.5781 Q312.6875,370.5781 312,371.6563 Q311.3125,372.7188 311.3125,374.8125 Q311.3125,376.9063 312,377.9844 Q312.6875,379.0469 314.0313,379.0469 Q314.6563,379.0469 315.25,378.7813 Q315.8438,378.5 316.4688,377.9219 L316.4688,380.6406 Z " fill="#000000"/><text fill="#000000" font-family="sans-serif" font-size="14" lengthAdjust="spacing" textLength="40" x="327.5" y="379.8467">Decaf</text><line style="stroke:#181818;stroke-width:0.5;" x1="299.5" x2="369.5" y1="391" y2="391"/><line style="stroke:#181818;stroke-width:0.5;" x1="299.5" x2="369.5" y1="399" y2="399"/><text fill="#000000" font-family="sans-serif" font-size="14" lengthAdjust="spacing" textLength="40" x="304.5" y="415.9951">cost()</text></g><!--MD5=[f5ea9ff06fc8109cace2c9440d07df67]
class Espresso--><g id="elem_Espresso"><rect codeLine="27" fill="#F1F1F1" height="64.2969" id="Espresso" rx="2.5" ry="2.5" style="stroke:#181818;stroke-width:0.5;" width="97" x="406" y="359"/><ellipse cx="421" cy="375" fill="#ADD1B2" rx="11" ry="11" style="stroke:#181818;stroke-width:1.0;"/><path d="M423.9688,380.6406 Q423.3906,380.9375 422.75,381.0781 Q422.1094,381.2344 421.4063,381.2344 Q418.9063,381.2344 417.5781,379.5938 Q416.2656,377.9375 416.2656,374.8125 Q416.2656,371.6875 417.5781,370.0313 Q418.9063,368.375 421.4063,368.375 Q422.1094,368.375 422.75,368.5313 Q423.4063,368.6875 423.9688,368.9844 L423.9688,371.7031 Q423.3438,371.125 422.75,370.8594 Q422.1563,370.5781 421.5313,370.5781 Q420.1875,370.5781 419.5,371.6563 Q418.8125,372.7188 418.8125,374.8125 Q418.8125,376.9063 419.5,377.9844 Q420.1875,379.0469 421.5313,379.0469 Q422.1563,379.0469 422.75,378.7813 Q423.3438,378.5 423.9688,377.9219 L423.9688,380.6406 Z " fill="#000000"/><text fill="#000000" font-family="sans-serif" font-size="14" lengthAdjust="spacing" textLength="65" x="435" y="379.8467">Espresso</text><line style="stroke:#181818;stroke-width:0.5;" x1="407" x2="502" y1="391" y2="391"/><line style="stroke:#181818;stroke-width:0.5;" x1="407" x2="502" y1="399" y2="399"/><text fill="#000000" font-family="sans-serif" font-size="14" lengthAdjust="spacing" textLength="40" x="412" y="415.9951">cost()</text></g><!--MD5=[45d306746d61aae6853d584fda6d9989]
reverse link Beverage to HouseBlend--><g id="link_Beverage_HouseBlend"><path codeLine="30" d="M192.59,245.11 C157.36,285.27 118.29,329.82 92.89,358.78 " fill="none" id="Beverage-backto-HouseBlend" style="stroke:#181818;stroke-width:1.0;"/><polygon fill="none" points="187.41,240.39,205.86,229.97,197.94,249.62,187.41,240.39" style="stroke:#181818;stroke-width:1.0;"/></g><!--MD5=[07a2fcabb36df965a4c7bf35e4d074c0]
reverse link Beverage to DarkRoast--><g id="link_Beverage_DarkRoast"><path codeLine="31" d="M229.95,318.63 C226.07,333.62 222.51,347.42 219.56,358.8 " fill="none" id="Beverage-backto-DarkRoast" style="stroke:#181818;stroke-width:1.0;"/><polygon fill="none" points="223.21,316.71,235,299.09,236.77,320.21,223.21,316.71" style="stroke:#181818;stroke-width:1.0;"/></g><!--MD5=[2043822e86ab2b7f3d53c168bf142118]
reverse link Beverage to Decaf--><g id="link_Beverage_Decaf"><path codeLine="32" d="M315.75,318.63 C319.69,333.62 323.31,347.42 326.3,358.8 " fill="none" id="Beverage-backto-Decaf" style="stroke:#181818;stroke-width:1.0;"/><polygon fill="none" points="308.93,320.22,310.62,299.09,322.47,316.66,308.93,320.22" style="stroke:#181818;stroke-width:1.0;"/></g><!--MD5=[9ab9d4bf547d7982b0339bff1cafba9c]
reverse link Beverage to Espresso--><g id="link_Beverage_Espresso"><path codeLine="33" d="M351.73,256.74 C380.19,293.65 410.22,332.58 430.41,358.76 " fill="none" id="Beverage-backto-Espresso" style="stroke:#181818;stroke-width:1.0;"/><polygon fill="none" points="345.91,260.65,339.24,240.54,356.99,252.1,345.91,260.65" style="stroke:#181818;stroke-width:1.0;"/></g><!--MD5=[d83530fae17cea9b52122c4a7c7415f8]
@startuml
abstract Beverage {
  String description
  boolean milk
  boolean soy
  boolean mocha
  boolean whip
  getDescription()
  hasMilk()
  hasMocha()
  hasWhip()
  hasSoy()
  setMilk()
  setSoy()
  setMocha()
  setWhip()
  cost()
}
class HouseBlend{
  cost()
}
class DarkRoast{
  cost()
}
class Decaf{
  cost()
}
class Espresso{
  cost()
}
HouseBlend -up-|> Beverage
DarkRoast -up-|> Beverage
Decaf -up-|> Beverage
Espresso -up-|> Beverage


@enduml

PlantUML version 1.2022.7(Tue Aug 23 00:01:30 ICT 2022)
(GPL source distribution)
Java Runtime: OpenJDK Runtime Environment
JVM: OpenJDK 64-Bit Server VM
Default Encoding: UTF-8
Language: en
Country: null
--></g></svg>