<?xml version="1.0" encoding="UTF-8" standalone="no"?><svg xmlns="http://www.w3.org/2000/svg" xmlns:xlink="http://www.w3.org/1999/xlink" contentStyleType="text/css" height="392px" preserveAspectRatio="none" style="width:464px;height:392px;background:#FFFFFF;" version="1.1" viewBox="0 0 464 392" width="464px" zoomAndPan="magnify"><defs/><g><!--MD5=[4e13963c9dc916a21a8436ef39422b32]
class Component--><g id="elem_Component"><rect codeLine="1" fill="#F1F1F1" height="80.5938" id="Component" rx="2.5" ry="2.5" style="stroke:#181818;stroke-width:0.5;" width="114" x="168.98" y="7"/><ellipse cx="183.98" cy="23" fill="#A9DCDF" rx="11" ry="11" style="stroke:#181818;stroke-width:1.0;"/><path d="M184.0894,18.3438 L182.9331,23.4219 L185.2613,23.4219 L184.0894,18.3438 Z M182.605,16.1094 L185.5894,16.1094 L188.9488,28.5 L186.4956,28.5 L185.73,25.4375 L182.4488,25.4375 L181.6988,28.5 L179.2613,28.5 L182.605,16.1094 Z " fill="#000000"/><text fill="#000000" font-family="sans-serif" font-size="14" font-style="italic" lengthAdjust="spacing" textLength="82" x="197.98" y="27.8467">Component</text><line style="stroke:#181818;stroke-width:0.5;" x1="169.98" x2="281.98" y1="39" y2="39"/><line style="stroke:#181818;stroke-width:0.5;" x1="169.98" x2="281.98" y1="47" y2="47"/><text fill="#000000" font-family="sans-serif" font-size="14" lengthAdjust="spacing" textLength="73" x="174.98" y="63.9951">methodA()</text><text fill="#000000" font-family="sans-serif" font-size="14" lengthAdjust="spacing" textLength="74" x="174.98" y="80.292">methodB()</text></g><!--MD5=[321dae1e4c20a532a67879525d68ecc8]
class Decorator--><g id="elem_Decorator"><rect codeLine="5" fill="#F1F1F1" height="80.5938" id="Decorator" rx="2.5" ry="2.5" style="stroke:#181818;stroke-width:0.5;" width="101" x="263.48" y="148"/><ellipse cx="278.48" cy="164" fill="#A9DCDF" rx="11" ry="11" style="stroke:#181818;stroke-width:1.0;"/><path d="M278.5894,159.3438 L277.4331,164.4219 L279.7613,164.4219 L278.5894,159.3438 Z M277.105,157.1094 L280.0894,157.1094 L283.4488,169.5 L280.9956,169.5 L280.23,166.4375 L276.9488,166.4375 L276.1988,169.5 L273.7613,169.5 L277.105,157.1094 Z " fill="#000000"/><text fill="#000000" font-family="sans-serif" font-size="14" font-style="italic" lengthAdjust="spacing" textLength="69" x="292.48" y="168.8467">Decorator</text><line style="stroke:#181818;stroke-width:0.5;" x1="264.48" x2="363.48" y1="180" y2="180"/><line style="stroke:#181818;stroke-width:0.5;" x1="264.48" x2="363.48" y1="188" y2="188"/><text fill="#000000" font-family="sans-serif" font-size="14" lengthAdjust="spacing" textLength="73" x="269.48" y="204.9951">methodA()</text><text fill="#000000" font-family="sans-serif" font-size="14" lengthAdjust="spacing" textLength="74" x="269.48" y="221.292">methodB()</text></g><!--MD5=[b5bc18f2ff550a3ef28474c0b2646ebb]
class ConcreteComponent--><g id="elem_ConcreteComponent"><rect codeLine="9" fill="#F1F1F1" height="80.5938" id="ConcreteComponent" rx="2.5" ry="2.5" style="stroke:#181818;stroke-width:0.5;" width="178" x="49.98" y="148"/><ellipse cx="64.98" cy="164" fill="#ADD1B2" rx="11" ry="11" style="stroke:#181818;stroke-width:1.0;"/><path d="M67.9488,169.6406 Q67.3706,169.9375 66.73,170.0781 Q66.0894,170.2344 65.3863,170.2344 Q62.8863,170.2344 61.5581,168.5938 Q60.2456,166.9375 60.2456,163.8125 Q60.2456,160.6875 61.5581,159.0313 Q62.8863,157.375 65.3863,157.375 Q66.0894,157.375 66.73,157.5313 Q67.3863,157.6875 67.9488,157.9844 L67.9488,160.7031 Q67.3238,160.125 66.73,159.8594 Q66.1363,159.5781 65.5113,159.5781 Q64.1675,159.5781 63.48,160.6563 Q62.7925,161.7188 62.7925,163.8125 Q62.7925,165.9063 63.48,166.9844 Q64.1675,168.0469 65.5113,168.0469 Q66.1363,168.0469 66.73,167.7813 Q67.3238,167.5 67.9488,166.9219 L67.9488,169.6406 Z " fill="#000000"/><text fill="#000000" font-family="sans-serif" font-size="14" lengthAdjust="spacing" textLength="146" x="78.98" y="168.8467">ConcreteComponent</text><line style="stroke:#181818;stroke-width:0.5;" x1="50.98" x2="226.98" y1="180" y2="180"/><line style="stroke:#181818;stroke-width:0.5;" x1="50.98" x2="226.98" y1="188" y2="188"/><text fill="#000000" font-family="sans-serif" font-size="14" lengthAdjust="spacing" textLength="73" x="55.98" y="204.9951">methodA()</text><text fill="#000000" font-family="sans-serif" font-size="14" lengthAdjust="spacing" textLength="74" x="55.98" y="221.292">methodB()</text></g><!--MD5=[77574f39b28822e6cedb054060366ceb]
class ConcreteDecorator01--><g id="elem_ConcreteDecorator01"><rect codeLine="16" fill="#F1F1F1" height="96.8906" id="ConcreteDecorator01" rx="2.5" ry="2.5" style="stroke:#181818;stroke-width:0.5;" width="183" x="7.48" y="289"/><ellipse cx="22.48" cy="305" fill="#ADD1B2" rx="11" ry="11" style="stroke:#181818;stroke-width:1.0;"/><path d="M25.4488,310.6406 Q24.8706,310.9375 24.23,311.0781 Q23.5894,311.2344 22.8863,311.2344 Q20.3863,311.2344 19.0581,309.5938 Q17.7456,307.9375 17.7456,304.8125 Q17.7456,301.6875 19.0581,300.0313 Q20.3863,298.375 22.8863,298.375 Q23.5894,298.375 24.23,298.5313 Q24.8863,298.6875 25.4488,298.9844 L25.4488,301.7031 Q24.8238,301.125 24.23,300.8594 Q23.6363,300.5781 23.0113,300.5781 Q21.6675,300.5781 20.98,301.6563 Q20.2925,302.7188 20.2925,304.8125 Q20.2925,306.9063 20.98,307.9844 Q21.6675,309.0469 23.0113,309.0469 Q23.6363,309.0469 24.23,308.7813 Q24.8238,308.5 25.4488,307.9219 L25.4488,310.6406 Z " fill="#000000"/><text fill="#000000" font-family="sans-serif" font-size="14" lengthAdjust="spacing" textLength="151" x="36.48" y="309.8467">ConcreteDecorator01</text><line style="stroke:#181818;stroke-width:0.5;" x1="8.48" x2="189.48" y1="321" y2="321"/><text fill="#000000" font-family="sans-serif" font-size="14" lengthAdjust="spacing" textLength="169" x="13.48" y="337.9951">Component wrappedObj</text><line style="stroke:#181818;stroke-width:0.5;" x1="8.48" x2="189.48" y1="345.2969" y2="345.2969"/><text fill="#000000" font-family="sans-serif" font-size="14" lengthAdjust="spacing" textLength="73" x="13.48" y="362.292">methodA()</text><text fill="#000000" font-family="sans-serif" font-size="14" lengthAdjust="spacing" textLength="74" x="13.48" y="378.5889">methodB()</text></g><!--MD5=[9dc16e08b00043d3c850ba98083ec644]
class ConcreteDecorator02--><g id="elem_ConcreteDecorator02"><rect codeLine="21" fill="#F1F1F1" height="96.8906" id="ConcreteDecorator02" rx="2.5" ry="2.5" style="stroke:#181818;stroke-width:0.5;" width="183" x="274.48" y="289"/><ellipse cx="289.48" cy="305" fill="#ADD1B2" rx="11" ry="11" style="stroke:#181818;stroke-width:1.0;"/><path d="M292.4488,310.6406 Q291.8706,310.9375 291.23,311.0781 Q290.5894,311.2344 289.8863,311.2344 Q287.3863,311.2344 286.0581,309.5938 Q284.7456,307.9375 284.7456,304.8125 Q284.7456,301.6875 286.0581,300.0313 Q287.3863,298.375 289.8863,298.375 Q290.5894,298.375 291.23,298.5313 Q291.8863,298.6875 292.4488,298.9844 L292.4488,301.7031 Q291.8238,301.125 291.23,300.8594 Q290.6363,300.5781 290.0113,300.5781 Q288.6675,300.5781 287.98,301.6563 Q287.2925,302.7188 287.2925,304.8125 Q287.2925,306.9063 287.98,307.9844 Q288.6675,309.0469 290.0113,309.0469 Q290.6363,309.0469 291.23,308.7813 Q291.8238,308.5 292.4488,307.9219 L292.4488,310.6406 Z " fill="#000000"/><text fill="#000000" font-family="sans-serif" font-size="14" lengthAdjust="spacing" textLength="151" x="303.48" y="309.8467">ConcreteDecorator02</text><line style="stroke:#181818;stroke-width:0.5;" x1="275.48" x2="456.48" y1="321" y2="321"/><text fill="#000000" font-family="sans-serif" font-size="14" lengthAdjust="spacing" textLength="169" x="280.48" y="337.9951">Component wrappedObj</text><line style="stroke:#181818;stroke-width:0.5;" x1="275.48" x2="456.48" y1="345.2969" y2="345.2969"/><text fill="#000000" font-family="sans-serif" font-size="14" lengthAdjust="spacing" textLength="73" x="280.48" y="362.292">methodA()</text><text fill="#000000" font-family="sans-serif" font-size="14" lengthAdjust="spacing" textLength="74" x="280.48" y="378.5889">methodB()</text></g><!--MD5=[c50e16e7686754e8210f5940617c961a]
reverse link Component to Decorator--><g id="link_Component_Decorator"><path codeLine="13" d="M262.16,105.65 C271.1,119.76 280.47,134.58 288.76,147.66 " fill="none" id="Component-backto-Decorator" style="stroke:#181818;stroke-width:1.0;"/><polygon fill="none" points="255.98,108.97,251.2,88.33,267.81,101.49,255.98,108.97" style="stroke:#181818;stroke-width:1.0;"/></g><!--MD5=[4758994e2c5b8c480b5268b073beb8b0]
reverse link Component to ConcreteComponent--><g id="link_Component_ConcreteComponent"><path codeLine="14" d="M190.21,105.65 C181.38,119.76 172.11,134.58 163.91,147.66 " fill="none" id="Component-backto-ConcreteComponent" style="stroke:#181818;stroke-width:1.0;"/><polygon fill="none" points="184.5,101.57,201.05,88.33,196.37,109,184.5,101.57" style="stroke:#181818;stroke-width:1.0;"/></g><!--MD5=[f6b1c27ad62f4fa89fae8a2093a8f5fe]
reverse link Decorator to ConcreteDecorator01--><g id="link_Decorator_ConcreteDecorator01"><path codeLine="26" d="M246.76,235.46 C221.97,252.41 193.85,271.63 168.85,288.73 " fill="none" id="Decorator-backto-ConcreteDecorator01" style="stroke:#181818;stroke-width:1.0;"/><polygon fill="none" points="242.84,229.66,263.3,224.15,250.74,241.22,242.84,229.66" style="stroke:#181818;stroke-width:1.0;"/></g><!--MD5=[323e749202754775afb55b2df3858fef]
reverse link Decorator to ConcreteDecorator02--><g id="link_Decorator_ConcreteDecorator02"><path codeLine="27" d="M334.78,248.3 C339.54,261.76 344.55,275.91 349.12,288.84 " fill="none" id="Decorator-backto-ConcreteDecorator02" style="stroke:#181818;stroke-width:1.0;"/><polygon fill="none" points="328.12,250.47,328.05,229.28,341.32,245.8,328.12,250.47" style="stroke:#181818;stroke-width:1.0;"/></g><!--MD5=[56891cb600bd696be887397a6750db55]
reverse link Component to ConcreteDecorator02--><g id="link_Component_ConcreteDecorator02"><path codeLine="28" d="M295.04,74.02 C327.61,89.95 363.34,114.01 381.98,148 C405.74,191.34 396.04,248.87 384,288.93 " fill="none" id="Component-backto-ConcreteDecorator02" style="stroke:#181818;stroke-width:1.0;"/><polygon fill="none" points="283.22,68.51,286.9717,74.6683,294.0992,73.5738,290.3476,67.4155,283.22,68.51" style="stroke:#181818;stroke-width:1.0;"/></g><!--MD5=[0072636cb80ed8240c7dd22e50de35f1]
reverse link Component to ConcreteDecorator01--><g id="link_Component_ConcreteDecorator01"><path codeLine="29" d="M156.17,64.71 C112.52,78.85 59.68,104.2 32.98,148 C6,192.26 33.04,249.11 60.21,288.75 " fill="none" id="Component-backto-ConcreteDecorator01" style="stroke:#181818;stroke-width:1.0;"/><polygon fill="none" points="168.79,60.85,161.8805,58.7864,157.3181,64.3707,164.2276,66.4343,168.79,60.85" style="stroke:#181818;stroke-width:1.0;"/></g><!--MD5=[20572925a80832c8a6219f1c6cc85f68]
@startuml
abstract Component{
  methodA()
  methodB()
}
abstract Decorator {
  methodA()
  methodB()
}
class ConcreteComponent {
  methodA()
  methodB()
}
Decorator -up-|> Component
ConcreteComponent -up-|> Component

class ConcreteDecorator01 {
  Component wrappedObj
  methodA()
  methodB()
}
class ConcreteDecorator02 {
  Component wrappedObj
  methodA()
  methodB()
}
ConcreteDecorator01 -up-|>Decorator
ConcreteDecorator02 -up-|>Decorator
ConcreteDecorator02 -up-o Component
ConcreteDecorator01 -up-o Component

@enduml

PlantUML version 1.2022.7(Tue Aug 23 00:01:30 ICT 2022)
(GPL source distribution)
Java Runtime: OpenJDK Runtime Environment
JVM: OpenJDK 64-Bit Server VM
Default Encoding: UTF-8
Language: en
Country: null
--></g></svg>