<?xml version="1.0" encoding="UTF-8" standalone="no"?><svg xmlns="http://www.w3.org/2000/svg" xmlns:xlink="http://www.w3.org/1999/xlink" contentStyleType="text/css" height="375px" preserveAspectRatio="none" style="width:744px;height:375px;background:#FFFFFF;" version="1.1" viewBox="0 0 744 375" width="744px" zoomAndPan="magnify"><defs/><g><!--MD5=[5c5a2dd8ed299478ae091ad6bda6d6bd]
class Pizza--><g id="elem_Pizza"><rect codeLine="1" fill="#F1F1F1" height="96.8906" id="Pizza" rx="2.5" ry="2.5" style="stroke:#181818;stroke-width:0.5;" width="147" x="418.5" y="7"/><ellipse cx="471.25" cy="23" fill="#A9DCDF" rx="11" ry="11" style="stroke:#181818;stroke-width:1.0;"/><path d="M471.3594,18.3438 L470.2031,23.4219 L472.5313,23.4219 L471.3594,18.3438 Z M469.875,16.1094 L472.8594,16.1094 L476.2188,28.5 L473.7656,28.5 L473,25.4375 L469.7188,25.4375 L468.9688,28.5 L466.5313,28.5 L469.875,16.1094 Z " fill="#000000"/><text fill="#000000" font-family="sans-serif" font-size="14" font-style="italic" lengthAdjust="spacing" textLength="33" x="491.75" y="27.8467">Pizza</text><line style="stroke:#181818;stroke-width:0.5;" x1="419.5" x2="564.5" y1="39" y2="39"/><rect fill="none" height="6" style="stroke:#C82930;stroke-width:1.0;" width="6" x="426.5" y="49.6484"/><text fill="#000000" font-family="sans-serif" font-size="14" lengthAdjust="spacing" textLength="121" x="438.5" y="55.9951">String description</text><line style="stroke:#181818;stroke-width:0.5;" x1="419.5" x2="564.5" y1="63.2969" y2="63.2969"/><ellipse cx="429.5" cy="76.9453" fill="#84BE84" rx="3" ry="3" style="stroke:#038048;stroke-width:1.0;"/><text fill="#000000" font-family="sans-serif" font-size="14" lengthAdjust="spacing" textLength="40" x="438.5" y="80.292">cost()</text><ellipse cx="429.5" cy="93.2422" fill="#84BE84" rx="3" ry="3" style="stroke:#038048;stroke-width:1.0;"/><text fill="#000000" font-family="sans-serif" font-size="14" lengthAdjust="spacing" textLength="112" x="438.5" y="96.5889">getDescription()</text></g><!--MD5=[20ac3253f36268077abfccde8bc70bf7]
class ThinCrustPizza--><g id="elem_ThinCrustPizza"><rect codeLine="6" fill="#F1F1F1" height="64.2969" id="ThinCrustPizza" rx="2.5" ry="2.5" style="stroke:#181818;stroke-width:0.5;" width="135" x="424.5" y="164"/><ellipse cx="439.5" cy="180" fill="#ADD1B2" rx="11" ry="11" style="stroke:#181818;stroke-width:1.0;"/><path d="M442.4688,185.6406 Q441.8906,185.9375 441.25,186.0781 Q440.6094,186.2344 439.9063,186.2344 Q437.4063,186.2344 436.0781,184.5938 Q434.7656,182.9375 434.7656,179.8125 Q434.7656,176.6875 436.0781,175.0313 Q437.4063,173.375 439.9063,173.375 Q440.6094,173.375 441.25,173.5313 Q441.9063,173.6875 442.4688,173.9844 L442.4688,176.7031 Q441.8438,176.125 441.25,175.8594 Q440.6563,175.5781 440.0313,175.5781 Q438.6875,175.5781 438,176.6563 Q437.3125,177.7188 437.3125,179.8125 Q437.3125,181.9063 438,182.9844 Q438.6875,184.0469 440.0313,184.0469 Q440.6563,184.0469 441.25,183.7813 Q441.8438,183.5 442.4688,182.9219 L442.4688,185.6406 Z " fill="#000000"/><text fill="#000000" font-family="sans-serif" font-size="14" lengthAdjust="spacing" textLength="103" x="453.5" y="184.8467">ThinCrustPizza</text><line style="stroke:#181818;stroke-width:0.5;" x1="425.5" x2="558.5" y1="196" y2="196"/><line style="stroke:#181818;stroke-width:0.5;" x1="425.5" x2="558.5" y1="204" y2="204"/><text fill="#000000" font-family="sans-serif" font-size="14" lengthAdjust="spacing" textLength="40" x="430.5" y="220.9951">cost()</text></g><!--MD5=[18c8f15e74a7dcf6da57a7f762efc371]
class ThickCrustPizza--><g id="elem_ThickCrustPizza"><rect codeLine="9" fill="#F1F1F1" height="64.2969" id="ThickCrustPizza" rx="2.5" ry="2.5" style="stroke:#181818;stroke-width:0.5;" width="142" x="595" y="164"/><ellipse cx="610" cy="180" fill="#ADD1B2" rx="11" ry="11" style="stroke:#181818;stroke-width:1.0;"/><path d="M612.9688,185.6406 Q612.3906,185.9375 611.75,186.0781 Q611.1094,186.2344 610.4063,186.2344 Q607.9063,186.2344 606.5781,184.5938 Q605.2656,182.9375 605.2656,179.8125 Q605.2656,176.6875 606.5781,175.0313 Q607.9063,173.375 610.4063,173.375 Q611.1094,173.375 611.75,173.5313 Q612.4063,173.6875 612.9688,173.9844 L612.9688,176.7031 Q612.3438,176.125 611.75,175.8594 Q611.1563,175.5781 610.5313,175.5781 Q609.1875,175.5781 608.5,176.6563 Q607.8125,177.7188 607.8125,179.8125 Q607.8125,181.9063 608.5,182.9844 Q609.1875,184.0469 610.5313,184.0469 Q611.1563,184.0469 611.75,183.7813 Q612.3438,183.5 612.9688,182.9219 L612.9688,185.6406 Z " fill="#000000"/><text fill="#000000" font-family="sans-serif" font-size="14" lengthAdjust="spacing" textLength="110" x="624" y="184.8467">ThickCrustPizza</text><line style="stroke:#181818;stroke-width:0.5;" x1="596" x2="736" y1="196" y2="196"/><line style="stroke:#181818;stroke-width:0.5;" x1="596" x2="736" y1="204" y2="204"/><text fill="#000000" font-family="sans-serif" font-size="14" lengthAdjust="spacing" textLength="40" x="601" y="220.9951">cost()</text></g><!--MD5=[56892c6b98c89144d3bd5a37e0c1daeb]
class ToppingDecorator--><g id="elem_ToppingDecorator"><rect codeLine="14" fill="#F1F1F1" height="80.5938" id="ToppingDecorator" rx="2.5" ry="2.5" style="stroke:#181818;stroke-width:0.5;" width="158" x="225" y="15"/><ellipse cx="240" cy="31" fill="#A9DCDF" rx="11" ry="11" style="stroke:#181818;stroke-width:1.0;"/><path d="M240.1094,26.3438 L238.9531,31.4219 L241.2813,31.4219 L240.1094,26.3438 Z M238.625,24.1094 L241.6094,24.1094 L244.9688,36.5 L242.5156,36.5 L241.75,33.4375 L238.4688,33.4375 L237.7188,36.5 L235.2813,36.5 L238.625,24.1094 Z " fill="#000000"/><text fill="#000000" font-family="sans-serif" font-size="14" font-style="italic" lengthAdjust="spacing" textLength="126" x="254" y="35.8467">ToppingDecorator</text><line style="stroke:#181818;stroke-width:0.5;" x1="226" x2="382" y1="47" y2="47"/><text fill="#000000" font-family="sans-serif" font-size="14" lengthAdjust="spacing" textLength="76" x="231" y="63.9951">Pizza pizza</text><line style="stroke:#181818;stroke-width:0.5;" x1="226" x2="382" y1="71.2969" y2="71.2969"/><ellipse cx="236" cy="84.9453" fill="#84BE84" rx="3" ry="3" style="stroke:#038048;stroke-width:1.0;"/><text fill="#000000" font-family="sans-serif" font-size="14" lengthAdjust="spacing" textLength="112" x="245" y="88.292">getDescription()</text></g><!--MD5=[6a2897fb52bc57835b526dc756c6e029]
class Cheese--><g id="elem_Cheese"><rect codeLine="19" fill="#F1F1F1" height="80.5938" id="Cheese" rx="2.5" ry="2.5" style="stroke:#181818;stroke-width:0.5;" width="138" x="7" y="288"/><ellipse cx="45.4" cy="304" fill="#ADD1B2" rx="11" ry="11" style="stroke:#181818;stroke-width:1.0;"/><path d="M48.3688,309.6406 Q47.7906,309.9375 47.15,310.0781 Q46.5094,310.2344 45.8063,310.2344 Q43.3063,310.2344 41.9781,308.5938 Q40.6656,306.9375 40.6656,303.8125 Q40.6656,300.6875 41.9781,299.0313 Q43.3063,297.375 45.8063,297.375 Q46.5094,297.375 47.15,297.5313 Q47.8063,297.6875 48.3688,297.9844 L48.3688,300.7031 Q47.7438,300.125 47.15,299.8594 Q46.5563,299.5781 45.9313,299.5781 Q44.5875,299.5781 43.9,300.6563 Q43.2125,301.7188 43.2125,303.8125 Q43.2125,305.9063 43.9,306.9844 Q44.5875,308.0469 45.9313,308.0469 Q46.5563,308.0469 47.15,307.7813 Q47.7438,307.5 48.3688,306.9219 L48.3688,309.6406 Z " fill="#000000"/><text fill="#000000" font-family="sans-serif" font-size="14" lengthAdjust="spacing" textLength="54" x="64.6" y="308.8467">Cheese</text><line style="stroke:#181818;stroke-width:0.5;" x1="8" x2="144" y1="320" y2="320"/><line style="stroke:#181818;stroke-width:0.5;" x1="8" x2="144" y1="328" y2="328"/><ellipse cx="18" cy="341.6484" fill="#84BE84" rx="3" ry="3" style="stroke:#038048;stroke-width:1.0;"/><text fill="#000000" font-family="sans-serif" font-size="14" lengthAdjust="spacing" textLength="40" x="27" y="344.9951">cost()</text><ellipse cx="18" cy="357.9453" fill="#84BE84" rx="3" ry="3" style="stroke:#038048;stroke-width:1.0;"/><text fill="#000000" font-family="sans-serif" font-size="14" lengthAdjust="spacing" textLength="112" x="27" y="361.292">getDescription()</text></g><!--MD5=[8cc419aee422966f62a3b1afdff628fd]
class Olives--><g id="elem_Olives"><rect codeLine="23" fill="#F1F1F1" height="80.5938" id="Olives" rx="2.5" ry="2.5" style="stroke:#181818;stroke-width:0.5;" width="138" x="180" y="288"/><ellipse cx="224.25" cy="304" fill="#ADD1B2" rx="11" ry="11" style="stroke:#181818;stroke-width:1.0;"/><path d="M227.2188,309.6406 Q226.6406,309.9375 226,310.0781 Q225.3594,310.2344 224.6563,310.2344 Q222.1563,310.2344 220.8281,308.5938 Q219.5156,306.9375 219.5156,303.8125 Q219.5156,300.6875 220.8281,299.0313 Q222.1563,297.375 224.6563,297.375 Q225.3594,297.375 226,297.5313 Q226.6563,297.6875 227.2188,297.9844 L227.2188,300.7031 Q226.5938,300.125 226,299.8594 Q225.4063,299.5781 224.7813,299.5781 Q223.4375,299.5781 222.75,300.6563 Q222.0625,301.7188 222.0625,303.8125 Q222.0625,305.9063 222.75,306.9844 Q223.4375,308.0469 224.7813,308.0469 Q225.4063,308.0469 226,307.7813 Q226.5938,307.5 227.2188,306.9219 L227.2188,309.6406 Z " fill="#000000"/><text fill="#000000" font-family="sans-serif" font-size="14" lengthAdjust="spacing" textLength="41" x="244.75" y="308.8467">Olives</text><line style="stroke:#181818;stroke-width:0.5;" x1="181" x2="317" y1="320" y2="320"/><line style="stroke:#181818;stroke-width:0.5;" x1="181" x2="317" y1="328" y2="328"/><ellipse cx="191" cy="341.6484" fill="#84BE84" rx="3" ry="3" style="stroke:#038048;stroke-width:1.0;"/><text fill="#000000" font-family="sans-serif" font-size="14" lengthAdjust="spacing" textLength="40" x="200" y="344.9951">cost()</text><ellipse cx="191" cy="357.9453" fill="#84BE84" rx="3" ry="3" style="stroke:#038048;stroke-width:1.0;"/><text fill="#000000" font-family="sans-serif" font-size="14" lengthAdjust="spacing" textLength="112" x="200" y="361.292">getDescription()</text></g><!--MD5=[fe6609d71dd57f2f911798978933e28d]
class Peppers--><g id="elem_Peppers"><rect codeLine="27" fill="#F1F1F1" height="80.5938" id="Peppers" rx="2.5" ry="2.5" style="stroke:#181818;stroke-width:0.5;" width="138" x="353" y="288"/><ellipse cx="389.6" cy="304" fill="#ADD1B2" rx="11" ry="11" style="stroke:#181818;stroke-width:1.0;"/><path d="M392.5688,309.6406 Q391.9906,309.9375 391.35,310.0781 Q390.7094,310.2344 390.0063,310.2344 Q387.5063,310.2344 386.1781,308.5938 Q384.8656,306.9375 384.8656,303.8125 Q384.8656,300.6875 386.1781,299.0313 Q387.5063,297.375 390.0063,297.375 Q390.7094,297.375 391.35,297.5313 Q392.0063,297.6875 392.5688,297.9844 L392.5688,300.7031 Q391.9438,300.125 391.35,299.8594 Q390.7563,299.5781 390.1313,299.5781 Q388.7875,299.5781 388.1,300.6563 Q387.4125,301.7188 387.4125,303.8125 Q387.4125,305.9063 388.1,306.9844 Q388.7875,308.0469 390.1313,308.0469 Q390.7563,308.0469 391.35,307.7813 Q391.9438,307.5 392.5688,306.9219 L392.5688,309.6406 Z " fill="#000000"/><text fill="#000000" font-family="sans-serif" font-size="14" lengthAdjust="spacing" textLength="58" x="408.4" y="308.8467">Peppers</text><line style="stroke:#181818;stroke-width:0.5;" x1="354" x2="490" y1="320" y2="320"/><line style="stroke:#181818;stroke-width:0.5;" x1="354" x2="490" y1="328" y2="328"/><ellipse cx="364" cy="341.6484" fill="#84BE84" rx="3" ry="3" style="stroke:#038048;stroke-width:1.0;"/><text fill="#000000" font-family="sans-serif" font-size="14" lengthAdjust="spacing" textLength="40" x="373" y="344.9951">cost()</text><ellipse cx="364" cy="357.9453" fill="#84BE84" rx="3" ry="3" style="stroke:#038048;stroke-width:1.0;"/><text fill="#000000" font-family="sans-serif" font-size="14" lengthAdjust="spacing" textLength="112" x="373" y="361.292">getDescription()</text></g><!--MD5=[c93e6cbe161259d97589a7b38169956a]
reverse link Pizza to ThinCrustPizza--><g id="link_Pizza_ThinCrustPizza"><path codeLine="12" d="M492,124.64 C492,138.34 492,152.1 492,163.77 " fill="none" id="Pizza-backto-ThinCrustPizza" style="stroke:#181818;stroke-width:1.0;"/><polygon fill="none" points="485,124.16,492,104.16,499,124.16,485,124.16" style="stroke:#181818;stroke-width:1.0;"/></g><!--MD5=[4fedeff97b843eacf5f936118221490b]
reverse link Pizza to ThickCrustPizza--><g id="link_Pizza_ThickCrustPizza"><path codeLine="13" d="M567.67,116.73 C588.15,133.03 609.49,150.02 627.03,163.98 " fill="none" id="Pizza-backto-ThickCrustPizza" style="stroke:#181818;stroke-width:1.0;"/><polygon fill="none" points="563.17,122.1,551.88,104.16,571.89,111.14,563.17,122.1" style="stroke:#181818;stroke-width:1.0;"/></g><!--MD5=[f648339110e0417e09204db774dbbc44]
reverse link Pizza to ToppingDecorator--><g id="link_Pizza_ToppingDecorator"><path codeLine="18" d="M398,85.87 C393.1,85.87 388.21,85.63 383.31,85.13 " fill="none" id="Pizza-backto-ToppingDecorator" style="stroke:#181818;stroke-width:1.0;"/><polygon fill="none" points="397.69,78.88,418.13,84.48,398.66,92.85,397.69,78.88" style="stroke:#181818;stroke-width:1.0;"/></g><!--MD5=[c73d5662bce71abcacb1844ed9ebe464]
link ToppingDecorator to Pizza--><g id="link_ToppingDecorator_Pizza"><path codeLine="34" d="M383.31,25.87 C390.57,25.13 397.82,24.94 405.07,25.3 " fill="none" id="ToppingDecorator-to-Pizza" style="stroke:#181818;stroke-width:1.0;"/><polygon fill="none" points="418.13,26.52,412.5299,21.977,406.1825,25.3991,411.7826,29.9421,418.13,26.52" style="stroke:#181818;stroke-width:1.0;"/></g><!--MD5=[ef2b158f7d215ee58e3c9fcd22e3749b]
reverse link ToppingDecorator to Cheese--><g id="link_ToppingDecorator_Cheese"><path codeLine="31" d="M257.68,111.55 C213.7,163.83 148.65,241.15 109.49,287.7 " fill="none" id="ToppingDecorator-backto-Cheese" style="stroke:#181818;stroke-width:1.0;"/><polygon fill="none" points="252.37,106.99,270.6,96.2,263.08,116.01,252.37,106.99" style="stroke:#181818;stroke-width:1.0;"/></g><!--MD5=[3689bb28f50925391a6b9867937b2da4]
reverse link ToppingDecorator to Olives--><g id="link_ToppingDecorator_Olives"><path codeLine="32" d="M291.92,116.01 C281.34,168.14 266.26,242.46 257.08,287.7 " fill="none" id="ToppingDecorator-backto-Olives" style="stroke:#181818;stroke-width:1.0;"/><polygon fill="none" points="285.11,114.4,295.94,96.2,298.83,117.19,285.11,114.4" style="stroke:#181818;stroke-width:1.0;"/></g><!--MD5=[c05d545100004978d14ef8c79f9885a8]
reverse link ToppingDecorator to Peppers--><g id="link_ToppingDecorator_Peppers"><path codeLine="33" d="M329.31,114.62 C352.04,166.82 384.8,242.05 404.67,287.7 " fill="none" id="ToppingDecorator-backto-Peppers" style="stroke:#181818;stroke-width:1.0;"/><polygon fill="none" points="322.85,117.33,321.28,96.2,335.69,111.74,322.85,117.33" style="stroke:#181818;stroke-width:1.0;"/></g><!--MD5=[239732062688240f6592c9224cf8009e]
@startuml
abstract Pizza {
  -String description
  +cost()
  +getDescription()
}
class ThinCrustPizza{
  cost()
}
class ThickCrustPizza{
  cost()
}
ThinCrustPizza -up-|> Pizza
ThickCrustPizza -up-|> Pizza
abstract ToppingDecorator {
  Pizza pizza
  +getDescription()
}
ToppingDecorator -up-|> Pizza
class Cheese {
  +cost()
  +getDescription()
}
class Olives {
  +cost()
  +getDescription()
}
class Peppers {
  +cost()
  +getDescription()
}
Cheese - -up-|> ToppingDecorator
Olives - -up-|> ToppingDecorator
Peppers - -up-|> ToppingDecorator
ToppingDecorator -right-o Pizza
@enduml

PlantUML version 1.2022.7(Tue Aug 23 00:01:30 ICT 2022)
(GPL source distribution)
Java Runtime: OpenJDK Runtime Environment
JVM: OpenJDK 64-Bit Server VM
Default Encoding: UTF-8
Language: en
Country: null
--></g></svg>