<?xml version="1.0" encoding="UTF-8" standalone="no"?><svg xmlns="http://www.w3.org/2000/svg" xmlns:xlink="http://www.w3.org/1999/xlink" contentStyleType="text/css" height="251px" preserveAspectRatio="none" style="width:413px;height:251px;background:#FFFFFF;" version="1.1" viewBox="0 0 413 251" width="413px" zoomAndPan="magnify"><defs/><g><!--MD5=[2e3f1e60e74253ff42e47f8bfdb04ee2]
class Drone--><g id="elem_Drone"><rect codeLine="1" fill="#F1F1F1" height="96.8906" id="Drone" rx="2.5" ry="2.5" style="stroke:#181818;stroke-width:0.5;" width="99" x="307.5" y="148"/><ellipse cx="333.3" cy="164" fill="#B4A7E5" rx="11" ry="11" style="stroke:#181818;stroke-width:1.0;"/><path d="M329.2219,159.7656 L329.2219,157.6094 L336.6125,157.6094 L336.6125,159.7656 L334.1438,159.7656 L334.1438,167.8438 L336.6125,167.8438 L336.6125,170 L329.2219,170 L329.2219,167.8438 L331.6906,167.8438 L331.6906,159.7656 L329.2219,159.7656 Z " fill="#000000"/><text fill="#000000" font-family="sans-serif" font-size="14" font-style="italic" lengthAdjust="spacing" textLength="43" x="349.7" y="168.8467">Drone</text><line style="stroke:#181818;stroke-width:0.5;" x1="308.5" x2="405.5" y1="180" y2="180"/><line style="stroke:#181818;stroke-width:0.5;" x1="308.5" x2="405.5" y1="188" y2="188"/><text fill="#000000" font-family="sans-serif" font-size="14" lengthAdjust="spacing" textLength="46" x="313.5" y="204.9951">beep()</text><text fill="#000000" font-family="sans-serif" font-size="14" lengthAdjust="spacing" textLength="87" x="313.5" y="221.292">spin_rotors()</text><text fill="#000000" font-family="sans-serif" font-size="14" lengthAdjust="spacing" textLength="64" x="313.5" y="237.5889">take_off()</text></g><!--MD5=[ee80f128756adf0e95ba2af8ad3ecb8c]
class Duck--><g id="elem_Duck"><rect codeLine="6" fill="#F1F1F1" height="80.5938" id="Duck" rx="2.5" ry="2.5" style="stroke:#181818;stroke-width:0.5;" width="68" x="174" y="7"/><ellipse cx="189" cy="23" fill="#B4A7E5" rx="11" ry="11" style="stroke:#181818;stroke-width:1.0;"/><path d="M184.9219,18.7656 L184.9219,16.6094 L192.3125,16.6094 L192.3125,18.7656 L189.8438,18.7656 L189.8438,26.8438 L192.3125,26.8438 L192.3125,29 L184.9219,29 L184.9219,26.8438 L187.3906,26.8438 L187.3906,18.7656 L184.9219,18.7656 Z " fill="#000000"/><text fill="#000000" font-family="sans-serif" font-size="14" font-style="italic" lengthAdjust="spacing" textLength="36" x="203" y="27.8467">Duck</text><line style="stroke:#181818;stroke-width:0.5;" x1="175" x2="241" y1="39" y2="39"/><line style="stroke:#181818;stroke-width:0.5;" x1="175" x2="241" y1="47" y2="47"/><text fill="#000000" font-family="sans-serif" font-size="14" lengthAdjust="spacing" textLength="52" x="180" y="63.9951">quack()</text><text fill="#000000" font-family="sans-serif" font-size="14" lengthAdjust="spacing" textLength="24" x="180" y="80.292">fly()</text></g><!--MD5=[ab7a0a0169244241d99b33cfaaca66a8]
class DuckSimulator--><g id="elem_DuckSimulator"><rect fill="#F1F1F1" height="48" id="DuckSimulator" rx="2.5" ry="2.5" style="stroke:#181818;stroke-width:0.5;" width="132" x="7" y="23.5"/><ellipse cx="22" cy="39.5" fill="#ADD1B2" rx="11" ry="11" style="stroke:#181818;stroke-width:1.0;"/><path d="M24.9688,45.1406 Q24.3906,45.4375 23.75,45.5781 Q23.1094,45.7344 22.4063,45.7344 Q19.9063,45.7344 18.5781,44.0938 Q17.2656,42.4375 17.2656,39.3125 Q17.2656,36.1875 18.5781,34.5313 Q19.9063,32.875 22.4063,32.875 Q23.1094,32.875 23.75,33.0313 Q24.4063,33.1875 24.9688,33.4844 L24.9688,36.2031 Q24.3438,35.625 23.75,35.3594 Q23.1563,35.0781 22.5313,35.0781 Q21.1875,35.0781 20.5,36.1563 Q19.8125,37.2188 19.8125,39.3125 Q19.8125,41.4063 20.5,42.4844 Q21.1875,43.5469 22.5313,43.5469 Q23.1563,43.5469 23.75,43.2813 Q24.3438,43 24.9688,42.4219 L24.9688,45.1406 Z " fill="#000000"/><text fill="#000000" font-family="sans-serif" font-size="14" lengthAdjust="spacing" textLength="100" x="36" y="44.3467">DuckSimulator</text><line style="stroke:#181818;stroke-width:0.5;" x1="8" x2="138" y1="55.5" y2="55.5"/><line style="stroke:#181818;stroke-width:0.5;" x1="8" x2="138" y1="63.5" y2="63.5"/></g><!--MD5=[a87b868ff9454c6758011f8c471db407]
class DroneAdapter--><g id="elem_DroneAdapter"><rect codeLine="11" fill="#F1F1F1" height="96.8906" id="DroneAdapter" rx="2.5" ry="2.5" style="stroke:#181818;stroke-width:0.5;" width="129" x="143.5" y="148"/><ellipse cx="158.5" cy="164" fill="#ADD1B2" rx="11" ry="11" style="stroke:#181818;stroke-width:1.0;"/><path d="M161.4688,169.6406 Q160.8906,169.9375 160.25,170.0781 Q159.6094,170.2344 158.9063,170.2344 Q156.4063,170.2344 155.0781,168.5938 Q153.7656,166.9375 153.7656,163.8125 Q153.7656,160.6875 155.0781,159.0313 Q156.4063,157.375 158.9063,157.375 Q159.6094,157.375 160.25,157.5313 Q160.9063,157.6875 161.4688,157.9844 L161.4688,160.7031 Q160.8438,160.125 160.25,159.8594 Q159.6563,159.5781 159.0313,159.5781 Q157.6875,159.5781 157,160.6563 Q156.3125,161.7188 156.3125,163.8125 Q156.3125,165.9063 157,166.9844 Q157.6875,168.0469 159.0313,168.0469 Q159.6563,168.0469 160.25,167.7813 Q160.8438,167.5 161.4688,166.9219 L161.4688,169.6406 Z " fill="#000000"/><text fill="#000000" font-family="sans-serif" font-size="14" lengthAdjust="spacing" textLength="97" x="172.5" y="168.8467">DroneAdapter</text><line style="stroke:#181818;stroke-width:0.5;" x1="144.5" x2="271.5" y1="180" y2="180"/><text fill="#000000" font-family="sans-serif" font-size="14" lengthAdjust="spacing" textLength="88" x="149.5" y="196.9951">Drone drone</text><line style="stroke:#181818;stroke-width:0.5;" x1="144.5" x2="271.5" y1="204.2969" y2="204.2969"/><text fill="#000000" font-family="sans-serif" font-size="14" lengthAdjust="spacing" textLength="52" x="149.5" y="221.292">quack()</text><text fill="#000000" font-family="sans-serif" font-size="14" lengthAdjust="spacing" textLength="24" x="149.5" y="237.5889">fly()</text></g><!--MD5=[c0e1778a4dae1651096a0310f8beb9d4]
link DuckSimulator to Duck--><g id="link_DuckSimulator_Duck"><path codeLine="10" d="M139.18,47.5 C146.41,47.5 153.63,47.5 160.86,47.5 " fill="none" id="DuckSimulator-to-Duck" style="stroke:#181818;stroke-width:1.0;"/><polygon fill="none" points="173.86,47.5,167.86,43.5,161.86,47.5,167.86,51.5,173.86,47.5" style="stroke:#181818;stroke-width:1.0;"/></g><!--MD5=[80b0eaf04b2e87cf1668e1f0af8e9014]
reverse link Duck to DroneAdapter--><g id="link_Duck_DroneAdapter"><path codeLine="16" d="M208,108.71 C208,121.75 208,135.36 208,147.84 " fill="none" id="Duck-backto-DroneAdapter" style="stroke:#181818;stroke-width:1.0;stroke-dasharray:7.0,7.0;"/><polygon fill="none" points="201,108.28,208,88.28,215,108.28,201,108.28" style="stroke:#181818;stroke-width:1.0;"/></g><!--MD5=[10e110188d5642a99d98170eae570603]
link DroneAdapter to Drone--><g id="link_DroneAdapter_Drone"><path codeLine="17" d="M272.61,196.5 C279.73,196.5 286.85,196.5 293.97,196.5 " fill="none" id="DroneAdapter-to-Drone" style="stroke:#181818;stroke-width:1.0;"/><polygon fill="none" points="307.22,196.5,301.22,192.5,295.22,196.5,301.22,200.5,307.22,196.5" style="stroke:#181818;stroke-width:1.0;"/></g><!--MD5=[d88725aede007f6c4c0d5aabb3bb1006]
@startuml
interface Drone {
  beep()
  spin_rotors()
  take_off()
}
interface Duck {
  quack()
  fly()
}
DuckSimulator -right-o Duck
class DroneAdapter {
  Drone drone
  quack()
  fly()
}
DroneAdapter .up.|> Duck
DroneAdapter -right-o Drone
@enduml

PlantUML version 1.2022.7(Tue Aug 23 00:01:30 ICT 2022)
(GPL source distribution)
Java Runtime: OpenJDK Runtime Environment
JVM: OpenJDK 64-Bit Server VM
Default Encoding: UTF-8
Language: en
Country: null
--></g></svg>