<?xml version="1.0" encoding="UTF-8" standalone="no"?><svg xmlns="http://www.w3.org/2000/svg" xmlns:xlink="http://www.w3.org/1999/xlink" contentStyleType="text/css" height="359px" preserveAspectRatio="none" style="width:960px;height:359px;background:#FFFFFF;" version="1.1" viewBox="0 0 960 359" width="960px" zoomAndPan="magnify"><defs/><g><!--MD5=[26f5c61a402468dcc7e4daedc2568d01]
class PizzaStore--><g id="elem_PizzaStore"><rect codeLine="1" fill="#F1F1F1" height="80.5938" id="PizzaStore" rx="2.5" ry="2.5" style="stroke:#181818;stroke-width:0.5;" width="102" x="264" y="23"/><ellipse cx="279" cy="39" fill="#A9DCDF" rx="11" ry="11" style="stroke:#181818;stroke-width:1.0;"/><path d="M279.1094,34.3438 L277.9531,39.4219 L280.2813,39.4219 L279.1094,34.3438 Z M277.625,32.1094 L280.6094,32.1094 L283.9688,44.5 L281.5156,44.5 L280.75,41.4375 L277.4688,41.4375 L276.7188,44.5 L274.2813,44.5 L277.625,32.1094 Z " fill="#000000"/><text fill="#000000" font-family="sans-serif" font-size="14" font-style="italic" lengthAdjust="spacing" textLength="70" x="293" y="43.8467">PizzaStore</text><line style="stroke:#181818;stroke-width:0.5;" x1="265" x2="365" y1="55" y2="55"/><line style="stroke:#181818;stroke-width:0.5;" x1="265" x2="365" y1="63" y2="63"/><text fill="#000000" font-family="sans-serif" font-size="14" lengthAdjust="spacing" textLength="83" x="270" y="79.9951">orderPizza()</text><text fill="#000000" font-family="sans-serif" font-size="14" lengthAdjust="spacing" textLength="90" x="270" y="96.292">createPizza()</text></g><!--MD5=[5c5a2dd8ed299478ae091ad6bda6d6bd]
class Pizza--><g id="elem_Pizza"><rect codeLine="15" fill="#F1F1F1" height="113.1875" id="Pizza" rx="2.5" ry="2.5" style="stroke:#181818;stroke-width:0.5;" width="76" x="537" y="7"/><ellipse cx="556.95" cy="23" fill="#A9DCDF" rx="11" ry="11" style="stroke:#181818;stroke-width:1.0;"/><path d="M557.0594,18.3438 L555.9031,23.4219 L558.2313,23.4219 L557.0594,18.3438 Z M555.575,16.1094 L558.5594,16.1094 L561.9188,28.5 L559.4656,28.5 L558.7,25.4375 L555.4188,25.4375 L554.6688,28.5 L552.2313,28.5 L555.575,16.1094 Z " fill="#000000"/><text fill="#000000" font-family="sans-serif" font-size="14" font-style="italic" lengthAdjust="spacing" textLength="33" x="572.05" y="27.8467">Pizza</text><line style="stroke:#181818;stroke-width:0.5;" x1="538" x2="612" y1="39" y2="39"/><line style="stroke:#181818;stroke-width:0.5;" x1="538" x2="612" y1="47" y2="47"/><text fill="#000000" font-family="sans-serif" font-size="14" lengthAdjust="spacing" textLength="64" x="543" y="63.9951">prepare()</text><text fill="#000000" font-family="sans-serif" font-size="14" lengthAdjust="spacing" textLength="44" x="543" y="80.292">bake()</text><text fill="#000000" font-family="sans-serif" font-size="14" lengthAdjust="spacing" textLength="32" x="543" y="96.5889">cut()</text><text fill="#000000" font-family="sans-serif" font-size="14" lengthAdjust="spacing" textLength="35" x="543" y="112.8857">box()</text></g><!--MD5=[1b1afe3e3156152f895e8813d4adc5ea]
class ChicagoStylePizzaStore--><g id="elem_ChicagoStylePizzaStore"><rect codeLine="7" fill="#F1F1F1" height="64.2969" id="ChicagoStylePizzaStore" rx="2.5" ry="2.5" style="stroke:#181818;stroke-width:0.5;" width="194" x="7" y="288"/><ellipse cx="22" cy="304" fill="#ADD1B2" rx="11" ry="11" style="stroke:#181818;stroke-width:1.0;"/><path d="M24.9688,309.6406 Q24.3906,309.9375 23.75,310.0781 Q23.1094,310.2344 22.4063,310.2344 Q19.9063,310.2344 18.5781,308.5938 Q17.2656,306.9375 17.2656,303.8125 Q17.2656,300.6875 18.5781,299.0313 Q19.9063,297.375 22.4063,297.375 Q23.1094,297.375 23.75,297.5313 Q24.4063,297.6875 24.9688,297.9844 L24.9688,300.7031 Q24.3438,300.125 23.75,299.8594 Q23.1563,299.5781 22.5313,299.5781 Q21.1875,299.5781 20.5,300.6563 Q19.8125,301.7188 19.8125,303.8125 Q19.8125,305.9063 20.5,306.9844 Q21.1875,308.0469 22.5313,308.0469 Q23.1563,308.0469 23.75,307.7813 Q24.3438,307.5 24.9688,306.9219 L24.9688,309.6406 Z " fill="#000000"/><text fill="#000000" font-family="sans-serif" font-size="14" lengthAdjust="spacing" textLength="162" x="36" y="308.8467">ChicagoStylePizzaStore</text><line style="stroke:#181818;stroke-width:0.5;" x1="8" x2="200" y1="320" y2="320"/><line style="stroke:#181818;stroke-width:0.5;" x1="8" x2="200" y1="328" y2="328"/><text fill="#000000" font-family="sans-serif" font-size="14" lengthAdjust="spacing" textLength="90" x="13" y="344.9951">createPizza()</text></g><!--MD5=[7973a2e1a0e8c22be89ad98185eff2b9]
class NYStylePizzaStore--><g id="elem_NYStylePizzaStore"><rect codeLine="10" fill="#F1F1F1" height="64.2969" id="NYStylePizzaStore" rx="2.5" ry="2.5" style="stroke:#181818;stroke-width:0.5;" width="157" x="236.5" y="288"/><ellipse cx="251.5" cy="304" fill="#ADD1B2" rx="11" ry="11" style="stroke:#181818;stroke-width:1.0;"/><path d="M254.4688,309.6406 Q253.8906,309.9375 253.25,310.0781 Q252.6094,310.2344 251.9063,310.2344 Q249.4063,310.2344 248.0781,308.5938 Q246.7656,306.9375 246.7656,303.8125 Q246.7656,300.6875 248.0781,299.0313 Q249.4063,297.375 251.9063,297.375 Q252.6094,297.375 253.25,297.5313 Q253.9063,297.6875 254.4688,297.9844 L254.4688,300.7031 Q253.8438,300.125 253.25,299.8594 Q252.6563,299.5781 252.0313,299.5781 Q250.6875,299.5781 250,300.6563 Q249.3125,301.7188 249.3125,303.8125 Q249.3125,305.9063 250,306.9844 Q250.6875,308.0469 252.0313,308.0469 Q252.6563,308.0469 253.25,307.7813 Q253.8438,307.5 254.4688,306.9219 L254.4688,309.6406 Z " fill="#000000"/><text fill="#000000" font-family="sans-serif" font-size="14" lengthAdjust="spacing" textLength="125" x="265.5" y="308.8467">NYStylePizzaStore</text><line style="stroke:#181818;stroke-width:0.5;" x1="237.5" x2="392.5" y1="320" y2="320"/><line style="stroke:#181818;stroke-width:0.5;" x1="237.5" x2="392.5" y1="328" y2="328"/><text fill="#000000" font-family="sans-serif" font-size="14" lengthAdjust="spacing" textLength="90" x="242.5" y="344.9951">createPizza()</text></g><!--MD5=[bb7b7b7f24e149315272ca99cc15d0b2]
class CheesePizza--><g id="elem_CheesePizza"><rect fill="#F1F1F1" height="48" id="CheesePizza" rx="2.5" ry="2.5" style="stroke:#181818;stroke-width:0.5;" width="122" x="680" y="180"/><ellipse cx="695" cy="196" fill="#ADD1B2" rx="11" ry="11" style="stroke:#181818;stroke-width:1.0;"/><path d="M697.9688,201.6406 Q697.3906,201.9375 696.75,202.0781 Q696.1094,202.2344 695.4063,202.2344 Q692.9063,202.2344 691.5781,200.5938 Q690.2656,198.9375 690.2656,195.8125 Q690.2656,192.6875 691.5781,191.0313 Q692.9063,189.375 695.4063,189.375 Q696.1094,189.375 696.75,189.5313 Q697.4063,189.6875 697.9688,189.9844 L697.9688,192.7031 Q697.3438,192.125 696.75,191.8594 Q696.1563,191.5781 695.5313,191.5781 Q694.1875,191.5781 693.5,192.6563 Q692.8125,193.7188 692.8125,195.8125 Q692.8125,197.9063 693.5,198.9844 Q694.1875,200.0469 695.5313,200.0469 Q696.1563,200.0469 696.75,199.7813 Q697.3438,199.5 697.9688,198.9219 L697.9688,201.6406 Z " fill="#000000"/><text fill="#000000" font-family="sans-serif" font-size="14" lengthAdjust="spacing" textLength="90" x="709" y="200.8467">CheesePizza</text><line style="stroke:#181818;stroke-width:0.5;" x1="681" x2="801" y1="212" y2="212"/><line style="stroke:#181818;stroke-width:0.5;" x1="681" x2="801" y1="220" y2="220"/></g><!--MD5=[b57cfb30b6e2a9be323be17c456b21ed]
class VeggiePizza--><g id="elem_VeggiePizza"><rect fill="#F1F1F1" height="48" id="VeggiePizza" rx="2.5" ry="2.5" style="stroke:#181818;stroke-width:0.5;" width="116" x="837" y="180"/><ellipse cx="852" cy="196" fill="#ADD1B2" rx="11" ry="11" style="stroke:#181818;stroke-width:1.0;"/><path d="M854.9688,201.6406 Q854.3906,201.9375 853.75,202.0781 Q853.1094,202.2344 852.4063,202.2344 Q849.9063,202.2344 848.5781,200.5938 Q847.2656,198.9375 847.2656,195.8125 Q847.2656,192.6875 848.5781,191.0313 Q849.9063,189.375 852.4063,189.375 Q853.1094,189.375 853.75,189.5313 Q854.4063,189.6875 854.9688,189.9844 L854.9688,192.7031 Q854.3438,192.125 853.75,191.8594 Q853.1563,191.5781 852.5313,191.5781 Q851.1875,191.5781 850.5,192.6563 Q849.8125,193.7188 849.8125,195.8125 Q849.8125,197.9063 850.5,198.9844 Q851.1875,200.0469 852.5313,200.0469 Q853.1563,200.0469 853.75,199.7813 Q854.3438,199.5 854.9688,198.9219 L854.9688,201.6406 Z " fill="#000000"/><text fill="#000000" font-family="sans-serif" font-size="14" lengthAdjust="spacing" textLength="84" x="866" y="200.8467">VeggiePizza</text><line style="stroke:#181818;stroke-width:0.5;" x1="838" x2="952" y1="212" y2="212"/><line style="stroke:#181818;stroke-width:0.5;" x1="838" x2="952" y1="220" y2="220"/></g><!--MD5=[69adf9b590f774b46f34e6be464a3b7a]
class ClamPizza--><g id="elem_ClamPizza"><rect fill="#F1F1F1" height="48" id="ClamPizza" rx="2.5" ry="2.5" style="stroke:#181818;stroke-width:0.5;" width="102" x="368" y="180"/><ellipse cx="383" cy="196" fill="#ADD1B2" rx="11" ry="11" style="stroke:#181818;stroke-width:1.0;"/><path d="M385.9688,201.6406 Q385.3906,201.9375 384.75,202.0781 Q384.1094,202.2344 383.4063,202.2344 Q380.9063,202.2344 379.5781,200.5938 Q378.2656,198.9375 378.2656,195.8125 Q378.2656,192.6875 379.5781,191.0313 Q380.9063,189.375 383.4063,189.375 Q384.1094,189.375 384.75,189.5313 Q385.4063,189.6875 385.9688,189.9844 L385.9688,192.7031 Q385.3438,192.125 384.75,191.8594 Q384.1563,191.5781 383.5313,191.5781 Q382.1875,191.5781 381.5,192.6563 Q380.8125,193.7188 380.8125,195.8125 Q380.8125,197.9063 381.5,198.9844 Q382.1875,200.0469 383.5313,200.0469 Q384.1563,200.0469 384.75,199.7813 Q385.3438,199.5 385.9688,198.9219 L385.9688,201.6406 Z " fill="#000000"/><text fill="#000000" font-family="sans-serif" font-size="14" lengthAdjust="spacing" textLength="70" x="397" y="200.8467">ClamPizza</text><line style="stroke:#181818;stroke-width:0.5;" x1="369" x2="469" y1="212" y2="212"/><line style="stroke:#181818;stroke-width:0.5;" x1="369" x2="469" y1="220" y2="220"/></g><!--MD5=[5687e49d5780798970ec66d4564600d2]
class PepperoniPizza--><g id="elem_PepperoniPizza"><rect fill="#F1F1F1" height="48" id="PepperoniPizza" rx="2.5" ry="2.5" style="stroke:#181818;stroke-width:0.5;" width="139" x="505.5" y="180"/><ellipse cx="520.5" cy="196" fill="#ADD1B2" rx="11" ry="11" style="stroke:#181818;stroke-width:1.0;"/><path d="M523.4688,201.6406 Q522.8906,201.9375 522.25,202.0781 Q521.6094,202.2344 520.9063,202.2344 Q518.4063,202.2344 517.0781,200.5938 Q515.7656,198.9375 515.7656,195.8125 Q515.7656,192.6875 517.0781,191.0313 Q518.4063,189.375 520.9063,189.375 Q521.6094,189.375 522.25,189.5313 Q522.9063,189.6875 523.4688,189.9844 L523.4688,192.7031 Q522.8438,192.125 522.25,191.8594 Q521.6563,191.5781 521.0313,191.5781 Q519.6875,191.5781 519,192.6563 Q518.3125,193.7188 518.3125,195.8125 Q518.3125,197.9063 519,198.9844 Q519.6875,200.0469 521.0313,200.0469 Q521.6563,200.0469 522.25,199.7813 Q522.8438,199.5 523.4688,198.9219 L523.4688,201.6406 Z " fill="#000000"/><text fill="#000000" font-family="sans-serif" font-size="14" lengthAdjust="spacing" textLength="107" x="534.5" y="200.8467">PepperoniPizza</text><line style="stroke:#181818;stroke-width:0.5;" x1="506.5" x2="643.5" y1="212" y2="212"/><line style="stroke:#181818;stroke-width:0.5;" x1="506.5" x2="643.5" y1="220" y2="220"/></g><!--MD5=[aa3a66b861da5667b847170958de3d82]
link PizzaStore to Pizza--><g id="link_PizzaStore_Pizza"><path codeLine="6" d="M366.04,63.5 C421.12,63.5 476.21,63.5 531.3,63.5 " fill="none" id="PizzaStore-to-Pizza" style="stroke:#181818;stroke-width:1.0;"/><polygon fill="#181818" points="536.64,63.5,527.64,59.5,531.64,63.5,527.64,67.5,536.64,63.5" style="stroke:#181818;stroke-width:1.0;"/></g><!--MD5=[7cfeaf8c4f0044dc4c07214b487a917e]
reverse link PizzaStore to ChicagoStylePizzaStore--><g id="link_PizzaStore_ChicagoStylePizzaStore"><path codeLine="13" d="M269.19,119.76 C226.5,171.24 164.39,246.16 129.77,287.92 " fill="none" id="PizzaStore-backto-ChicagoStylePizzaStore" style="stroke:#181818;stroke-width:1.0;"/><polygon fill="none" points="263.88,115.19,282.03,104.27,274.66,124.13,263.88,115.19" style="stroke:#181818;stroke-width:1.0;"/></g><!--MD5=[9a1bbeec5628c279fb075315f7843ec0]
reverse link PizzaStore to NYStylePizzaStore--><g id="link_PizzaStore_NYStylePizzaStore"><path codeLine="14" d="M315,124.49 C315,175.74 315,247.42 315,287.92 " fill="none" id="PizzaStore-backto-NYStylePizzaStore" style="stroke:#181818;stroke-width:1.0;"/><polygon fill="none" points="308,124.27,315,104.27,322,124.27,308,124.27" style="stroke:#181818;stroke-width:1.0;"/></g><!--MD5=[8f574cacc568233a59984bc8b8889b74]
reverse link Pizza to CheesePizza--><g id="link_Pizza_CheesePizza"><path codeLine="21" d="M628.54,109.17 C656.74,132.7 690.15,160.58 713.19,179.8 " fill="none" id="Pizza-backto-CheesePizza" style="stroke:#181818;stroke-width:1.0;"/><polygon fill="none" points="623.96,114.46,613.08,96.27,632.93,103.71,623.96,114.46" style="stroke:#181818;stroke-width:1.0;"/></g><!--MD5=[2b6247ce0f74fd1e5cf18c23466342d1]
reverse link Pizza to VeggiePizza--><g id="link_Pizza_VeggiePizza"><path codeLine="22" d="M631.69,89.04 C691.1,114.75 783.7,154.83 841.78,179.97 " fill="none" id="Pizza-backto-VeggiePizza" style="stroke:#181818;stroke-width:1.0;"/><polygon fill="none" points="628.86,95.44,613.28,81.07,634.42,82.59,628.86,95.44" style="stroke:#181818;stroke-width:1.0;"/></g><!--MD5=[f33c29a64ee839b900ba1cf234ca1f13]
reverse link Pizza to ClamPizza--><g id="link_Pizza_ClamPizza"><path codeLine="23" d="M521.76,111.77 C495.87,134.75 465.92,161.35 445.05,179.87 " fill="none" id="Pizza-backto-ClamPizza" style="stroke:#181818;stroke-width:1.0;"/><polygon fill="none" points="517.23,106.42,536.84,98.38,526.53,116.89,517.23,106.42" style="stroke:#181818;stroke-width:1.0;"/></g><!--MD5=[a4336046344e37e2fd0ef24fcd23c7f8]
reverse link Pizza to PepperoniPizza--><g id="link_Pizza_PepperoniPizza"><path codeLine="24" d="M575,140.41 C575,154.83 575,168.85 575,179.96 " fill="none" id="Pizza-backto-PepperoniPizza" style="stroke:#181818;stroke-width:1.0;"/><polygon fill="none" points="568,140.04,575,120.04,582,140.04,568,140.04" style="stroke:#181818;stroke-width:1.0;"/></g><!--MD5=[52cefd9892ce4ba287f80641b5a35c46]
@startuml
abstract PizzaStore{
  orderPizza()
  createPizza()
}

PizzaStore -right-> Pizza
class ChicagoStylePizzaStore {
  createPizza()
}
class NYStylePizzaStore {
  createPizza()
}
ChicagoStylePizzaStore -up- -|> PizzaStore
NYStylePizzaStore -up- -|> PizzaStore
abstract Pizza {
  prepare()
  bake()
  cut()
  box()
}
CheesePizza -up-|> Pizza
VeggiePizza -up-|> Pizza
ClamPizza -up-|> Pizza
PepperoniPizza -up-|> Pizza

@enduml

PlantUML version 1.2022.7(Tue Aug 23 00:01:30 ICT 2022)
(GPL source distribution)
Java Runtime: OpenJDK Runtime Environment
JVM: OpenJDK 64-Bit Server VM
Default Encoding: UTF-8
Language: en
Country: null
--></g></svg>