<?xml version="1.0" encoding="UTF-8" standalone="no"?><svg xmlns="http://www.w3.org/2000/svg" xmlns:xlink="http://www.w3.org/1999/xlink" contentStyleType="text/css" height="360px" preserveAspectRatio="none" style="width:437px;height:360px;background:#FFFFFF;" version="1.1" viewBox="0 0 437 360" width="437px" zoomAndPan="magnify"><defs/><g><!--MD5=[ed6624c6556d5e7b1bd23032162d20b7]
class Client--><g id="elem_Client"><rect codeLine="1" fill="#F1F1F1" height="64.2969" id="Client" rx="2.5" ry="2.5" style="stroke:#181818;stroke-width:0.5;" width="120" x="157" y="15.5"/><ellipse cx="194.05" cy="31.5" fill="#A9DCDF" rx="11" ry="11" style="stroke:#181818;stroke-width:1.0;"/><path d="M194.1594,26.8438 L193.0031,31.9219 L195.3313,31.9219 L194.1594,26.8438 Z M192.675,24.6094 L195.6594,24.6094 L199.0188,37 L196.5656,37 L195.8,33.9375 L192.5188,33.9375 L191.7688,37 L189.3313,37 L192.675,24.6094 Z " fill="#000000"/><text fill="#000000" font-family="sans-serif" font-size="14" font-style="italic" lengthAdjust="spacing" textLength="39" x="212.95" y="36.3467">Client</text><line style="stroke:#181818;stroke-width:0.5;" x1="158" x2="276" y1="47.5" y2="47.5"/><line style="stroke:#181818;stroke-width:0.5;" x1="158" x2="276" y1="55.5" y2="55.5"/><text fill="#000000" font-family="sans-serif" font-size="14" lengthAdjust="spacing" textLength="108" x="163" y="72.4951">createProduct()</text></g><!--MD5=[209947814150de6f437f37df734329fe]
class Client01--><g id="elem_Client01"><rect codeLine="4" fill="#F1F1F1" height="64.2969" id="Client01" rx="2.5" ry="2.5" style="stroke:#181818;stroke-width:0.5;" width="120" x="7" y="289"/><ellipse cx="35.95" cy="305" fill="#ADD1B2" rx="11" ry="11" style="stroke:#181818;stroke-width:1.0;"/><path d="M38.9188,310.6406 Q38.3406,310.9375 37.7,311.0781 Q37.0594,311.2344 36.3563,311.2344 Q33.8563,311.2344 32.5281,309.5938 Q31.2156,307.9375 31.2156,304.8125 Q31.2156,301.6875 32.5281,300.0313 Q33.8563,298.375 36.3563,298.375 Q37.0594,298.375 37.7,298.5313 Q38.3563,298.6875 38.9188,298.9844 L38.9188,301.7031 Q38.2938,301.125 37.7,300.8594 Q37.1063,300.5781 36.4813,300.5781 Q35.1375,300.5781 34.45,301.6563 Q33.7625,302.7188 33.7625,304.8125 Q33.7625,306.9063 34.45,307.9844 Q35.1375,309.0469 36.4813,309.0469 Q37.1063,309.0469 37.7,308.7813 Q38.2938,308.5 38.9188,307.9219 L38.9188,310.6406 Z " fill="#000000"/><text fill="#000000" font-family="sans-serif" font-size="14" lengthAdjust="spacing" textLength="57" x="53.05" y="309.8467">Client01</text><line style="stroke:#181818;stroke-width:0.5;" x1="8" x2="126" y1="321" y2="321"/><line style="stroke:#181818;stroke-width:0.5;" x1="8" x2="126" y1="329" y2="329"/><text fill="#000000" font-family="sans-serif" font-size="14" lengthAdjust="spacing" textLength="108" x="13" y="345.9951">createProduct()</text></g><!--MD5=[b6edc9e1533855cf62f9438845d1b4ad]
class Client02--><g id="elem_Client02"><rect codeLine="7" fill="#F1F1F1" height="64.2969" id="Client02" rx="2.5" ry="2.5" style="stroke:#181818;stroke-width:0.5;" width="120" x="162" y="289"/><ellipse cx="190.95" cy="305" fill="#ADD1B2" rx="11" ry="11" style="stroke:#181818;stroke-width:1.0;"/><path d="M193.9188,310.6406 Q193.3406,310.9375 192.7,311.0781 Q192.0594,311.2344 191.3563,311.2344 Q188.8563,311.2344 187.5281,309.5938 Q186.2156,307.9375 186.2156,304.8125 Q186.2156,301.6875 187.5281,300.0313 Q188.8563,298.375 191.3563,298.375 Q192.0594,298.375 192.7,298.5313 Q193.3563,298.6875 193.9188,298.9844 L193.9188,301.7031 Q193.2938,301.125 192.7,300.8594 Q192.1063,300.5781 191.4813,300.5781 Q190.1375,300.5781 189.45,301.6563 Q188.7625,302.7188 188.7625,304.8125 Q188.7625,306.9063 189.45,307.9844 Q190.1375,309.0469 191.4813,309.0469 Q192.1063,309.0469 192.7,308.7813 Q193.2938,308.5 193.9188,307.9219 L193.9188,310.6406 Z " fill="#000000"/><text fill="#000000" font-family="sans-serif" font-size="14" lengthAdjust="spacing" textLength="57" x="208.05" y="309.8467">Client02</text><line style="stroke:#181818;stroke-width:0.5;" x1="163" x2="281" y1="321" y2="321"/><line style="stroke:#181818;stroke-width:0.5;" x1="163" x2="281" y1="329" y2="329"/><text fill="#000000" font-family="sans-serif" font-size="14" lengthAdjust="spacing" textLength="108" x="168" y="345.9951">createProduct()</text></g><!--MD5=[72136138052d025cffdce3c22fbd185f]
class Product--><g id="elem_Product"><rect codeLine="14" fill="#F1F1F1" height="80.5938" id="Product" rx="2.5" ry="2.5" style="stroke:#181818;stroke-width:0.5;" width="86" x="312" y="7"/><ellipse cx="327.45" cy="23" fill="#A9DCDF" rx="11" ry="11" style="stroke:#181818;stroke-width:1.0;"/><path d="M327.5594,18.3438 L326.4031,23.4219 L328.7313,23.4219 L327.5594,18.3438 Z M326.075,16.1094 L329.0594,16.1094 L332.4188,28.5 L329.9656,28.5 L329.2,25.4375 L325.9188,25.4375 L325.1688,28.5 L322.7313,28.5 L326.075,16.1094 Z " fill="#000000"/><text fill="#000000" font-family="sans-serif" font-size="14" font-style="italic" lengthAdjust="spacing" textLength="53" x="341.55" y="27.8467">Product</text><line style="stroke:#181818;stroke-width:0.5;" x1="313" x2="397" y1="39" y2="39"/><line style="stroke:#181818;stroke-width:0.5;" x1="313" x2="397" y1="47" y2="47"/><text fill="#000000" font-family="sans-serif" font-size="14" lengthAdjust="spacing" textLength="73" x="318" y="63.9951">methodA()</text><text fill="#000000" font-family="sans-serif" font-size="14" lengthAdjust="spacing" textLength="74" x="318" y="80.292">methodB()</text></g><!--MD5=[990132e04f994323e3060f5453bb4352]
class ConcreteProduct--><g id="elem_ConcreteProduct"><rect codeLine="18" fill="#F1F1F1" height="80.5938" id="ConcreteProduct" rx="2.5" ry="2.5" style="stroke:#181818;stroke-width:0.5;" width="150" x="280" y="148"/><ellipse cx="295" cy="164" fill="#ADD1B2" rx="11" ry="11" style="stroke:#181818;stroke-width:1.0;"/><path d="M297.9688,169.6406 Q297.3906,169.9375 296.75,170.0781 Q296.1094,170.2344 295.4063,170.2344 Q292.9063,170.2344 291.5781,168.5938 Q290.2656,166.9375 290.2656,163.8125 Q290.2656,160.6875 291.5781,159.0313 Q292.9063,157.375 295.4063,157.375 Q296.1094,157.375 296.75,157.5313 Q297.4063,157.6875 297.9688,157.9844 L297.9688,160.7031 Q297.3438,160.125 296.75,159.8594 Q296.1563,159.5781 295.5313,159.5781 Q294.1875,159.5781 293.5,160.6563 Q292.8125,161.7188 292.8125,163.8125 Q292.8125,165.9063 293.5,166.9844 Q294.1875,168.0469 295.5313,168.0469 Q296.1563,168.0469 296.75,167.7813 Q297.3438,167.5 297.9688,166.9219 L297.9688,169.6406 Z " fill="#000000"/><text fill="#000000" font-family="sans-serif" font-size="14" lengthAdjust="spacing" textLength="118" x="309" y="168.8467">ConcreteProduct</text><line style="stroke:#181818;stroke-width:0.5;" x1="281" x2="429" y1="180" y2="180"/><line style="stroke:#181818;stroke-width:0.5;" x1="281" x2="429" y1="188" y2="188"/><text fill="#000000" font-family="sans-serif" font-size="14" lengthAdjust="spacing" textLength="73" x="286" y="204.9951">methodA()</text><text fill="#000000" font-family="sans-serif" font-size="14" lengthAdjust="spacing" textLength="74" x="286" y="221.292">methodB()</text></g><!--MD5=[5ecb5ade6eafcb01a8de763e18d8ce8e]
reverse link Client to Client01--><g id="link_Client_Client01"><path codeLine="10" d="M189.96,97.43 C159.27,152.98 110.12,241.94 84.24,288.8 " fill="none" id="Client-backto-Client01" style="stroke:#181818;stroke-width:1.0;"/><polygon fill="none" points="183.99,93.77,199.79,79.64,196.25,100.54,183.99,93.77" style="stroke:#181818;stroke-width:1.0;"/></g><!--MD5=[6ebd875e933f3e3e2c35c5163d5c5a84]
reverse link Client to Client02--><g id="link_Client_Client02"><path codeLine="11" d="M217.95,100 C218.97,155.69 220.58,242.66 221.43,288.8 " fill="none" id="Client-backto-Client02" style="stroke:#181818;stroke-width:1.0;"/><polygon fill="none" points="210.94,99.77,217.57,79.64,224.94,99.51,210.94,99.77" style="stroke:#181818;stroke-width:1.0;"/></g><!--MD5=[f99f60d4f22462933b3e132a47fc1229]
link Client to Product--><g id="link_Client_Product"><path codeLine="13" d="M277.11,47.5 C286.95,47.5 296.8,47.5 306.64,47.5 " fill="none" id="Client-to-Product" style="stroke:#181818;stroke-width:1.0;"/><polygon fill="#181818" points="311.79,47.5,302.79,43.5,306.79,47.5,302.79,51.5,311.79,47.5" style="stroke:#181818;stroke-width:1.0;"/></g><!--MD5=[03f389ab946010d19db5823a3056b88d]
reverse link Product to ConcreteProduct--><g id="link_Product_ConcreteProduct"><path codeLine="22" d="M355,108.48 C355,121.73 355,135.45 355,147.66 " fill="none" id="Product-backto-ConcreteProduct" style="stroke:#181818;stroke-width:1.0;"/><polygon fill="none" points="348,108.33,355,88.33,362,108.33,348,108.33" style="stroke:#181818;stroke-width:1.0;"/></g><!--MD5=[ae7c25045e4c37f0770f8eb252ef7a50]
@startuml
abstract Client {
  createProduct()
}
class Client01{
  createProduct()
}
class Client02{
  createProduct()
}
Client01 -up- -|> Client
Client02 -up- -|> Client

Client -right-> Product
abstract Product {
  methodA()
  methodB()
}
class ConcreteProduct {
  methodA()
  methodB()
}
ConcreteProduct -up-|> Product
@enduml

PlantUML version 1.2022.7(Tue Aug 23 00:01:30 ICT 2022)
(GPL source distribution)
Java Runtime: OpenJDK Runtime Environment
JVM: OpenJDK 64-Bit Server VM
Default Encoding: UTF-8
Language: en
Country: null
--></g></svg>