<?xml version="1.0" encoding="UTF-8" standalone="no"?><svg xmlns="http://www.w3.org/2000/svg" xmlns:xlink="http://www.w3.org/1999/xlink" contentStyleType="text/css" height="251px" preserveAspectRatio="none" style="width:877px;height:251px;background:#FFFFFF;" version="1.1" viewBox="0 0 877 251" width="877px" zoomAndPan="magnify"><defs/><g><!--MD5=[f572c118330f78587a09a8d1323f8ced]
class Calendar--><g id="elem_Calendar"><rect codeLine="1" fill="#F1F1F1" height="96.8906" id="Calendar" rx="2.5" ry="2.5" style="stroke:#181818;stroke-width:0.5;" width="127" x="11.5" y="15"/><ellipse cx="41.8" cy="31" fill="#A9DCDF" rx="11" ry="11" style="stroke:#181818;stroke-width:1.0;"/><path d="M41.9094,26.3438 L40.7531,31.4219 L43.0813,31.4219 L41.9094,26.3438 Z M40.425,24.1094 L43.4094,24.1094 L46.7688,36.5 L44.3156,36.5 L43.55,33.4375 L40.2688,33.4375 L39.5188,36.5 L37.0813,36.5 L40.425,24.1094 Z " fill="#000000"/><text fill="#000000" font-family="sans-serif" font-size="14" font-style="italic" lengthAdjust="spacing" textLength="61" x="59.2" y="35.8467">Calendar</text><line style="stroke:#181818;stroke-width:0.5;" x1="12.5" x2="137.5" y1="47" y2="47"/><text fill="#000000" font-family="sans-serif" font-size="14" lengthAdjust="spacing" textLength="76" x="17.5" y="63.9951">Zone zone</text><line style="stroke:#181818;stroke-width:0.5;" x1="12.5" x2="137.5" y1="71.2969" y2="71.2969"/><text fill="#000000" font-family="sans-serif" font-size="14" lengthAdjust="spacing" textLength="41" x="17.5" y="88.292">print()</text><text fill="#000000" font-family="sans-serif" font-size="14" lengthAdjust="spacing" textLength="115" x="17.5" y="104.5889">createCalendar()</text></g><!--MD5=[9d04ce0b4dff1cd46743289235ec63e9]
class PacificCalendar--><g id="elem_PacificCalendar"><rect codeLine="6" fill="#F1F1F1" height="64.2969" id="PacificCalendar" rx="2.5" ry="2.5" style="stroke:#181818;stroke-width:0.5;" width="136" x="7" y="180"/><ellipse cx="22" cy="196" fill="#ADD1B2" rx="11" ry="11" style="stroke:#181818;stroke-width:1.0;"/><path d="M24.9688,201.6406 Q24.3906,201.9375 23.75,202.0781 Q23.1094,202.2344 22.4063,202.2344 Q19.9063,202.2344 18.5781,200.5938 Q17.2656,198.9375 17.2656,195.8125 Q17.2656,192.6875 18.5781,191.0313 Q19.9063,189.375 22.4063,189.375 Q23.1094,189.375 23.75,189.5313 Q24.4063,189.6875 24.9688,189.9844 L24.9688,192.7031 Q24.3438,192.125 23.75,191.8594 Q23.1563,191.5781 22.5313,191.5781 Q21.1875,191.5781 20.5,192.6563 Q19.8125,193.7188 19.8125,195.8125 Q19.8125,197.9063 20.5,198.9844 Q21.1875,200.0469 22.5313,200.0469 Q23.1563,200.0469 23.75,199.7813 Q24.3438,199.5 24.9688,198.9219 L24.9688,201.6406 Z " fill="#000000"/><text fill="#000000" font-family="sans-serif" font-size="14" lengthAdjust="spacing" textLength="104" x="36" y="200.8467">PacificCalendar</text><line style="stroke:#181818;stroke-width:0.5;" x1="8" x2="142" y1="212" y2="212"/><line style="stroke:#181818;stroke-width:0.5;" x1="8" x2="142" y1="220" y2="220"/><text fill="#000000" font-family="sans-serif" font-size="14" lengthAdjust="spacing" textLength="115" x="13" y="236.9951">createCalendar()</text></g><!--MD5=[18476bf30257da71eca65595eaf1b48d]
class ZoneFactory--><g id="elem_ZoneFactory"><rect codeLine="10" fill="#F1F1F1" height="64.2969" id="ZoneFactory" rx="2.5" ry="2.5" style="stroke:#181818;stroke-width:0.5;" width="196" x="174" y="31.5"/><ellipse cx="224.25" cy="47.5" fill="#ADD1B2" rx="11" ry="11" style="stroke:#181818;stroke-width:1.0;"/><path d="M227.2188,53.1406 Q226.6406,53.4375 226,53.5781 Q225.3594,53.7344 224.6563,53.7344 Q222.1563,53.7344 220.8281,52.0938 Q219.5156,50.4375 219.5156,47.3125 Q219.5156,44.1875 220.8281,42.5313 Q222.1563,40.875 224.6563,40.875 Q225.3594,40.875 226,41.0313 Q226.6563,41.1875 227.2188,41.4844 L227.2188,44.2031 Q226.5938,43.625 226,43.3594 Q225.4063,43.0781 224.7813,43.0781 Q223.4375,43.0781 222.75,44.1563 Q222.0625,45.2188 222.0625,47.3125 Q222.0625,49.4063 222.75,50.4844 Q223.4375,51.5469 224.7813,51.5469 Q225.4063,51.5469 226,51.2813 Q226.5938,51 227.2188,50.4219 L227.2188,53.1406 Z " fill="#000000"/><text fill="#000000" font-family="sans-serif" font-size="14" lengthAdjust="spacing" textLength="87" x="244.75" y="52.3467">ZoneFactory</text><line style="stroke:#181818;stroke-width:0.5;" x1="175" x2="369" y1="63.5" y2="63.5"/><line style="stroke:#181818;stroke-width:0.5;" x1="175" x2="369" y1="71.5" y2="71.5"/><text fill="#000000" font-family="sans-serif" font-size="14" lengthAdjust="spacing" textLength="184" x="180" y="88.4951">CreateZone(String zoneId)</text></g><!--MD5=[ad801415d4a054e52db0882645a380ef]
class Zone--><g id="elem_Zone"><rect codeLine="14" fill="#F1F1F1" height="113.1875" id="Zone" rx="2.5" ry="2.5" style="stroke:#181818;stroke-width:0.5;" width="143" x="405.5" y="7"/><ellipse cx="454.25" cy="23" fill="#A9DCDF" rx="11" ry="11" style="stroke:#181818;stroke-width:1.0;"/><path d="M454.3594,18.3438 L453.2031,23.4219 L455.5313,23.4219 L454.3594,18.3438 Z M452.875,16.1094 L455.8594,16.1094 L459.2188,28.5 L456.7656,28.5 L456,25.4375 L452.7188,25.4375 L451.9688,28.5 L449.5313,28.5 L452.875,16.1094 Z " fill="#000000"/><text fill="#000000" font-family="sans-serif" font-size="14" font-style="italic" lengthAdjust="spacing" textLength="37" x="474.75" y="27.8467">Zone</text><line style="stroke:#181818;stroke-width:0.5;" x1="406.5" x2="547.5" y1="39" y2="39"/><text fill="#000000" font-family="sans-serif" font-size="14" lengthAdjust="spacing" textLength="131" x="411.5" y="55.9951">String displayName</text><text fill="#000000" font-family="sans-serif" font-size="14" lengthAdjust="spacing" textLength="60" x="411.5" y="72.292">int offset</text><line style="stroke:#181818;stroke-width:0.5;" x1="406.5" x2="547.5" y1="79.5938" y2="79.5938"/><text fill="#000000" font-family="sans-serif" font-size="14" lengthAdjust="spacing" textLength="124" x="411.5" y="96.5889">getDisplanName()</text><text fill="#000000" font-family="sans-serif" font-size="14" lengthAdjust="spacing" textLength="74" x="411.5" y="112.8857">getOffset()</text></g><!--MD5=[5d211af98eb77f4bcd6508ebb5d0a624]
class ZoneUSEastern--><g id="elem_ZoneUSEastern"><rect fill="#F1F1F1" height="48" id="ZoneUSEastern" rx="2.5" ry="2.5" style="stroke:#181818;stroke-width:0.5;" width="141" x="729.5" y="188"/><ellipse cx="744.5" cy="204" fill="#ADD1B2" rx="11" ry="11" style="stroke:#181818;stroke-width:1.0;"/><path d="M747.4688,209.6406 Q746.8906,209.9375 746.25,210.0781 Q745.6094,210.2344 744.9063,210.2344 Q742.4063,210.2344 741.0781,208.5938 Q739.7656,206.9375 739.7656,203.8125 Q739.7656,200.6875 741.0781,199.0313 Q742.4063,197.375 744.9063,197.375 Q745.6094,197.375 746.25,197.5313 Q746.9063,197.6875 747.4688,197.9844 L747.4688,200.7031 Q746.8438,200.125 746.25,199.8594 Q745.6563,199.5781 745.0313,199.5781 Q743.6875,199.5781 743,200.6563 Q742.3125,201.7188 742.3125,203.8125 Q742.3125,205.9063 743,206.9844 Q743.6875,208.0469 745.0313,208.0469 Q745.6563,208.0469 746.25,207.7813 Q746.8438,207.5 747.4688,206.9219 L747.4688,209.6406 Z " fill="#000000"/><text fill="#000000" font-family="sans-serif" font-size="14" lengthAdjust="spacing" textLength="109" x="758.5" y="208.8467">ZoneUSEastern</text><line style="stroke:#181818;stroke-width:0.5;" x1="730.5" x2="869.5" y1="220" y2="220"/><line style="stroke:#181818;stroke-width:0.5;" x1="730.5" x2="869.5" y1="228" y2="228"/></g><!--MD5=[9367e9cbce43ac2aa0ba1c68978482c2]
class ZoneUSCentral--><g id="elem_ZoneUSCentral"><rect fill="#F1F1F1" height="48" id="ZoneUSCentral" rx="2.5" ry="2.5" style="stroke:#181818;stroke-width:0.5;" width="137" x="203.5" y="188"/><ellipse cx="218.5" cy="204" fill="#ADD1B2" rx="11" ry="11" style="stroke:#181818;stroke-width:1.0;"/><path d="M221.4688,209.6406 Q220.8906,209.9375 220.25,210.0781 Q219.6094,210.2344 218.9063,210.2344 Q216.4063,210.2344 215.0781,208.5938 Q213.7656,206.9375 213.7656,203.8125 Q213.7656,200.6875 215.0781,199.0313 Q216.4063,197.375 218.9063,197.375 Q219.6094,197.375 220.25,197.5313 Q220.9063,197.6875 221.4688,197.9844 L221.4688,200.7031 Q220.8438,200.125 220.25,199.8594 Q219.6563,199.5781 219.0313,199.5781 Q217.6875,199.5781 217,200.6563 Q216.3125,201.7188 216.3125,203.8125 Q216.3125,205.9063 217,206.9844 Q217.6875,208.0469 219.0313,208.0469 Q219.6563,208.0469 220.25,207.7813 Q220.8438,207.5 221.4688,206.9219 L221.4688,209.6406 Z " fill="#000000"/><text fill="#000000" font-family="sans-serif" font-size="14" lengthAdjust="spacing" textLength="105" x="232.5" y="208.8467">ZoneUSCentral</text><line style="stroke:#181818;stroke-width:0.5;" x1="204.5" x2="339.5" y1="220" y2="220"/><line style="stroke:#181818;stroke-width:0.5;" x1="204.5" x2="339.5" y1="228" y2="228"/></g><!--MD5=[0a232cd0781bbf6ba98f8c6ad930f4c4]
class ZoneUSMountain--><g id="elem_ZoneUSMountain"><rect fill="#F1F1F1" height="48" id="ZoneUSMountain" rx="2.5" ry="2.5" style="stroke:#181818;stroke-width:0.5;" width="152" x="376" y="188"/><ellipse cx="391" cy="204" fill="#ADD1B2" rx="11" ry="11" style="stroke:#181818;stroke-width:1.0;"/><path d="M393.9688,209.6406 Q393.3906,209.9375 392.75,210.0781 Q392.1094,210.2344 391.4063,210.2344 Q388.9063,210.2344 387.5781,208.5938 Q386.2656,206.9375 386.2656,203.8125 Q386.2656,200.6875 387.5781,199.0313 Q388.9063,197.375 391.4063,197.375 Q392.1094,197.375 392.75,197.5313 Q393.4063,197.6875 393.9688,197.9844 L393.9688,200.7031 Q393.3438,200.125 392.75,199.8594 Q392.1563,199.5781 391.5313,199.5781 Q390.1875,199.5781 389.5,200.6563 Q388.8125,201.7188 388.8125,203.8125 Q388.8125,205.9063 389.5,206.9844 Q390.1875,208.0469 391.5313,208.0469 Q392.1563,208.0469 392.75,207.7813 Q393.3438,207.5 393.9688,206.9219 L393.9688,209.6406 Z " fill="#000000"/><text fill="#000000" font-family="sans-serif" font-size="14" lengthAdjust="spacing" textLength="120" x="405" y="208.8467">ZoneUSMountain</text><line style="stroke:#181818;stroke-width:0.5;" x1="377" x2="527" y1="220" y2="220"/><line style="stroke:#181818;stroke-width:0.5;" x1="377" x2="527" y1="228" y2="228"/></g><!--MD5=[38519305f602ad02858b573bed84fd4b]
class ZoneUSPacific--><g id="elem_ZoneUSPacific"><rect fill="#F1F1F1" height="48" id="ZoneUSPacific" rx="2.5" ry="2.5" style="stroke:#181818;stroke-width:0.5;" width="131" x="563.5" y="188"/><ellipse cx="578.5" cy="204" fill="#ADD1B2" rx="11" ry="11" style="stroke:#181818;stroke-width:1.0;"/><path d="M581.4688,209.6406 Q580.8906,209.9375 580.25,210.0781 Q579.6094,210.2344 578.9063,210.2344 Q576.4063,210.2344 575.0781,208.5938 Q573.7656,206.9375 573.7656,203.8125 Q573.7656,200.6875 575.0781,199.0313 Q576.4063,197.375 578.9063,197.375 Q579.6094,197.375 580.25,197.5313 Q580.9063,197.6875 581.4688,197.9844 L581.4688,200.7031 Q580.8438,200.125 580.25,199.8594 Q579.6563,199.5781 579.0313,199.5781 Q577.6875,199.5781 577,200.6563 Q576.3125,201.7188 576.3125,203.8125 Q576.3125,205.9063 577,206.9844 Q577.6875,208.0469 579.0313,208.0469 Q579.6563,208.0469 580.25,207.7813 Q580.8438,207.5 581.4688,206.9219 L581.4688,209.6406 Z " fill="#000000"/><text fill="#000000" font-family="sans-serif" font-size="14" lengthAdjust="spacing" textLength="99" x="592.5" y="208.8467">ZoneUSPacific</text><line style="stroke:#181818;stroke-width:0.5;" x1="564.5" x2="693.5" y1="220" y2="220"/><line style="stroke:#181818;stroke-width:0.5;" x1="564.5" x2="693.5" y1="228" y2="228"/></g><!--MD5=[f6f055030af2348c3987502022cbd166]
reverse link Calendar to PacificCalendar--><g id="link_Calendar_PacificCalendar"><path codeLine="9" d="M75,132.28 C75,148.9 75,165.89 75,179.82 " fill="none" id="Calendar-backto-PacificCalendar" style="stroke:#181818;stroke-width:1.0;"/><polygon fill="none" points="68,132.06,75,112.06,82,132.06,68,132.06" style="stroke:#181818;stroke-width:1.0;"/></g><!--MD5=[b377d9671953cceb9183e751d6e79f8c]
link Calendar to ZoneFactory--><g id="link_Calendar_ZoneFactory"><path codeLine="13" d="M138.87,63.5 C146.18,63.5 153.5,63.5 160.81,63.5 " fill="none" id="Calendar-to-ZoneFactory" style="stroke:#181818;stroke-width:1.0;"/><polygon fill="none" points="173.97,63.5,167.97,59.5,161.97,63.5,167.97,67.5,173.97,63.5" style="stroke:#181818;stroke-width:1.0;"/></g><!--MD5=[bf6bafd32ffa51fd592bdb594aa55855]
reverse link Zone to ZoneUSEastern--><g id="link_Zone_ZoneUSEastern"><path codeLine="20" d="M567.15,105.39 C625.89,132.03 700.39,165.82 749.08,187.91 " fill="none" id="Zone-backto-ZoneUSEastern" style="stroke:#181818;stroke-width:1.0;"/><polygon fill="none" points="564.01,111.65,548.68,97.01,569.79,98.9,564.01,111.65" style="stroke:#181818;stroke-width:1.0;"/></g><!--MD5=[08236a297456fc831a322bc394f7c75c]
reverse link Zone to ZoneUSCentral--><g id="link_Zone_ZoneUSCentral"><path codeLine="21" d="M388.87,127.48 C358.85,148.93 327.16,171.58 304.36,187.87 " fill="none" id="Zone-backto-ZoneUSCentral" style="stroke:#181818;stroke-width:1.0;"/><polygon fill="none" points="384.96,121.67,405.3,115.74,393.1,133.06,384.96,121.67" style="stroke:#181818;stroke-width:1.0;"/></g><!--MD5=[82c24da9a13868706b04e1d76863e598]
reverse link Zone to ZoneUSMountain--><g id="link_Zone_ZoneUSMountain"><path codeLine="22" d="M464.09,140.18 C461.12,157.56 458.18,174.76 455.95,187.86 " fill="none" id="Zone-backto-ZoneUSMountain" style="stroke:#181818;stroke-width:1.0;"/><polygon fill="none" points="457.21,138.84,467.48,120.3,471.01,141.2,457.21,138.84" style="stroke:#181818;stroke-width:1.0;"/></g><!--MD5=[60ea27994c42c60b128ac5034e9389ad]
reverse link Zone to ZoneUSPacific--><g id="link_Zone_ZoneUSPacific"><path codeLine="23" d="M549.37,134.26 C569.45,153.6 589.86,173.28 604.99,187.86 " fill="none" id="Zone-backto-ZoneUSPacific" style="stroke:#181818;stroke-width:1.0;"/><polygon fill="none" points="544.44,139.22,534.9,120.3,554.16,129.14,544.44,139.22" style="stroke:#181818;stroke-width:1.0;"/></g><!--MD5=[ec64fa1ad72225a41cd0f154e36ca1c5]
link ZoneFactory to Zone--><g id="link_ZoneFactory_Zone"><path codeLine="24" d="M370.1,63.5 C377.4,63.5 384.71,63.5 392.02,63.5 " fill="none" id="ZoneFactory-to-Zone" style="stroke:#181818;stroke-width:1.0;"/><polygon fill="none" points="405.17,63.5,399.17,59.5,393.17,63.5,399.17,67.5,405.17,63.5" style="stroke:#181818;stroke-width:1.0;"/></g><!--MD5=[0fc9d325a28b3e1f716f6d8bf27c63e2]
@startuml
abstract Calendar {
  Zone zone
  print()
  createCalendar()
}
class PacificCalendar{
  createCalendar()
}
PacificCalendar -up-|> Calendar
class ZoneFactory {
  CreateZone(String zoneId)
}
Calendar -right-o ZoneFactory
abstract Zone {
  String displayName
  int offset
  getDisplanName()
  getOffset()
}
ZoneUSEastern -up-|> Zone
ZoneUSCentral -up-|> Zone
ZoneUSMountain -up-|> Zone
ZoneUSPacific -up-|> Zone
ZoneFactory -right-o Zone
@enduml

PlantUML version 1.2022.7(Tue Aug 23 00:01:30 ICT 2022)
(GPL source distribution)
Java Runtime: OpenJDK Runtime Environment
JVM: OpenJDK 64-Bit Server VM
Default Encoding: UTF-8
Language: en
Country: null
--></g></svg>