<?xml version="1.0" encoding="UTF-8" standalone="no"?><svg xmlns="http://www.w3.org/2000/svg" xmlns:xlink="http://www.w3.org/1999/xlink" contentStyleType="text/css" height="235px" preserveAspectRatio="none" style="width:685px;height:235px;background:#FFFFFF;" version="1.1" viewBox="0 0 685 235" width="685px" zoomAndPan="magnify"><defs/><g><!--MD5=[26f5c61a402468dcc7e4daedc2568d01]
class PizzaStore--><g id="elem_PizzaStore"><rect codeLine="1" fill="#F1F1F1" height="64.2969" id="PizzaStore" rx="2.5" ry="2.5" style="stroke:#181818;stroke-width:0.5;" width="102" x="7" y="31.5"/><ellipse cx="22" cy="47.5" fill="#A9DCDF" rx="11" ry="11" style="stroke:#181818;stroke-width:1.0;"/><path d="M22.1094,42.8438 L20.9531,47.9219 L23.2813,47.9219 L22.1094,42.8438 Z M20.625,40.6094 L23.6094,40.6094 L26.9688,53 L24.5156,53 L23.75,49.9375 L20.4688,49.9375 L19.7188,53 L17.2813,53 L20.625,40.6094 Z " fill="#000000"/><text fill="#000000" font-family="sans-serif" font-size="14" font-style="italic" lengthAdjust="spacing" textLength="70" x="36" y="52.3467">PizzaStore</text><line style="stroke:#181818;stroke-width:0.5;" x1="8" x2="108" y1="63.5" y2="63.5"/><line style="stroke:#181818;stroke-width:0.5;" x1="8" x2="108" y1="71.5" y2="71.5"/><text fill="#000000" font-family="sans-serif" font-size="14" lengthAdjust="spacing" textLength="83" x="13" y="88.4951">orderPizza()</text></g><!--MD5=[6f714cf0e5b4f5c2e18537b397a39437]
class SimplePizzaFactory--><g id="elem_SimplePizzaFactory"><rect codeLine="4" fill="#F1F1F1" height="64.2969" id="SimplePizzaFactory" rx="2.5" ry="2.5" style="stroke:#181818;stroke-width:0.5;" width="164" x="144" y="31.5"/><ellipse cx="159" cy="47.5" fill="#ADD1B2" rx="11" ry="11" style="stroke:#181818;stroke-width:1.0;"/><path d="M161.9688,53.1406 Q161.3906,53.4375 160.75,53.5781 Q160.1094,53.7344 159.4063,53.7344 Q156.9063,53.7344 155.5781,52.0938 Q154.2656,50.4375 154.2656,47.3125 Q154.2656,44.1875 155.5781,42.5313 Q156.9063,40.875 159.4063,40.875 Q160.1094,40.875 160.75,41.0313 Q161.4063,41.1875 161.9688,41.4844 L161.9688,44.2031 Q161.3438,43.625 160.75,43.3594 Q160.1563,43.0781 159.5313,43.0781 Q158.1875,43.0781 157.5,44.1563 Q156.8125,45.2188 156.8125,47.3125 Q156.8125,49.4063 157.5,50.4844 Q158.1875,51.5469 159.5313,51.5469 Q160.1563,51.5469 160.75,51.2813 Q161.3438,51 161.9688,50.4219 L161.9688,53.1406 Z " fill="#000000"/><text fill="#000000" font-family="sans-serif" font-size="14" lengthAdjust="spacing" textLength="132" x="173" y="52.3467">SimplePizzaFactory</text><line style="stroke:#181818;stroke-width:0.5;" x1="145" x2="307" y1="63.5" y2="63.5"/><line style="stroke:#181818;stroke-width:0.5;" x1="145" x2="307" y1="71.5" y2="71.5"/><text fill="#000000" font-family="sans-serif" font-size="14" lengthAdjust="spacing" textLength="90" x="150" y="88.4951">createPizza()</text></g><!--MD5=[5c5a2dd8ed299478ae091ad6bda6d6bd]
class Pizza--><g id="elem_Pizza"><rect codeLine="8" fill="#F1F1F1" height="113.1875" id="Pizza" rx="2.5" ry="2.5" style="stroke:#181818;stroke-width:0.5;" width="76" x="343" y="7"/><ellipse cx="362.95" cy="23" fill="#A9DCDF" rx="11" ry="11" style="stroke:#181818;stroke-width:1.0;"/><path d="M363.0594,18.3438 L361.9031,23.4219 L364.2313,23.4219 L363.0594,18.3438 Z M361.575,16.1094 L364.5594,16.1094 L367.9188,28.5 L365.4656,28.5 L364.7,25.4375 L361.4188,25.4375 L360.6688,28.5 L358.2313,28.5 L361.575,16.1094 Z " fill="#000000"/><text fill="#000000" font-family="sans-serif" font-size="14" font-style="italic" lengthAdjust="spacing" textLength="33" x="378.05" y="27.8467">Pizza</text><line style="stroke:#181818;stroke-width:0.5;" x1="344" x2="418" y1="39" y2="39"/><line style="stroke:#181818;stroke-width:0.5;" x1="344" x2="418" y1="47" y2="47"/><text fill="#000000" font-family="sans-serif" font-size="14" lengthAdjust="spacing" textLength="64" x="349" y="63.9951">prepare()</text><text fill="#000000" font-family="sans-serif" font-size="14" lengthAdjust="spacing" textLength="44" x="349" y="80.292">bake()</text><text fill="#000000" font-family="sans-serif" font-size="14" lengthAdjust="spacing" textLength="32" x="349" y="96.5889">cut()</text><text fill="#000000" font-family="sans-serif" font-size="14" lengthAdjust="spacing" textLength="35" x="349" y="112.8857">box()</text></g><!--MD5=[bb7b7b7f24e149315272ca99cc15d0b2]
class CheesePizza--><g id="elem_CheesePizza"><rect fill="#F1F1F1" height="48" id="CheesePizza" rx="2.5" ry="2.5" style="stroke:#181818;stroke-width:0.5;" width="122" x="94" y="180"/><ellipse cx="109" cy="196" fill="#ADD1B2" rx="11" ry="11" style="stroke:#181818;stroke-width:1.0;"/><path d="M111.9688,201.6406 Q111.3906,201.9375 110.75,202.0781 Q110.1094,202.2344 109.4063,202.2344 Q106.9063,202.2344 105.5781,200.5938 Q104.2656,198.9375 104.2656,195.8125 Q104.2656,192.6875 105.5781,191.0313 Q106.9063,189.375 109.4063,189.375 Q110.1094,189.375 110.75,189.5313 Q111.4063,189.6875 111.9688,189.9844 L111.9688,192.7031 Q111.3438,192.125 110.75,191.8594 Q110.1563,191.5781 109.5313,191.5781 Q108.1875,191.5781 107.5,192.6563 Q106.8125,193.7188 106.8125,195.8125 Q106.8125,197.9063 107.5,198.9844 Q108.1875,200.0469 109.5313,200.0469 Q110.1563,200.0469 110.75,199.7813 Q111.3438,199.5 111.9688,198.9219 L111.9688,201.6406 Z " fill="#000000"/><text fill="#000000" font-family="sans-serif" font-size="14" lengthAdjust="spacing" textLength="90" x="123" y="200.8467">CheesePizza</text><line style="stroke:#181818;stroke-width:0.5;" x1="95" x2="215" y1="212" y2="212"/><line style="stroke:#181818;stroke-width:0.5;" x1="95" x2="215" y1="220" y2="220"/></g><!--MD5=[b57cfb30b6e2a9be323be17c456b21ed]
class VeggiePizza--><g id="elem_VeggiePizza"><rect fill="#F1F1F1" height="48" id="VeggiePizza" rx="2.5" ry="2.5" style="stroke:#181818;stroke-width:0.5;" width="116" x="251" y="180"/><ellipse cx="266" cy="196" fill="#ADD1B2" rx="11" ry="11" style="stroke:#181818;stroke-width:1.0;"/><path d="M268.9688,201.6406 Q268.3906,201.9375 267.75,202.0781 Q267.1094,202.2344 266.4063,202.2344 Q263.9063,202.2344 262.5781,200.5938 Q261.2656,198.9375 261.2656,195.8125 Q261.2656,192.6875 262.5781,191.0313 Q263.9063,189.375 266.4063,189.375 Q267.1094,189.375 267.75,189.5313 Q268.4063,189.6875 268.9688,189.9844 L268.9688,192.7031 Q268.3438,192.125 267.75,191.8594 Q267.1563,191.5781 266.5313,191.5781 Q265.1875,191.5781 264.5,192.6563 Q263.8125,193.7188 263.8125,195.8125 Q263.8125,197.9063 264.5,198.9844 Q265.1875,200.0469 266.5313,200.0469 Q267.1563,200.0469 267.75,199.7813 Q268.3438,199.5 268.9688,198.9219 L268.9688,201.6406 Z " fill="#000000"/><text fill="#000000" font-family="sans-serif" font-size="14" lengthAdjust="spacing" textLength="84" x="280" y="200.8467">VeggiePizza</text><line style="stroke:#181818;stroke-width:0.5;" x1="252" x2="366" y1="212" y2="212"/><line style="stroke:#181818;stroke-width:0.5;" x1="252" x2="366" y1="220" y2="220"/></g><!--MD5=[69adf9b590f774b46f34e6be464a3b7a]
class ClamPizza--><g id="elem_ClamPizza"><rect fill="#F1F1F1" height="48" id="ClamPizza" rx="2.5" ry="2.5" style="stroke:#181818;stroke-width:0.5;" width="102" x="402" y="180"/><ellipse cx="417" cy="196" fill="#ADD1B2" rx="11" ry="11" style="stroke:#181818;stroke-width:1.0;"/><path d="M419.9688,201.6406 Q419.3906,201.9375 418.75,202.0781 Q418.1094,202.2344 417.4063,202.2344 Q414.9063,202.2344 413.5781,200.5938 Q412.2656,198.9375 412.2656,195.8125 Q412.2656,192.6875 413.5781,191.0313 Q414.9063,189.375 417.4063,189.375 Q418.1094,189.375 418.75,189.5313 Q419.4063,189.6875 419.9688,189.9844 L419.9688,192.7031 Q419.3438,192.125 418.75,191.8594 Q418.1563,191.5781 417.5313,191.5781 Q416.1875,191.5781 415.5,192.6563 Q414.8125,193.7188 414.8125,195.8125 Q414.8125,197.9063 415.5,198.9844 Q416.1875,200.0469 417.5313,200.0469 Q418.1563,200.0469 418.75,199.7813 Q419.3438,199.5 419.9688,198.9219 L419.9688,201.6406 Z " fill="#000000"/><text fill="#000000" font-family="sans-serif" font-size="14" lengthAdjust="spacing" textLength="70" x="431" y="200.8467">ClamPizza</text><line style="stroke:#181818;stroke-width:0.5;" x1="403" x2="503" y1="212" y2="212"/><line style="stroke:#181818;stroke-width:0.5;" x1="403" x2="503" y1="220" y2="220"/></g><!--MD5=[5687e49d5780798970ec66d4564600d2]
class PepperoniPizza--><g id="elem_PepperoniPizza"><rect fill="#F1F1F1" height="48" id="PepperoniPizza" rx="2.5" ry="2.5" style="stroke:#181818;stroke-width:0.5;" width="139" x="539.5" y="180"/><ellipse cx="554.5" cy="196" fill="#ADD1B2" rx="11" ry="11" style="stroke:#181818;stroke-width:1.0;"/><path d="M557.4688,201.6406 Q556.8906,201.9375 556.25,202.0781 Q555.6094,202.2344 554.9063,202.2344 Q552.4063,202.2344 551.0781,200.5938 Q549.7656,198.9375 549.7656,195.8125 Q549.7656,192.6875 551.0781,191.0313 Q552.4063,189.375 554.9063,189.375 Q555.6094,189.375 556.25,189.5313 Q556.9063,189.6875 557.4688,189.9844 L557.4688,192.7031 Q556.8438,192.125 556.25,191.8594 Q555.6563,191.5781 555.0313,191.5781 Q553.6875,191.5781 553,192.6563 Q552.3125,193.7188 552.3125,195.8125 Q552.3125,197.9063 553,198.9844 Q553.6875,200.0469 555.0313,200.0469 Q555.6563,200.0469 556.25,199.7813 Q556.8438,199.5 557.4688,198.9219 L557.4688,201.6406 Z " fill="#000000"/><text fill="#000000" font-family="sans-serif" font-size="14" lengthAdjust="spacing" textLength="107" x="568.5" y="200.8467">PepperoniPizza</text><line style="stroke:#181818;stroke-width:0.5;" x1="540.5" x2="677.5" y1="212" y2="212"/><line style="stroke:#181818;stroke-width:0.5;" x1="540.5" x2="677.5" y1="220" y2="220"/></g><!--MD5=[29f54a91dfd491862ff1e2d128acc962]
link PizzaStore to SimplePizzaFactory--><g id="link_PizzaStore_SimplePizzaFactory"><path codeLine="7" d="M109.19,63.5 C119.03,63.5 128.87,63.5 138.72,63.5 " fill="none" id="PizzaStore-to-SimplePizzaFactory" style="stroke:#181818;stroke-width:1.0;"/><polygon fill="#181818" points="143.87,63.5,134.87,59.5,138.87,63.5,134.87,67.5,143.87,63.5" style="stroke:#181818;stroke-width:1.0;"/></g><!--MD5=[3525af9570d3abb86c26bf42a2a255ad]
link SimplePizzaFactory to Pizza--><g id="link_SimplePizzaFactory_Pizza"><path codeLine="14" d="M308.04,63.5 C317.91,63.5 327.78,63.5 337.65,63.5 " fill="none" id="SimplePizzaFactory-to-Pizza" style="stroke:#181818;stroke-width:1.0;"/><polygon fill="#181818" points="342.81,63.5,333.81,59.5,337.81,63.5,333.81,67.5,342.81,63.5" style="stroke:#181818;stroke-width:1.0;"/></g><!--MD5=[8f574cacc568233a59984bc8b8889b74]
reverse link Pizza to CheesePizza--><g id="link_Pizza_CheesePizza"><path codeLine="15" d="M327.34,119.03 C326.9,119.35 326.45,119.68 326,120 C291.64,144.57 248.89,165.32 214.73,179.93 " fill="none" id="Pizza-backto-CheesePizza" style="stroke:#181818;stroke-width:1.0;"/><polygon fill="none" points="322.94,113.59,342.82,106.24,331.86,124.38,322.94,113.59" style="stroke:#181818;stroke-width:1.0;"/></g><!--MD5=[2b6247ce0f74fd1e5cf18c23466342d1]
reverse link Pizza to VeggiePizza--><g id="link_Pizza_VeggiePizza"><path codeLine="16" d="M342.83,137.92 C334.89,153.2 327.08,168.21 320.98,179.96 " fill="none" id="Pizza-backto-VeggiePizza" style="stroke:#181818;stroke-width:1.0;"/><polygon fill="none" points="336.69,134.55,352.13,120.04,349.12,141.01,336.69,134.55" style="stroke:#181818;stroke-width:1.0;"/></g><!--MD5=[f33c29a64ee839b900ba1cf234ca1f13]
reverse link Pizza to ClamPizza--><g id="link_Pizza_ClamPizza"><path codeLine="17" d="M419.17,137.92 C427.11,153.2 434.92,168.21 441.02,179.96 " fill="none" id="Pizza-backto-ClamPizza" style="stroke:#181818;stroke-width:1.0;"/><polygon fill="none" points="412.88,141.01,409.87,120.04,425.31,134.55,412.88,141.01" style="stroke:#181818;stroke-width:1.0;"/></g><!--MD5=[a4336046344e37e2fd0ef24fcd23c7f8]
reverse link Pizza to PepperoniPizza--><g id="link_Pizza_PepperoniPizza"><path codeLine="18" d="M436.36,98.13 C478.13,123.5 534.33,157.64 571.09,179.97 " fill="none" id="Pizza-backto-PepperoniPizza" style="stroke:#181818;stroke-width:1.0;"/><polygon fill="none" points="432.62,104.05,419.16,87.68,439.89,92.08,432.62,104.05" style="stroke:#181818;stroke-width:1.0;"/></g><!--MD5=[c70288021ff241738ec60243064047fb]
@startuml
abstract PizzaStore{
  orderPizza()
}
class SimplePizzaFactory {
  createPizza()
}
PizzaStore -right-> SimplePizzaFactory
abstract Pizza {
  prepare()
  bake()
  cut()
  box()
}
SimplePizzaFactory -right-> Pizza
CheesePizza -up-|> Pizza
VeggiePizza -up-|> Pizza
ClamPizza -up-|> Pizza
PepperoniPizza -up-|> Pizza

@enduml

PlantUML version 1.2022.7(Tue Aug 23 00:01:30 ICT 2022)
(GPL source distribution)
Java Runtime: OpenJDK Runtime Environment
JVM: OpenJDK 64-Bit Server VM
Default Encoding: UTF-8
Language: en
Country: null
--></g></svg>