<?xml version="1.0" encoding="UTF-8" standalone="no"?><svg xmlns="http://www.w3.org/2000/svg" xmlns:xlink="http://www.w3.org/1999/xlink" contentStyleType="text/css" height="235px" preserveAspectRatio="none" style="width:401px;height:235px;background:#FFFFFF;" version="1.1" viewBox="0 0 401 235" width="401px" zoomAndPan="magnify"><defs/><g><!--MD5=[61dcaf4362fbc82af5aa092c6c4985a3]
class SimpleFactory--><g id="elem_SimpleFactory"><rect codeLine="1" fill="#F1F1F1" height="64.2969" id="SimpleFactory" rx="2.5" ry="2.5" style="stroke:#181818;stroke-width:0.5;" width="128" x="113.5" y="15.5"/><ellipse cx="128.5" cy="31.5" fill="#ADD1B2" rx="11" ry="11" style="stroke:#181818;stroke-width:1.0;"/><path d="M131.4688,37.1406 Q130.8906,37.4375 130.25,37.5781 Q129.6094,37.7344 128.9063,37.7344 Q126.4063,37.7344 125.0781,36.0938 Q123.7656,34.4375 123.7656,31.3125 Q123.7656,28.1875 125.0781,26.5313 Q126.4063,24.875 128.9063,24.875 Q129.6094,24.875 130.25,25.0313 Q130.9063,25.1875 131.4688,25.4844 L131.4688,28.2031 Q130.8438,27.625 130.25,27.3594 Q129.6563,27.0781 129.0313,27.0781 Q127.6875,27.0781 127,28.1563 Q126.3125,29.2188 126.3125,31.3125 Q126.3125,33.4063 127,34.4844 Q127.6875,35.5469 129.0313,35.5469 Q129.6563,35.5469 130.25,35.2813 Q130.8438,35 131.4688,34.4219 L131.4688,37.1406 Z " fill="#000000"/><text fill="#000000" font-family="sans-serif" font-size="14" lengthAdjust="spacing" textLength="96" x="142.5" y="36.3467">SimpleFactory</text><line style="stroke:#181818;stroke-width:0.5;" x1="114.5" x2="240.5" y1="47.5" y2="47.5"/><line style="stroke:#181818;stroke-width:0.5;" x1="114.5" x2="240.5" y1="55.5" y2="55.5"/><text fill="#000000" font-family="sans-serif" font-size="14" lengthAdjust="spacing" textLength="108" x="119.5" y="72.4951">createProduct()</text></g><!--MD5=[ed6624c6556d5e7b1bd23032162d20b7]
class Client--><g id="elem_Client"><rect fill="#F1F1F1" height="48" id="Client" rx="2.5" ry="2.5" style="stroke:#181818;stroke-width:0.5;" width="71" x="7" y="23.5"/><ellipse cx="22" cy="39.5" fill="#ADD1B2" rx="11" ry="11" style="stroke:#181818;stroke-width:1.0;"/><path d="M24.9688,45.1406 Q24.3906,45.4375 23.75,45.5781 Q23.1094,45.7344 22.4063,45.7344 Q19.9063,45.7344 18.5781,44.0938 Q17.2656,42.4375 17.2656,39.3125 Q17.2656,36.1875 18.5781,34.5313 Q19.9063,32.875 22.4063,32.875 Q23.1094,32.875 23.75,33.0313 Q24.4063,33.1875 24.9688,33.4844 L24.9688,36.2031 Q24.3438,35.625 23.75,35.3594 Q23.1563,35.0781 22.5313,35.0781 Q21.1875,35.0781 20.5,36.1563 Q19.8125,37.2188 19.8125,39.3125 Q19.8125,41.4063 20.5,42.4844 Q21.1875,43.5469 22.5313,43.5469 Q23.1563,43.5469 23.75,43.2813 Q24.3438,43 24.9688,42.4219 L24.9688,45.1406 Z " fill="#000000"/><text fill="#000000" font-family="sans-serif" font-size="14" lengthAdjust="spacing" textLength="39" x="36" y="44.3467">Client</text><line style="stroke:#181818;stroke-width:0.5;" x1="8" x2="77" y1="55.5" y2="55.5"/><line style="stroke:#181818;stroke-width:0.5;" x1="8" x2="77" y1="63.5" y2="63.5"/></g><!--MD5=[72136138052d025cffdce3c22fbd185f]
class Product--><g id="elem_Product"><rect codeLine="5" fill="#F1F1F1" height="80.5938" id="Product" rx="2.5" ry="2.5" style="stroke:#181818;stroke-width:0.5;" width="86" x="276.5" y="7"/><ellipse cx="291.95" cy="23" fill="#A9DCDF" rx="11" ry="11" style="stroke:#181818;stroke-width:1.0;"/><path d="M292.0594,18.3438 L290.9031,23.4219 L293.2313,23.4219 L292.0594,18.3438 Z M290.575,16.1094 L293.5594,16.1094 L296.9188,28.5 L294.4656,28.5 L293.7,25.4375 L290.4188,25.4375 L289.6688,28.5 L287.2313,28.5 L290.575,16.1094 Z " fill="#000000"/><text fill="#000000" font-family="sans-serif" font-size="14" font-style="italic" lengthAdjust="spacing" textLength="53" x="306.05" y="27.8467">Product</text><line style="stroke:#181818;stroke-width:0.5;" x1="277.5" x2="361.5" y1="39" y2="39"/><line style="stroke:#181818;stroke-width:0.5;" x1="277.5" x2="361.5" y1="47" y2="47"/><text fill="#000000" font-family="sans-serif" font-size="14" lengthAdjust="spacing" textLength="73" x="282.5" y="63.9951">methodA()</text><text fill="#000000" font-family="sans-serif" font-size="14" lengthAdjust="spacing" textLength="74" x="282.5" y="80.292">methodB()</text></g><!--MD5=[990132e04f994323e3060f5453bb4352]
class ConcreteProduct--><g id="elem_ConcreteProduct"><rect codeLine="9" fill="#F1F1F1" height="80.5938" id="ConcreteProduct" rx="2.5" ry="2.5" style="stroke:#181818;stroke-width:0.5;" width="150" x="244.5" y="148"/><ellipse cx="259.5" cy="164" fill="#ADD1B2" rx="11" ry="11" style="stroke:#181818;stroke-width:1.0;"/><path d="M262.4688,169.6406 Q261.8906,169.9375 261.25,170.0781 Q260.6094,170.2344 259.9063,170.2344 Q257.4063,170.2344 256.0781,168.5938 Q254.7656,166.9375 254.7656,163.8125 Q254.7656,160.6875 256.0781,159.0313 Q257.4063,157.375 259.9063,157.375 Q260.6094,157.375 261.25,157.5313 Q261.9063,157.6875 262.4688,157.9844 L262.4688,160.7031 Q261.8438,160.125 261.25,159.8594 Q260.6563,159.5781 260.0313,159.5781 Q258.6875,159.5781 258,160.6563 Q257.3125,161.7188 257.3125,163.8125 Q257.3125,165.9063 258,166.9844 Q258.6875,168.0469 260.0313,168.0469 Q260.6563,168.0469 261.25,167.7813 Q261.8438,167.5 262.4688,166.9219 L262.4688,169.6406 Z " fill="#000000"/><text fill="#000000" font-family="sans-serif" font-size="14" lengthAdjust="spacing" textLength="118" x="273.5" y="168.8467">ConcreteProduct</text><line style="stroke:#181818;stroke-width:0.5;" x1="245.5" x2="393.5" y1="180" y2="180"/><line style="stroke:#181818;stroke-width:0.5;" x1="245.5" x2="393.5" y1="188" y2="188"/><text fill="#000000" font-family="sans-serif" font-size="14" lengthAdjust="spacing" textLength="73" x="250.5" y="204.9951">methodA()</text><text fill="#000000" font-family="sans-serif" font-size="14" lengthAdjust="spacing" textLength="74" x="250.5" y="221.292">methodB()</text></g><!--MD5=[251390379155d9e4eaf20bef3e5aeaac]
link Client to SimpleFactory--><g id="link_Client_SimpleFactory"><path codeLine="4" d="M78.1,47.5 C88.13,47.5 98.16,47.5 108.19,47.5 " fill="none" id="Client-to-SimpleFactory" style="stroke:#181818;stroke-width:1.0;"/><polygon fill="#181818" points="113.43,47.5,104.43,43.5,108.43,47.5,104.43,51.5,113.43,47.5" style="stroke:#181818;stroke-width:1.0;"/></g><!--MD5=[03f389ab946010d19db5823a3056b88d]
reverse link Product to ConcreteProduct--><g id="link_Product_ConcreteProduct"><path codeLine="13" d="M319.5,108.48 C319.5,121.73 319.5,135.45 319.5,147.66 " fill="none" id="Product-backto-ConcreteProduct" style="stroke:#181818;stroke-width:1.0;"/><polygon fill="none" points="312.5,108.33,319.5,88.33,326.5,108.33,312.5,108.33" style="stroke:#181818;stroke-width:1.0;"/></g><!--MD5=[16098252c36ba9970f0d6aa6bf03a857]
link SimpleFactory to Product--><g id="link_SimpleFactory_Product"><path codeLine="14" d="M241.57,47.5 C251.42,47.5 261.27,47.5 271.12,47.5 " fill="none" id="SimpleFactory-to-Product" style="stroke:#181818;stroke-width:1.0;"/><polygon fill="#181818" points="276.27,47.5,267.27,43.5,271.27,47.5,267.27,51.5,276.27,47.5" style="stroke:#181818;stroke-width:1.0;"/></g><!--MD5=[2b06af0a9222674872b79d43d7229673]
@startuml
class SimpleFactory {
  createProduct()
}
Client -right-> SimpleFactory
abstract Product {
  methodA()
  methodB()
}
class ConcreteProduct {
  methodA()
  methodB()
}
ConcreteProduct -up-|> Product
SimpleFactory -right-> Product
@enduml

PlantUML version 1.2022.7(Tue Aug 23 00:01:30 ICT 2022)
(GPL source distribution)
Java Runtime: OpenJDK Runtime Environment
JVM: OpenJDK 64-Bit Server VM
Default Encoding: UTF-8
Language: en
Country: null
--></g></svg>