<?xml version="1.0" encoding="UTF-8" standalone="no"?><svg xmlns="http://www.w3.org/2000/svg" xmlns:xlink="http://www.w3.org/1999/xlink" contentStyleType="text/css" height="235px" preserveAspectRatio="none" style="width:826px;height:235px;background:#FFFFFF;" version="1.1" viewBox="0 0 826 235" width="826px" zoomAndPan="magnify"><defs/><g><!--MD5=[f0268dd29ee89052933f031546cb1cab]
class Menu--><g id="elem_Menu"><rect codeLine="1" fill="#F1F1F1" height="64.2969" id="Menu" rx="2.5" ry="2.5" style="stroke:#181818;stroke-width:0.5;" width="115" x="228" y="15.5"/><ellipse cx="262.8" cy="31.5" fill="#B4A7E5" rx="11" ry="11" style="stroke:#181818;stroke-width:1.0;"/><path d="M258.7219,27.2656 L258.7219,25.1094 L266.1125,25.1094 L266.1125,27.2656 L263.6438,27.2656 L263.6438,35.3438 L266.1125,35.3438 L266.1125,37.5 L258.7219,37.5 L258.7219,35.3438 L261.1906,35.3438 L261.1906,27.2656 L258.7219,27.2656 Z " fill="#000000"/><text fill="#000000" font-family="sans-serif" font-size="14" font-style="italic" lengthAdjust="spacing" textLength="39" x="281.2" y="36.3467">Menu</text><line style="stroke:#181818;stroke-width:0.5;" x1="229" x2="342" y1="47.5" y2="47.5"/><line style="stroke:#181818;stroke-width:0.5;" x1="229" x2="342" y1="55.5" y2="55.5"/><text fill="#000000" font-family="sans-serif" font-size="14" lengthAdjust="spacing" textLength="103" x="234" y="72.4951">createIterator()</text></g><!--MD5=[2b5bf27e2bd79edb2813bef399e67858]
class PancakeHouseMenu--><g id="elem_PancakeHouseMenu"><rect codeLine="4" fill="#F1F1F1" height="80.5938" id="PancakeHouseMenu" rx="2.5" ry="2.5" style="stroke:#181818;stroke-width:0.5;" width="175" x="7" y="148"/><ellipse cx="22" cy="164" fill="#ADD1B2" rx="11" ry="11" style="stroke:#181818;stroke-width:1.0;"/><path d="M24.9688,169.6406 Q24.3906,169.9375 23.75,170.0781 Q23.1094,170.2344 22.4063,170.2344 Q19.9063,170.2344 18.5781,168.5938 Q17.2656,166.9375 17.2656,163.8125 Q17.2656,160.6875 18.5781,159.0313 Q19.9063,157.375 22.4063,157.375 Q23.1094,157.375 23.75,157.5313 Q24.4063,157.6875 24.9688,157.9844 L24.9688,160.7031 Q24.3438,160.125 23.75,159.8594 Q23.1563,159.5781 22.5313,159.5781 Q21.1875,159.5781 20.5,160.6563 Q19.8125,161.7188 19.8125,163.8125 Q19.8125,165.9063 20.5,166.9844 Q21.1875,168.0469 22.5313,168.0469 Q23.1563,168.0469 23.75,167.7813 Q24.3438,167.5 24.9688,166.9219 L24.9688,169.6406 Z " fill="#000000"/><text fill="#000000" font-family="sans-serif" font-size="14" lengthAdjust="spacing" textLength="143" x="36" y="168.8467">PancakeHouseMenu</text><line style="stroke:#181818;stroke-width:0.5;" x1="8" x2="181" y1="180" y2="180"/><text fill="#000000" font-family="sans-serif" font-size="14" lengthAdjust="spacing" textLength="139" x="13" y="196.9951">ArrayList menuItems</text><line style="stroke:#181818;stroke-width:0.5;" x1="8" x2="181" y1="204.2969" y2="204.2969"/><text fill="#000000" font-family="sans-serif" font-size="14" lengthAdjust="spacing" textLength="103" x="13" y="221.292">createIterator()</text></g><!--MD5=[0321b0ee8154714e00d0c54547efbb35]
class DinerMenu--><g id="elem_DinerMenu"><rect codeLine="8" fill="#F1F1F1" height="80.5938" id="DinerMenu" rx="2.5" ry="2.5" style="stroke:#181818;stroke-width:0.5;" width="144" x="217.5" y="148"/><ellipse cx="248.7" cy="164" fill="#ADD1B2" rx="11" ry="11" style="stroke:#181818;stroke-width:1.0;"/><path d="M251.6688,169.6406 Q251.0906,169.9375 250.45,170.0781 Q249.8094,170.2344 249.1063,170.2344 Q246.6063,170.2344 245.2781,168.5938 Q243.9656,166.9375 243.9656,163.8125 Q243.9656,160.6875 245.2781,159.0313 Q246.6063,157.375 249.1063,157.375 Q249.8094,157.375 250.45,157.5313 Q251.1063,157.6875 251.6688,157.9844 L251.6688,160.7031 Q251.0438,160.125 250.45,159.8594 Q249.8563,159.5781 249.2313,159.5781 Q247.8875,159.5781 247.2,160.6563 Q246.5125,161.7188 246.5125,163.8125 Q246.5125,165.9063 247.2,166.9844 Q247.8875,168.0469 249.2313,168.0469 Q249.8563,168.0469 250.45,167.7813 Q251.0438,167.5 251.6688,166.9219 L251.6688,169.6406 Z " fill="#000000"/><text fill="#000000" font-family="sans-serif" font-size="14" lengthAdjust="spacing" textLength="76" x="266.3" y="168.8467">DinerMenu</text><line style="stroke:#181818;stroke-width:0.5;" x1="218.5" x2="360.5" y1="180" y2="180"/><text fill="#000000" font-family="sans-serif" font-size="14" lengthAdjust="spacing" textLength="132" x="223.5" y="196.9951">String[] menuItems</text><line style="stroke:#181818;stroke-width:0.5;" x1="218.5" x2="360.5" y1="204.2969" y2="204.2969"/><text fill="#000000" font-family="sans-serif" font-size="14" lengthAdjust="spacing" textLength="103" x="223.5" y="221.292">createIterator()</text></g><!--MD5=[ec66d974db57302924a9b211237ab387]
class Cafe--><g id="elem_Cafe"><rect fill="#F1F1F1" height="48" id="Cafe" rx="2.5" ry="2.5" style="stroke:#181818;stroke-width:0.5;" width="63" x="378" y="23.5"/><ellipse cx="393" cy="39.5" fill="#ADD1B2" rx="11" ry="11" style="stroke:#181818;stroke-width:1.0;"/><path d="M395.9688,45.1406 Q395.3906,45.4375 394.75,45.5781 Q394.1094,45.7344 393.4063,45.7344 Q390.9063,45.7344 389.5781,44.0938 Q388.2656,42.4375 388.2656,39.3125 Q388.2656,36.1875 389.5781,34.5313 Q390.9063,32.875 393.4063,32.875 Q394.1094,32.875 394.75,33.0313 Q395.4063,33.1875 395.9688,33.4844 L395.9688,36.2031 Q395.3438,35.625 394.75,35.3594 Q394.1563,35.0781 393.5313,35.0781 Q392.1875,35.0781 391.5,36.1563 Q390.8125,37.2188 390.8125,39.3125 Q390.8125,41.4063 391.5,42.4844 Q392.1875,43.5469 393.5313,43.5469 Q394.1563,43.5469 394.75,43.2813 Q395.3438,43 395.9688,42.4219 L395.9688,45.1406 Z " fill="#000000"/><text fill="#000000" font-family="sans-serif" font-size="14" lengthAdjust="spacing" textLength="31" x="407" y="44.3467">Cafe</text><line style="stroke:#181818;stroke-width:0.5;" x1="379" x2="440" y1="55.5" y2="55.5"/><line style="stroke:#181818;stroke-width:0.5;" x1="379" x2="440" y1="63.5" y2="63.5"/></g><!--MD5=[023ecf6702e3ca2ce47ae747eafb20f1]
class Iterator--><g id="elem_Iterator"><rect codeLine="16" fill="#F1F1F1" height="80.5938" id="Iterator" rx="2.5" ry="2.5" style="stroke:#181818;stroke-width:0.5;" width="82" x="476.5" y="7"/><ellipse cx="491.5" cy="23" fill="#B4A7E5" rx="11" ry="11" style="stroke:#181818;stroke-width:1.0;"/><path d="M487.4219,18.7656 L487.4219,16.6094 L494.8125,16.6094 L494.8125,18.7656 L492.3438,18.7656 L492.3438,26.8438 L494.8125,26.8438 L494.8125,29 L487.4219,29 L487.4219,26.8438 L489.8906,26.8438 L489.8906,18.7656 L487.4219,18.7656 Z " fill="#000000"/><text fill="#000000" font-family="sans-serif" font-size="14" font-style="italic" lengthAdjust="spacing" textLength="50" x="505.5" y="27.8467">Iterator</text><line style="stroke:#181818;stroke-width:0.5;" x1="477.5" x2="557.5" y1="39" y2="39"/><line style="stroke:#181818;stroke-width:0.5;" x1="477.5" x2="557.5" y1="47" y2="47"/><text fill="#000000" font-family="sans-serif" font-size="14" lengthAdjust="spacing" textLength="66" x="482.5" y="63.9951">hasNext()</text><text fill="#000000" font-family="sans-serif" font-size="14" lengthAdjust="spacing" textLength="40" x="482.5" y="80.292">next()</text></g><!--MD5=[b9f2cde6e63fea0e067b2c8f71153e8c]
class PancakeHouseMenuIterator--><g id="elem_PancakeHouseMenuIterator"><rect codeLine="20" fill="#F1F1F1" height="80.5938" id="PancakeHouseMenuIterator" rx="2.5" ry="2.5" style="stroke:#181818;stroke-width:0.5;" width="224" x="402.5" y="148"/><ellipse cx="417.5" cy="164" fill="#ADD1B2" rx="11" ry="11" style="stroke:#181818;stroke-width:1.0;"/><path d="M420.4688,169.6406 Q419.8906,169.9375 419.25,170.0781 Q418.6094,170.2344 417.9063,170.2344 Q415.4063,170.2344 414.0781,168.5938 Q412.7656,166.9375 412.7656,163.8125 Q412.7656,160.6875 414.0781,159.0313 Q415.4063,157.375 417.9063,157.375 Q418.6094,157.375 419.25,157.5313 Q419.9063,157.6875 420.4688,157.9844 L420.4688,160.7031 Q419.8438,160.125 419.25,159.8594 Q418.6563,159.5781 418.0313,159.5781 Q416.6875,159.5781 416,160.6563 Q415.3125,161.7188 415.3125,163.8125 Q415.3125,165.9063 416,166.9844 Q416.6875,168.0469 418.0313,168.0469 Q418.6563,168.0469 419.25,167.7813 Q419.8438,167.5 420.4688,166.9219 L420.4688,169.6406 Z " fill="#000000"/><text fill="#000000" font-family="sans-serif" font-size="14" lengthAdjust="spacing" textLength="192" x="431.5" y="168.8467">PancakeHouseMenuIterator</text><line style="stroke:#181818;stroke-width:0.5;" x1="403.5" x2="625.5" y1="180" y2="180"/><line style="stroke:#181818;stroke-width:0.5;" x1="403.5" x2="625.5" y1="188" y2="188"/><text fill="#000000" font-family="sans-serif" font-size="14" lengthAdjust="spacing" textLength="66" x="408.5" y="204.9951">hasNext()</text><text fill="#000000" font-family="sans-serif" font-size="14" lengthAdjust="spacing" textLength="40" x="408.5" y="221.292">next()</text></g><!--MD5=[77053efc788c0778d05a4d27be908146]
class DinerMenuIterator--><g id="elem_DinerMenuIterator"><rect codeLine="24" fill="#F1F1F1" height="80.5938" id="DinerMenuIterator" rx="2.5" ry="2.5" style="stroke:#181818;stroke-width:0.5;" width="157" x="662" y="148"/><ellipse cx="677" cy="164" fill="#ADD1B2" rx="11" ry="11" style="stroke:#181818;stroke-width:1.0;"/><path d="M679.9688,169.6406 Q679.3906,169.9375 678.75,170.0781 Q678.1094,170.2344 677.4063,170.2344 Q674.9063,170.2344 673.5781,168.5938 Q672.2656,166.9375 672.2656,163.8125 Q672.2656,160.6875 673.5781,159.0313 Q674.9063,157.375 677.4063,157.375 Q678.1094,157.375 678.75,157.5313 Q679.4063,157.6875 679.9688,157.9844 L679.9688,160.7031 Q679.3438,160.125 678.75,159.8594 Q678.1563,159.5781 677.5313,159.5781 Q676.1875,159.5781 675.5,160.6563 Q674.8125,161.7188 674.8125,163.8125 Q674.8125,165.9063 675.5,166.9844 Q676.1875,168.0469 677.5313,168.0469 Q678.1563,168.0469 678.75,167.7813 Q679.3438,167.5 679.9688,166.9219 L679.9688,169.6406 Z " fill="#000000"/><text fill="#000000" font-family="sans-serif" font-size="14" lengthAdjust="spacing" textLength="125" x="691" y="168.8467">DinerMenuIterator</text><line style="stroke:#181818;stroke-width:0.5;" x1="663" x2="818" y1="180" y2="180"/><line style="stroke:#181818;stroke-width:0.5;" x1="663" x2="818" y1="188" y2="188"/><text fill="#000000" font-family="sans-serif" font-size="14" lengthAdjust="spacing" textLength="66" x="668" y="204.9951">hasNext()</text><text fill="#000000" font-family="sans-serif" font-size="14" lengthAdjust="spacing" textLength="40" x="668" y="221.292">next()</text></g><!--MD5=[310e11accb0824f07868dcbc4eecdb3d]
reverse link Menu to PancakeHouseMenu--><g id="link_Menu_PancakeHouseMenu"><path codeLine="12" d="M226.24,91.63 C201.53,109.61 173.02,130.35 148.86,147.94 " fill="none" id="Menu-backto-PancakeHouseMenu" style="stroke:#181818;stroke-width:1.0;stroke-dasharray:7.0,7.0;"/><polygon fill="none" points="222.35,85.8,242.64,79.69,230.58,97.12,222.35,85.8" style="stroke:#181818;stroke-width:1.0;"/></g><!--MD5=[2e42d48cd23ee8a7cf8a6023784e9f64]
reverse link Menu to DinerMenu--><g id="link_Menu_DinerMenu"><path codeLine="13" d="M286.98,99.83 C287.43,115.72 287.93,132.97 288.36,147.94 " fill="none" id="Menu-backto-DinerMenu" style="stroke:#181818;stroke-width:1.0;stroke-dasharray:7.0,7.0;"/><polygon fill="none" points="279.98,99.89,286.4,79.69,293.97,99.48,279.98,99.89" style="stroke:#181818;stroke-width:1.0;"/></g><!--MD5=[bef04107622867546632723d79a9fdcf]
reverse link Menu to Cafe--><g id="link_Menu_Cafe"><path codeLine="14" d="M356.17,47.5 C363.4,47.5 370.64,47.5 377.88,47.5 " fill="none" id="Menu-backto-Cafe" style="stroke:#181818;stroke-width:1.0;"/><polygon fill="none" points="343.14,47.5,349.14,51.5,355.14,47.5,349.14,43.5,343.14,47.5" style="stroke:#181818;stroke-width:1.0;"/></g><!--MD5=[1e62dce01d92d20fa483ada734d6f8e4]
link Cafe to Iterator--><g id="link_Cafe_Iterator"><path codeLine="15" d="M441.14,47.5 C448.47,47.5 455.81,47.5 463.14,47.5 " fill="none" id="Cafe-to-Iterator" style="stroke:#181818;stroke-width:1.0;"/><polygon fill="none" points="476.34,47.5,470.34,43.5,464.34,47.5,470.34,51.5,476.34,47.5" style="stroke:#181818;stroke-width:1.0;"/></g><!--MD5=[f900e52e7358e38f413412bc12dfa101]
reverse link Iterator to PancakeHouseMenuIterator--><g id="link_Iterator_PancakeHouseMenuIterator"><path codeLine="28" d="M516.21,108.48 C515.92,121.73 515.62,135.45 515.36,147.66 " fill="none" id="Iterator-backto-PancakeHouseMenuIterator" style="stroke:#181818;stroke-width:1.0;stroke-dasharray:7.0,7.0;"/><polygon fill="none" points="509.21,108.18,516.64,88.33,523.21,108.48,509.21,108.18" style="stroke:#181818;stroke-width:1.0;"/></g><!--MD5=[ab5bb8a73804a35b54dcd34254292dd9]
reverse link Iterator to DinerMenuIterator--><g id="link_Iterator_DinerMenuIterator"><path codeLine="29" d="M575.98,84.95 C606.96,104.26 645.06,128.01 676.79,147.79 " fill="none" id="Iterator-backto-DinerMenuIterator" style="stroke:#181818;stroke-width:1.0;stroke-dasharray:7.0,7.0;"/><polygon fill="none" points="571.93,90.68,558.66,74.16,579.34,78.8,571.93,90.68" style="stroke:#181818;stroke-width:1.0;"/></g><!--MD5=[9ff0c1cd54a6e74049eb89b6b2f85fb5]
@startuml
interface Menu {
  createIterator()
}
class PancakeHouseMenu {
  ArrayList menuItems
  createIterator()
}
class DinerMenu {
  String[] menuItems
  createIterator()
}
PancakeHouseMenu .up.|> Menu
DinerMenu .up.|> Menu
Cafe -left-o Menu
Cafe -right-o Iterator
interface Iterator {
  hasNext()
  next()
}
class PancakeHouseMenuIterator {
  hasNext()
  next()
}
class DinerMenuIterator {
  hasNext()
  next()
}
PancakeHouseMenuIterator .up.|> Iterator
DinerMenuIterator .up.|> Iterator
@enduml

PlantUML version 1.2022.7(Tue Aug 23 00:01:30 ICT 2022)
(GPL source distribution)
Java Runtime: OpenJDK Runtime Environment
JVM: OpenJDK 64-Bit Server VM
Default Encoding: UTF-8
Language: en
Country: null
--></g></svg>