<?xml version="1.0" encoding="UTF-8" standalone="no"?><svg xmlns="http://www.w3.org/2000/svg" xmlns:xlink="http://www.w3.org/1999/xlink" contentStyleType="text/css" height="235px" preserveAspectRatio="none" style="width:410px;height:235px;background:#FFFFFF;" version="1.1" viewBox="0 0 410 235" width="410px" zoomAndPan="magnify"><defs/><g><!--MD5=[914cdf822bf80e984e8ac3bf93b406a5]
class Aggregate--><g id="elem_Aggregate"><rect codeLine="1" fill="#F1F1F1" height="64.2969" id="Aggregate" rx="2.5" ry="2.5" style="stroke:#181818;stroke-width:0.5;" width="115" x="33.5" y="15.5"/><ellipse cx="53" cy="31.5" fill="#B4A7E5" rx="11" ry="11" style="stroke:#181818;stroke-width:1.0;"/><path d="M48.9219,27.2656 L48.9219,25.1094 L56.3125,25.1094 L56.3125,27.2656 L53.8438,27.2656 L53.8438,35.3438 L56.3125,35.3438 L56.3125,37.5 L48.9219,37.5 L48.9219,35.3438 L51.3906,35.3438 L51.3906,27.2656 L48.9219,27.2656 Z " fill="#000000"/><text fill="#000000" font-family="sans-serif" font-size="14" font-style="italic" lengthAdjust="spacing" textLength="73" x="68" y="36.3467">Aggregate</text><line style="stroke:#181818;stroke-width:0.5;" x1="34.5" x2="147.5" y1="47.5" y2="47.5"/><line style="stroke:#181818;stroke-width:0.5;" x1="34.5" x2="147.5" y1="55.5" y2="55.5"/><text fill="#000000" font-family="sans-serif" font-size="14" lengthAdjust="spacing" textLength="103" x="39.5" y="72.4951">createIterator()</text></g><!--MD5=[ac192e3b58a2163e38488214a7837886]
class ConcreteAggregate--><g id="elem_ConcreteAggregate"><rect codeLine="4" fill="#F1F1F1" height="64.2969" id="ConcreteAggregate" rx="2.5" ry="2.5" style="stroke:#181818;stroke-width:0.5;" width="168" x="7" y="156.5"/><ellipse cx="22" cy="172.5" fill="#ADD1B2" rx="11" ry="11" style="stroke:#181818;stroke-width:1.0;"/><path d="M24.9688,178.1406 Q24.3906,178.4375 23.75,178.5781 Q23.1094,178.7344 22.4063,178.7344 Q19.9063,178.7344 18.5781,177.0938 Q17.2656,175.4375 17.2656,172.3125 Q17.2656,169.1875 18.5781,167.5313 Q19.9063,165.875 22.4063,165.875 Q23.1094,165.875 23.75,166.0313 Q24.4063,166.1875 24.9688,166.4844 L24.9688,169.2031 Q24.3438,168.625 23.75,168.3594 Q23.1563,168.0781 22.5313,168.0781 Q21.1875,168.0781 20.5,169.1563 Q19.8125,170.2188 19.8125,172.3125 Q19.8125,174.4063 20.5,175.4844 Q21.1875,176.5469 22.5313,176.5469 Q23.1563,176.5469 23.75,176.2813 Q24.3438,176 24.9688,175.4219 L24.9688,178.1406 Z " fill="#000000"/><text fill="#000000" font-family="sans-serif" font-size="14" lengthAdjust="spacing" textLength="136" x="36" y="177.3467">ConcreteAggregate</text><line style="stroke:#181818;stroke-width:0.5;" x1="8" x2="174" y1="188.5" y2="188.5"/><line style="stroke:#181818;stroke-width:0.5;" x1="8" x2="174" y1="196.5" y2="196.5"/><text fill="#000000" font-family="sans-serif" font-size="14" lengthAdjust="spacing" textLength="103" x="13" y="213.4951">createIterator()</text></g><!--MD5=[ed6624c6556d5e7b1bd23032162d20b7]
class Client--><g id="elem_Client"><rect fill="#F1F1F1" height="48" id="Client" rx="2.5" ry="2.5" style="stroke:#181818;stroke-width:0.5;" width="71" x="183.5" y="23.5"/><ellipse cx="198.5" cy="39.5" fill="#ADD1B2" rx="11" ry="11" style="stroke:#181818;stroke-width:1.0;"/><path d="M201.4688,45.1406 Q200.8906,45.4375 200.25,45.5781 Q199.6094,45.7344 198.9063,45.7344 Q196.4063,45.7344 195.0781,44.0938 Q193.7656,42.4375 193.7656,39.3125 Q193.7656,36.1875 195.0781,34.5313 Q196.4063,32.875 198.9063,32.875 Q199.6094,32.875 200.25,33.0313 Q200.9063,33.1875 201.4688,33.4844 L201.4688,36.2031 Q200.8438,35.625 200.25,35.3594 Q199.6563,35.0781 199.0313,35.0781 Q197.6875,35.0781 197,36.1563 Q196.3125,37.2188 196.3125,39.3125 Q196.3125,41.4063 197,42.4844 Q197.6875,43.5469 199.0313,43.5469 Q199.6563,43.5469 200.25,43.2813 Q200.8438,43 201.4688,42.4219 L201.4688,45.1406 Z " fill="#000000"/><text fill="#000000" font-family="sans-serif" font-size="14" lengthAdjust="spacing" textLength="39" x="212.5" y="44.3467">Client</text><line style="stroke:#181818;stroke-width:0.5;" x1="184.5" x2="253.5" y1="55.5" y2="55.5"/><line style="stroke:#181818;stroke-width:0.5;" x1="184.5" x2="253.5" y1="63.5" y2="63.5"/></g><!--MD5=[023ecf6702e3ca2ce47ae747eafb20f1]
class Iterator--><g id="elem_Iterator"><rect codeLine="11" fill="#F1F1F1" height="80.5938" id="Iterator" rx="2.5" ry="2.5" style="stroke:#181818;stroke-width:0.5;" width="82" x="290" y="7"/><ellipse cx="305" cy="23" fill="#B4A7E5" rx="11" ry="11" style="stroke:#181818;stroke-width:1.0;"/><path d="M300.9219,18.7656 L300.9219,16.6094 L308.3125,16.6094 L308.3125,18.7656 L305.8438,18.7656 L305.8438,26.8438 L308.3125,26.8438 L308.3125,29 L300.9219,29 L300.9219,26.8438 L303.3906,26.8438 L303.3906,18.7656 L300.9219,18.7656 Z " fill="#000000"/><text fill="#000000" font-family="sans-serif" font-size="14" font-style="italic" lengthAdjust="spacing" textLength="50" x="319" y="27.8467">Iterator</text><line style="stroke:#181818;stroke-width:0.5;" x1="291" x2="371" y1="39" y2="39"/><line style="stroke:#181818;stroke-width:0.5;" x1="291" x2="371" y1="47" y2="47"/><text fill="#000000" font-family="sans-serif" font-size="14" lengthAdjust="spacing" textLength="66" x="296" y="63.9951">hasNext()</text><text fill="#000000" font-family="sans-serif" font-size="14" lengthAdjust="spacing" textLength="40" x="296" y="80.292">next()</text></g><!--MD5=[4a3c11898c703d44c2eccf691605a75f]
class ConcreteIterator--><g id="elem_ConcreteIterator"><rect codeLine="15" fill="#F1F1F1" height="80.5938" id="ConcreteIterator" rx="2.5" ry="2.5" style="stroke:#181818;stroke-width:0.5;" width="145" x="258.5" y="148"/><ellipse cx="273.5" cy="164" fill="#ADD1B2" rx="11" ry="11" style="stroke:#181818;stroke-width:1.0;"/><path d="M276.4688,169.6406 Q275.8906,169.9375 275.25,170.0781 Q274.6094,170.2344 273.9063,170.2344 Q271.4063,170.2344 270.0781,168.5938 Q268.7656,166.9375 268.7656,163.8125 Q268.7656,160.6875 270.0781,159.0313 Q271.4063,157.375 273.9063,157.375 Q274.6094,157.375 275.25,157.5313 Q275.9063,157.6875 276.4688,157.9844 L276.4688,160.7031 Q275.8438,160.125 275.25,159.8594 Q274.6563,159.5781 274.0313,159.5781 Q272.6875,159.5781 272,160.6563 Q271.3125,161.7188 271.3125,163.8125 Q271.3125,165.9063 272,166.9844 Q272.6875,168.0469 274.0313,168.0469 Q274.6563,168.0469 275.25,167.7813 Q275.8438,167.5 276.4688,166.9219 L276.4688,169.6406 Z " fill="#000000"/><text fill="#000000" font-family="sans-serif" font-size="14" lengthAdjust="spacing" textLength="113" x="287.5" y="168.8467">ConcreteIterator</text><line style="stroke:#181818;stroke-width:0.5;" x1="259.5" x2="402.5" y1="180" y2="180"/><line style="stroke:#181818;stroke-width:0.5;" x1="259.5" x2="402.5" y1="188" y2="188"/><text fill="#000000" font-family="sans-serif" font-size="14" lengthAdjust="spacing" textLength="66" x="264.5" y="204.9951">hasNext()</text><text fill="#000000" font-family="sans-serif" font-size="14" lengthAdjust="spacing" textLength="40" x="264.5" y="221.292">next()</text></g><!--MD5=[ec16dd3faf36faf8d04f37a830811fa9]
reverse link Aggregate to ConcreteAggregate--><g id="link_Aggregate_ConcreteAggregate"><path codeLine="7" d="M91,99.95 C91,118.91 91,139.79 91,156.41 " fill="none" id="Aggregate-backto-ConcreteAggregate" style="stroke:#181818;stroke-width:1.0;stroke-dasharray:7.0,7.0;"/><polygon fill="none" points="84,99.69,91,79.69,98,99.69,84,99.69" style="stroke:#181818;stroke-width:1.0;"/></g><!--MD5=[f9e9bc89fcdaa8287cda7eef935519d4]
reverse link Aggregate to Client--><g id="link_Aggregate_Client"><path codeLine="9" d="M161.62,47.5 C168.9,47.5 176.19,47.5 183.47,47.5 " fill="none" id="Aggregate-backto-Client" style="stroke:#181818;stroke-width:1.0;"/><polygon fill="none" points="148.5,47.5,154.5,51.5,160.5,47.5,154.5,43.5,148.5,47.5" style="stroke:#181818;stroke-width:1.0;"/></g><!--MD5=[cdf31114c0a9b73670b48f28c83c0040]
link Client to Iterator--><g id="link_Client_Iterator"><path codeLine="10" d="M254.88,47.5 C262.19,47.5 269.5,47.5 276.81,47.5 " fill="none" id="Client-to-Iterator" style="stroke:#181818;stroke-width:1.0;"/><polygon fill="none" points="289.96,47.5,283.96,43.5,277.96,47.5,283.96,51.5,289.96,47.5" style="stroke:#181818;stroke-width:1.0;"/></g><!--MD5=[08005fad78b25d943eac0df10e57518e]
reverse link Iterator to ConcreteIterator--><g id="link_Iterator_ConcreteIterator"><path codeLine="19" d="M331,108.48 C331,121.73 331,135.45 331,147.66 " fill="none" id="Iterator-backto-ConcreteIterator" style="stroke:#181818;stroke-width:1.0;stroke-dasharray:7.0,7.0;"/><polygon fill="none" points="324,108.33,331,88.33,338,108.33,324,108.33" style="stroke:#181818;stroke-width:1.0;"/></g><!--MD5=[a5e45329cd6e6bfd3c66363cdc083acd]
@startuml
interface Aggregate {
  createIterator()
}
class ConcreteAggregate {
  createIterator()
}
ConcreteAggregate .up.|> Aggregate

Client -left-o Aggregate
Client -right-o Iterator
interface Iterator {
  hasNext()
  next()
}
class ConcreteIterator {
  hasNext()
  next()
}
ConcreteIterator .up.|> Iterator

@enduml

PlantUML version 1.2022.7(Tue Aug 23 00:01:30 ICT 2022)
(GPL source distribution)
Java Runtime: OpenJDK Runtime Environment
JVM: OpenJDK 64-Bit Server VM
Default Encoding: UTF-8
Language: en
Country: null
--></g></svg>