<?xml version="1.0" encoding="UTF-8" standalone="no"?><svg xmlns="http://www.w3.org/2000/svg" xmlns:xlink="http://www.w3.org/1999/xlink" contentStyleType="text/css" height="316px" preserveAspectRatio="none" style="width:475px;height:316px;background:#FFFFFF;" version="1.1" viewBox="0 0 475 316" width="475px" zoomAndPan="magnify"><defs/><g><!--MD5=[d0da0a299942266ebd64acf2b2e95fa4]
class Subject--><g id="elem_Subject"><rect codeLine="1" fill="#F1F1F1" height="96.8906" id="Subject" rx="2.5" ry="2.5" style="stroke:#181818;stroke-width:0.5;" width="138" x="86.5" y="7"/><ellipse cx="125.8" cy="23" fill="#B4A7E5" rx="11" ry="11" style="stroke:#181818;stroke-width:1.0;"/><path d="M121.7219,18.7656 L121.7219,16.6094 L129.1125,16.6094 L129.1125,18.7656 L126.6438,18.7656 L126.6438,26.8438 L129.1125,26.8438 L129.1125,29 L121.7219,29 L121.7219,26.8438 L124.1906,26.8438 L124.1906,18.7656 L121.7219,18.7656 Z " fill="#000000"/><text fill="#000000" font-family="sans-serif" font-size="14" font-style="italic" lengthAdjust="spacing" textLength="52" x="145.2" y="27.8467">Subject</text><line style="stroke:#181818;stroke-width:0.5;" x1="87.5" x2="223.5" y1="39" y2="39"/><line style="stroke:#181818;stroke-width:0.5;" x1="87.5" x2="223.5" y1="47" y2="47"/><text fill="#000000" font-family="sans-serif" font-size="14" lengthAdjust="spacing" textLength="126" x="92.5" y="63.9951">registerObserver()</text><text fill="#000000" font-family="sans-serif" font-size="14" lengthAdjust="spacing" textLength="125" x="92.5" y="80.292">removeObserver()</text><text fill="#000000" font-family="sans-serif" font-size="14" lengthAdjust="spacing" textLength="118" x="92.5" y="96.5889">notifyObservers()</text></g><!--MD5=[d40932010816485ec57b44b6eea2392a]
class Observer--><g id="elem_Observer"><rect codeLine="6" fill="#F1F1F1" height="64.2969" id="Observer" rx="2.5" ry="2.5" style="stroke:#181818;stroke-width:0.5;" width="95" x="284" y="23.5"/><ellipse cx="299" cy="39.5" fill="#B4A7E5" rx="11" ry="11" style="stroke:#181818;stroke-width:1.0;"/><path d="M294.9219,35.2656 L294.9219,33.1094 L302.3125,33.1094 L302.3125,35.2656 L299.8438,35.2656 L299.8438,43.3438 L302.3125,43.3438 L302.3125,45.5 L294.9219,45.5 L294.9219,43.3438 L297.3906,43.3438 L297.3906,35.2656 L294.9219,35.2656 Z " fill="#000000"/><text fill="#000000" font-family="sans-serif" font-size="14" font-style="italic" lengthAdjust="spacing" textLength="63" x="313" y="44.3467">Observer</text><line style="stroke:#181818;stroke-width:0.5;" x1="285" x2="378" y1="55.5" y2="55.5"/><line style="stroke:#181818;stroke-width:0.5;" x1="285" x2="378" y1="63.5" y2="63.5"/><text fill="#000000" font-family="sans-serif" font-size="14" lengthAdjust="spacing" textLength="59" x="290" y="80.4951">update()</text></g><!--MD5=[9a00a9e831949c0ea80207d981cdfb5f]
class SimpleSubject--><g id="elem_SimpleSubject"><rect codeLine="10" fill="#F1F1F1" height="145.7813" id="SimpleSubject" rx="2.5" ry="2.5" style="stroke:#181818;stroke-width:0.5;" width="201" x="7" y="164"/><ellipse cx="54.25" cy="180" fill="#ADD1B2" rx="11" ry="11" style="stroke:#181818;stroke-width:1.0;"/><path d="M57.2188,185.6406 Q56.6406,185.9375 56,186.0781 Q55.3594,186.2344 54.6563,186.2344 Q52.1563,186.2344 50.8281,184.5938 Q49.5156,182.9375 49.5156,179.8125 Q49.5156,176.6875 50.8281,175.0313 Q52.1563,173.375 54.6563,173.375 Q55.3594,173.375 56,173.5313 Q56.6563,173.6875 57.2188,173.9844 L57.2188,176.7031 Q56.5938,176.125 56,175.8594 Q55.4063,175.5781 54.7813,175.5781 Q53.4375,175.5781 52.75,176.6563 Q52.0625,177.7188 52.0625,179.8125 Q52.0625,181.9063 52.75,182.9844 Q53.4375,184.0469 54.7813,184.0469 Q55.4063,184.0469 56,183.7813 Q56.5938,183.5 57.2188,182.9219 L57.2188,185.6406 Z " fill="#000000"/><text fill="#000000" font-family="sans-serif" font-size="14" lengthAdjust="spacing" textLength="98" x="74.75" y="184.8467">SimpleSubject</text><line style="stroke:#181818;stroke-width:0.5;" x1="8" x2="207" y1="196" y2="196"/><rect fill="none" height="6" style="stroke:#C82930;stroke-width:1.0;" width="6" x="15" y="206.6484"/><text fill="#000000" font-family="sans-serif" font-size="14" lengthAdjust="spacing" textLength="146" x="27" y="212.9951">Observer[] observers</text><rect fill="none" height="6" style="stroke:#C82930;stroke-width:1.0;" width="6" x="15" y="222.9453"/><text fill="#000000" font-family="sans-serif" font-size="14" lengthAdjust="spacing" textLength="57" x="27" y="229.292">int value</text><line style="stroke:#181818;stroke-width:0.5;" x1="8" x2="207" y1="236.5938" y2="236.5938"/><text fill="#000000" font-family="sans-serif" font-size="14" lengthAdjust="spacing" textLength="189" x="13" y="253.5889">registerObserver(Observer)</text><text fill="#000000" font-family="sans-serif" font-size="14" lengthAdjust="spacing" textLength="188" x="13" y="269.8857">removeObserver(Observer)</text><text fill="#000000" font-family="sans-serif" font-size="14" lengthAdjust="spacing" textLength="118" x="13" y="286.1826">notifyObservers()</text><text fill="#000000" font-family="sans-serif" font-size="14" lengthAdjust="spacing" textLength="106" x="13" y="302.4795">setValue(value)</text></g><!--MD5=[1257ad20a7b00d2a8a5721231ae53aba]
class SimpleObserver--><g id="elem_SimpleObserver"><rect codeLine="19" fill="#F1F1F1" height="96.8906" id="SimpleObserver" rx="2.5" ry="2.5" style="stroke:#181818;stroke-width:0.5;" width="225" x="243" y="188.5"/><ellipse cx="296.75" cy="204.5" fill="#ADD1B2" rx="11" ry="11" style="stroke:#181818;stroke-width:1.0;"/><path d="M299.7188,210.1406 Q299.1406,210.4375 298.5,210.5781 Q297.8594,210.7344 297.1563,210.7344 Q294.6563,210.7344 293.3281,209.0938 Q292.0156,207.4375 292.0156,204.3125 Q292.0156,201.1875 293.3281,199.5313 Q294.6563,197.875 297.1563,197.875 Q297.8594,197.875 298.5,198.0313 Q299.1563,198.1875 299.7188,198.4844 L299.7188,201.2031 Q299.0938,200.625 298.5,200.3594 Q297.9063,200.0781 297.2813,200.0781 Q295.9375,200.0781 295.25,201.1563 Q294.5625,202.2188 294.5625,204.3125 Q294.5625,206.4063 295.25,207.4844 Q295.9375,208.5469 297.2813,208.5469 Q297.9063,208.5469 298.5,208.2813 Q299.0938,208 299.7188,207.4219 L299.7188,210.1406 Z " fill="#000000"/><text fill="#000000" font-family="sans-serif" font-size="14" lengthAdjust="spacing" textLength="109" x="317.25" y="209.3467">SimpleObserver</text><line style="stroke:#181818;stroke-width:0.5;" x1="244" x2="467" y1="220.5" y2="220.5"/><rect fill="none" height="6" style="stroke:#C82930;stroke-width:1.0;" width="6" x="251" y="231.1484"/><text fill="#000000" font-family="sans-serif" font-size="14" lengthAdjust="spacing" textLength="199" x="263" y="237.4951">SimpleSubject simpleSubject</text><rect fill="none" height="6" style="stroke:#C82930;stroke-width:1.0;" width="6" x="251" y="247.4453"/><text fill="#000000" font-family="sans-serif" font-size="14" lengthAdjust="spacing" textLength="57" x="263" y="253.792">int value</text><line style="stroke:#181818;stroke-width:0.5;" x1="244" x2="467" y1="261.0938" y2="261.0938"/><text fill="#000000" font-family="sans-serif" font-size="14" lengthAdjust="spacing" textLength="59" x="249" y="278.0889">update()</text></g><!--MD5=[17985df0d7710a982d77374bbb28b463]
link Subject to Observer--><g id="link_Subject_Observer"><path codeLine="9" d="M224.59,55.5 C239.88,55.5 255.17,55.5 270.46,55.5 " fill="none" id="Subject-to-Observer" style="stroke:#181818;stroke-width:1.0;"/><polygon fill="none" points="283.89,55.5,277.89,51.5,271.89,55.5,277.89,59.5,283.89,55.5" style="stroke:#181818;stroke-width:1.0;"/><text fill="#000000" font-family="sans-serif" font-size="13" lengthAdjust="spacing" textLength="23" x="252.9471" y="51.5481">1..*</text></g><!--MD5=[da1f82a8e87e5d47d88a91b871281eb8]
reverse link Subject to SimpleSubject--><g id="link_Subject_SimpleSubject"><path codeLine="18" d="M137.48,123.88 C134,136.91 130.33,150.61 126.81,163.78 " fill="none" id="Subject-backto-SimpleSubject" style="stroke:#181818;stroke-width:1.0;stroke-dasharray:7.0,7.0;"/><polygon fill="none" points="130.83,121.64,142.76,104.13,144.36,125.26,130.83,121.64" style="stroke:#181818;stroke-width:1.0;"/></g><!--MD5=[8bbbf7876ebee878ad949699d1f05eb8]
reverse link Observer to SimpleObserver--><g id="link_Observer_SimpleObserver"><path codeLine="24" d="M338.33,107.62 C341.72,132.95 345.79,163.36 349.11,188.22 " fill="none" id="Observer-backto-SimpleObserver" style="stroke:#181818;stroke-width:1.0;stroke-dasharray:7.0,7.0;"/><polygon fill="none" points="331.39,108.52,335.68,87.77,345.27,106.66,331.39,108.52" style="stroke:#181818;stroke-width:1.0;"/></g><!--MD5=[bbd14eb64b7c22f7c31c5afee2bf2c81]
reverse link SimpleSubject to SimpleObserver--><g id="link_SimpleSubject_SimpleObserver"><path codeLine="25" d="M221.46,237 C228.56,237 235.66,237 242.76,237 " fill="none" id="SimpleSubject-backto-SimpleObserver" style="stroke:#181818;stroke-width:1.0;"/><polygon fill="none" points="208.25,237,214.25,241,220.25,237,214.25,233,208.25,237" style="stroke:#181818;stroke-width:1.0;"/></g><!--MD5=[97674bef5431a1532f1b939a9c274e03]
@startuml
interface Subject {
  registerObserver()
  removeObserver()
  notifyObservers()
}
interface Observer{
  update()
}
Subject -right-o "1..*" Observer
class SimpleSubject{
  -Observer[] observers
  -int value
  registerObserver(Observer)
  removeObserver(Observer)
  notifyObservers()
  setValue(value)
}
SimpleSubject .up.|> Subject
class SimpleObserver{
  -SimpleSubject simpleSubject
  -int value
  update()
}
SimpleObserver .up.|> Observer
SimpleObserver -left-o SimpleSubject
@enduml

PlantUML version 1.2022.7(Tue Aug 23 00:01:30 ICT 2022)
(GPL source distribution)
Java Runtime: OpenJDK Runtime Environment
JVM: OpenJDK 64-Bit Server VM
Default Encoding: UTF-8
Language: en
Country: null
--></g></svg>