<?xml version="1.0" encoding="UTF-8" standalone="no"?><svg xmlns="http://www.w3.org/2000/svg" xmlns:xlink="http://www.w3.org/1999/xlink" contentStyleType="text/css" height="316px" preserveAspectRatio="none" style="width:997px;height:316px;background:#FFFFFF;" version="1.1" viewBox="0 0 997 316" width="997px" zoomAndPan="magnify"><defs/><g><!--MD5=[d0da0a299942266ebd64acf2b2e95fa4]
class Subject--><g id="elem_Subject"><rect codeLine="1" fill="#F1F1F1" height="96.8906" id="Subject" rx="2.5" ry="2.5" style="stroke:#181818;stroke-width:0.5;" width="200" x="101" y="7"/><ellipse cx="170.75" cy="23" fill="#B4A7E5" rx="11" ry="11" style="stroke:#181818;stroke-width:1.0;"/><path d="M166.6719,18.7656 L166.6719,16.6094 L174.0625,16.6094 L174.0625,18.7656 L171.5938,18.7656 L171.5938,26.8438 L174.0625,26.8438 L174.0625,29 L166.6719,29 L166.6719,26.8438 L169.1406,26.8438 L169.1406,18.7656 L166.6719,18.7656 Z " fill="#000000"/><text fill="#000000" font-family="sans-serif" font-size="14" font-style="italic" lengthAdjust="spacing" textLength="52" x="191.25" y="27.8467">Subject</text><line style="stroke:#181818;stroke-width:0.5;" x1="102" x2="300" y1="39" y2="39"/><line style="stroke:#181818;stroke-width:0.5;" x1="102" x2="300" y1="47" y2="47"/><text fill="#000000" font-family="sans-serif" font-size="14" lengthAdjust="spacing" textLength="162" x="107" y="63.9951">addObserver(Observer)</text><text fill="#000000" font-family="sans-serif" font-size="14" lengthAdjust="spacing" textLength="188" x="107" y="80.292">removeObserver(Observer)</text><text fill="#000000" font-family="sans-serif" font-size="14" lengthAdjust="spacing" textLength="123" x="107" y="96.5889">notifyObservers();</text></g><!--MD5=[c0bd9f44073f1a51428d87d6a9cf071b]
class Observable--><g id="elem_Observable"><rect codeLine="6" fill="#F1F1F1" height="64.2969" id="Observable" rx="2.5" ry="2.5" style="stroke:#181818;stroke-width:0.5;" width="110" x="430" y="23.5"/><ellipse cx="445" cy="39.5" fill="#B4A7E5" rx="11" ry="11" style="stroke:#181818;stroke-width:1.0;"/><path d="M440.9219,35.2656 L440.9219,33.1094 L448.3125,33.1094 L448.3125,35.2656 L445.8438,35.2656 L445.8438,43.3438 L448.3125,43.3438 L448.3125,45.5 L440.9219,45.5 L440.9219,43.3438 L443.3906,43.3438 L443.3906,35.2656 L440.9219,35.2656 Z " fill="#000000"/><text fill="#000000" font-family="sans-serif" font-size="14" font-style="italic" lengthAdjust="spacing" textLength="78" x="459" y="44.3467">Observable</text><line style="stroke:#181818;stroke-width:0.5;" x1="431" x2="539" y1="55.5" y2="55.5"/><line style="stroke:#181818;stroke-width:0.5;" x1="431" x2="539" y1="63.5" y2="63.5"/><text fill="#000000" font-family="sans-serif" font-size="14" lengthAdjust="spacing" textLength="59" x="436" y="80.4951">update()</text></g><!--MD5=[7856ee4e1b1db53d492fac3a45b23484]
class WeatherStation--><g id="elem_WeatherStation"><rect codeLine="9" fill="#F1F1F1" height="145.7813" id="WeatherStation" rx="2.5" ry="2.5" style="stroke:#181818;stroke-width:0.5;" width="200" x="7" y="164"/><ellipse cx="49.9" cy="180" fill="#ADD1B2" rx="11" ry="11" style="stroke:#181818;stroke-width:1.0;"/><path d="M52.8688,185.6406 Q52.2906,185.9375 51.65,186.0781 Q51.0094,186.2344 50.3063,186.2344 Q47.8063,186.2344 46.4781,184.5938 Q45.1656,182.9375 45.1656,179.8125 Q45.1656,176.6875 46.4781,175.0313 Q47.8063,173.375 50.3063,173.375 Q51.0094,173.375 51.65,173.5313 Q52.3063,173.6875 52.8688,173.9844 L52.8688,176.7031 Q52.2438,176.125 51.65,175.8594 Q51.0563,175.5781 50.4313,175.5781 Q49.0875,175.5781 48.4,176.6563 Q47.7125,177.7188 47.7125,179.8125 Q47.7125,181.9063 48.4,182.9844 Q49.0875,184.0469 50.4313,184.0469 Q51.0563,184.0469 51.65,183.7813 Q52.2438,183.5 52.8688,182.9219 L52.8688,185.6406 Z " fill="#000000"/><text fill="#000000" font-family="sans-serif" font-size="14" lengthAdjust="spacing" textLength="106" x="70.1" y="184.8467">WeatherStation</text><line style="stroke:#181818;stroke-width:0.5;" x1="8" x2="206" y1="196" y2="196"/><line style="stroke:#181818;stroke-width:0.5;" x1="8" x2="206" y1="204" y2="204"/><text fill="#000000" font-family="sans-serif" font-size="14" lengthAdjust="spacing" textLength="162" x="13" y="220.9951">addObserver(Observer)</text><text fill="#000000" font-family="sans-serif" font-size="14" lengthAdjust="spacing" textLength="188" x="13" y="237.292">removeObserver(Observer)</text><text fill="#000000" font-family="sans-serif" font-size="14" lengthAdjust="spacing" textLength="123" x="13" y="253.5889">notifyObservers();</text><text fill="#000000" font-family="sans-serif" font-size="14" lengthAdjust="spacing" textLength="96" x="13" y="269.8857">temperature()</text><text fill="#000000" font-family="sans-serif" font-size="14" lengthAdjust="spacing" textLength="87" x="13" y="286.1826">windSpeed()</text><text fill="#000000" font-family="sans-serif" font-size="14" lengthAdjust="spacing" textLength="72" x="13" y="302.4795">pressure()</text></g><!--MD5=[a7661dae5b0d701614a666888c8235ba]
class UserInterface--><g id="elem_UserInterface"><rect codeLine="20" fill="#F1F1F1" height="96.8906" id="UserInterface" rx="2.5" ry="2.5" style="stroke:#181818;stroke-width:0.5;" width="226" x="503" y="188.5"/><ellipse cx="565.75" cy="204.5" fill="#ADD1B2" rx="11" ry="11" style="stroke:#181818;stroke-width:1.0;"/><path d="M568.7188,210.1406 Q568.1406,210.4375 567.5,210.5781 Q566.8594,210.7344 566.1563,210.7344 Q563.6563,210.7344 562.3281,209.0938 Q561.0156,207.4375 561.0156,204.3125 Q561.0156,201.1875 562.3281,199.5313 Q563.6563,197.875 566.1563,197.875 Q566.8594,197.875 567.5,198.0313 Q568.1563,198.1875 568.7188,198.4844 L568.7188,201.2031 Q568.0938,200.625 567.5,200.3594 Q566.9063,200.0781 566.2813,200.0781 Q564.9375,200.0781 564.25,201.1563 Q563.5625,202.2188 563.5625,204.3125 Q563.5625,206.4063 564.25,207.4844 Q564.9375,208.5469 566.2813,208.5469 Q566.9063,208.5469 567.5,208.2813 Q568.0938,208 568.7188,207.4219 L568.7188,210.1406 Z " fill="#000000"/><text fill="#000000" font-family="sans-serif" font-size="14" lengthAdjust="spacing" textLength="92" x="586.25" y="209.3467">UserInterface</text><line style="stroke:#181818;stroke-width:0.5;" x1="504" x2="728" y1="220.5" y2="220.5"/><text fill="#000000" font-family="sans-serif" font-size="14" lengthAdjust="spacing" textLength="214" x="509" y="237.4951">WeatherStation weatherStation</text><line style="stroke:#181818;stroke-width:0.5;" x1="504" x2="728" y1="244.7969" y2="244.7969"/><text fill="#000000" font-family="sans-serif" font-size="14" lengthAdjust="spacing" textLength="59" x="509" y="261.792">update()</text><text fill="#000000" font-family="sans-serif" font-size="14" lengthAdjust="spacing" textLength="57" x="509" y="278.0889">display()</text></g><!--MD5=[248f897e4bb16c2722904b15df30346f]
class Logger--><g id="elem_Logger"><rect codeLine="25" fill="#F1F1F1" height="96.8906" id="Logger" rx="2.5" ry="2.5" style="stroke:#181818;stroke-width:0.5;" width="226" x="764" y="188.5"/><ellipse cx="848.75" cy="204.5" fill="#ADD1B2" rx="11" ry="11" style="stroke:#181818;stroke-width:1.0;"/><path d="M851.7188,210.1406 Q851.1406,210.4375 850.5,210.5781 Q849.8594,210.7344 849.1563,210.7344 Q846.6563,210.7344 845.3281,209.0938 Q844.0156,207.4375 844.0156,204.3125 Q844.0156,201.1875 845.3281,199.5313 Q846.6563,197.875 849.1563,197.875 Q849.8594,197.875 850.5,198.0313 Q851.1563,198.1875 851.7188,198.4844 L851.7188,201.2031 Q851.0938,200.625 850.5,200.3594 Q849.9063,200.0781 849.2813,200.0781 Q847.9375,200.0781 847.25,201.1563 Q846.5625,202.2188 846.5625,204.3125 Q846.5625,206.4063 847.25,207.4844 Q847.9375,208.5469 849.2813,208.5469 Q849.9063,208.5469 850.5,208.2813 Q851.0938,208 851.7188,207.4219 L851.7188,210.1406 Z " fill="#000000"/><text fill="#000000" font-family="sans-serif" font-size="14" lengthAdjust="spacing" textLength="48" x="869.25" y="209.3467">Logger</text><line style="stroke:#181818;stroke-width:0.5;" x1="765" x2="989" y1="220.5" y2="220.5"/><text fill="#000000" font-family="sans-serif" font-size="14" lengthAdjust="spacing" textLength="214" x="770" y="237.4951">WeatherStation weatherStation</text><line style="stroke:#181818;stroke-width:0.5;" x1="765" x2="989" y1="244.7969" y2="244.7969"/><text fill="#000000" font-family="sans-serif" font-size="14" lengthAdjust="spacing" textLength="59" x="770" y="261.792">update()</text><text fill="#000000" font-family="sans-serif" font-size="14" lengthAdjust="spacing" textLength="31" x="770" y="278.0889">log()</text></g><!--MD5=[5b2ee6e13c1fb619ae2326ff35701f82]
class AlertSystem--><g id="elem_AlertSystem"><rect codeLine="30" fill="#F1F1F1" height="96.8906" id="AlertSystem" rx="2.5" ry="2.5" style="stroke:#181818;stroke-width:0.5;" width="226" x="242" y="188.5"/><ellipse cx="309.75" cy="204.5" fill="#ADD1B2" rx="11" ry="11" style="stroke:#181818;stroke-width:1.0;"/><path d="M312.7188,210.1406 Q312.1406,210.4375 311.5,210.5781 Q310.8594,210.7344 310.1563,210.7344 Q307.6563,210.7344 306.3281,209.0938 Q305.0156,207.4375 305.0156,204.3125 Q305.0156,201.1875 306.3281,199.5313 Q307.6563,197.875 310.1563,197.875 Q310.8594,197.875 311.5,198.0313 Q312.1563,198.1875 312.7188,198.4844 L312.7188,201.2031 Q312.0938,200.625 311.5,200.3594 Q310.9063,200.0781 310.2813,200.0781 Q308.9375,200.0781 308.25,201.1563 Q307.5625,202.2188 307.5625,204.3125 Q307.5625,206.4063 308.25,207.4844 Q308.9375,208.5469 310.2813,208.5469 Q310.9063,208.5469 311.5,208.2813 Q312.0938,208 312.7188,207.4219 L312.7188,210.1406 Z " fill="#000000"/><text fill="#000000" font-family="sans-serif" font-size="14" lengthAdjust="spacing" textLength="82" x="330.25" y="209.3467">AlertSystem</text><line style="stroke:#181818;stroke-width:0.5;" x1="243" x2="467" y1="220.5" y2="220.5"/><text fill="#000000" font-family="sans-serif" font-size="14" lengthAdjust="spacing" textLength="214" x="248" y="237.4951">WeatherStation weatherStation</text><line style="stroke:#181818;stroke-width:0.5;" x1="243" x2="467" y1="244.7969" y2="244.7969"/><text fill="#000000" font-family="sans-serif" font-size="14" lengthAdjust="spacing" textLength="59" x="248" y="261.792">update()</text><text fill="#000000" font-family="sans-serif" font-size="14" lengthAdjust="spacing" textLength="40" x="248" y="278.0889">alert()</text></g><!--MD5=[8c5b3c563467f5850f376f2a73ac3765]
reverse link Subject to WeatherStation--><g id="link_Subject_WeatherStation"><path codeLine="17" d="M166.69,122.02 C159.58,135.6 152.05,149.98 144.82,163.78 " fill="none" id="Subject-backto-WeatherStation" style="stroke:#181818;stroke-width:1.0;stroke-dasharray:7.0,7.0;"/><polygon fill="none" points="160.58,118.6,176.06,104.13,172.98,125.1,160.58,118.6" style="stroke:#181818;stroke-width:1.0;"/></g><!--MD5=[70d9c1976417b925dcb42d7e9b0cafb6]
link Subject to Observable--><g id="link_Subject_Observable"><path codeLine="18" d="M301.12,55.5 C339.63,55.5 378.13,55.5 416.63,55.5 " fill="none" id="Subject-to-Observable" style="stroke:#181818;stroke-width:1.0;"/><polygon fill="none" points="429.69,55.5,423.69,51.5,417.69,55.5,423.69,59.5,429.69,55.5" style="stroke:#181818;stroke-width:1.0;"/></g><!--MD5=[9928eaa2a16acb865c6af9cf02abb180]
reverse link Observable to UserInterface--><g id="link_Observable_UserInterface"><path codeLine="36" d="M519.83,104.23 C538.79,130.2 562.17,162.24 581.13,188.22 " fill="none" id="Observable-backto-UserInterface" style="stroke:#181818;stroke-width:1.0;stroke-dasharray:7.0,7.0;"/><polygon fill="none" points="513.95,108.05,507.82,87.77,525.26,99.8,513.95,108.05" style="stroke:#181818;stroke-width:1.0;"/></g><!--MD5=[724c4d80adbdfbcf5575d0c915e04274]
reverse link Observable to Logger--><g id="link_Observable_Logger"><path codeLine="37" d="M558.94,84.18 C611.98,104.68 684.77,134.12 747,164 C762.58,171.48 778.91,179.98 794.53,188.45 " fill="none" id="Observable-backto-Logger" style="stroke:#181818;stroke-width:1.0;stroke-dasharray:7.0,7.0;"/><polygon fill="none" points="556.17,90.62,540,76.92,561.18,77.55,556.17,90.62" style="stroke:#181818;stroke-width:1.0;"/></g><!--MD5=[fddec401fe49737e2f5f43da93d361db]
reverse link Observable to AlertSystem--><g id="link_Observable_AlertSystem"><path codeLine="38" d="M450.43,104.23 C431.62,130.2 408.42,162.24 389.6,188.22 " fill="none" id="Observable-backto-AlertSystem" style="stroke:#181818;stroke-width:1.0;stroke-dasharray:7.0,7.0;"/><polygon fill="none" points="444.96,99.86,462.36,87.77,456.29,108.07,444.96,99.86" style="stroke:#181818;stroke-width:1.0;"/></g><!--MD5=[5b72138de172ff6689508907c6570002]
reverse link WeatherStation to Logger--><g id="link_WeatherStation_Logger"><path codeLine="40" d="M196.73,156.59 C211.2,147.35 226.66,139.34 242.5,134 C345.06,99.45 626.27,101.52 729.5,134 C764.21,144.92 797.87,167.23 824.26,188.31 " fill="none" id="WeatherStation-backto-Logger" style="stroke:#181818;stroke-width:1.0;"/><polygon fill="none" points="185.86,163.87,193.0711,163.8502,195.8263,157.1862,188.6152,157.206,185.86,163.87" style="stroke:#181818;stroke-width:1.0;"/></g><!--MD5=[9ce7a9cd4657819932b05c9fad465403]
reverse link WeatherStation to UserInterface--><g id="link_WeatherStation_UserInterface"><path codeLine="41" d="M196.73,156.59 C211.2,147.35 226.66,139.34 242.5,134 C337.69,101.93 372.69,103.86 468.5,134 C503.21,144.92 536.87,167.23 563.26,188.31 " fill="none" id="WeatherStation-backto-UserInterface" style="stroke:#181818;stroke-width:1.0;"/><polygon fill="none" points="185.86,163.87,193.0711,163.8502,195.8263,157.1862,188.6152,157.206,185.86,163.87" style="stroke:#181818;stroke-width:1.0;"/></g><!--MD5=[1a187d1135aadeadca03a7789ae0346f]
reverse link WeatherStation to AlertSystem--><g id="link_WeatherStation_AlertSystem"><path codeLine="42" d="M220.52,237 C227.64,237 234.77,237 241.89,237 " fill="none" id="WeatherStation-backto-AlertSystem" style="stroke:#181818;stroke-width:1.0;"/><polygon fill="none" points="207.27,237,213.27,241,219.27,237,213.27,233,207.27,237" style="stroke:#181818;stroke-width:1.0;"/></g><!--MD5=[ac07e7bdc3eb6a2da1406904f9c2a138]
@startuml
interface Subject{
  addObserver(Observer)
  removeObserver(Observer)
  notifyObservers();
}
interface Observable{
  update()
}
class WeatherStation {
  addObserver(Observer)
  removeObserver(Observer)
  notifyObservers();
  temperature()
  windSpeed()
  pressure()
}
WeatherStation .up.|> Subject
Subject -right-o Observable

class UserInterface{
  WeatherStation weatherStation
  update()
  display()
}
class Logger{
  WeatherStation weatherStation
  update()
  log()
}
class AlertSystem{
  WeatherStation weatherStation
  update()
  alert()
}

UserInterface .up.|> Observable
Logger .up.|> Observable
AlertSystem .up.|> Observable

Logger -left-o WeatherStation
UserInterface -left-o WeatherStation
AlertSystem -left-o WeatherStation
@enduml

PlantUML version 1.2022.7(Tue Aug 23 00:01:30 ICT 2022)
(GPL source distribution)
Java Runtime: OpenJDK Runtime Environment
JVM: OpenJDK 64-Bit Server VM
Default Encoding: UTF-8
Language: en
Country: null
--></g></svg>