<?xml version="1.0" encoding="UTF-8" standalone="no"?><svg xmlns="http://www.w3.org/2000/svg" xmlns:xlink="http://www.w3.org/1999/xlink" contentStyleType="text/css" height="300px" preserveAspectRatio="none" style="width:356px;height:300px;background:#FFFFFF;" version="1.1" viewBox="0 0 356 300" width="356px" zoomAndPan="magnify"><defs/><g><!--MD5=[d0da0a299942266ebd64acf2b2e95fa4]
class Subject--><g id="elem_Subject"><rect codeLine="1" fill="#F1F1F1" height="96.8906" id="Subject" rx="2.5" ry="2.5" style="stroke:#181818;stroke-width:0.5;" width="138" x="30" y="7"/><ellipse cx="69.3" cy="23" fill="#B4A7E5" rx="11" ry="11" style="stroke:#181818;stroke-width:1.0;"/><path d="M65.2219,18.7656 L65.2219,16.6094 L72.6125,16.6094 L72.6125,18.7656 L70.1438,18.7656 L70.1438,26.8438 L72.6125,26.8438 L72.6125,29 L65.2219,29 L65.2219,26.8438 L67.6906,26.8438 L67.6906,18.7656 L65.2219,18.7656 Z " fill="#000000"/><text fill="#000000" font-family="sans-serif" font-size="14" font-style="italic" lengthAdjust="spacing" textLength="52" x="88.7" y="27.8467">Subject</text><line style="stroke:#181818;stroke-width:0.5;" x1="31" x2="167" y1="39" y2="39"/><line style="stroke:#181818;stroke-width:0.5;" x1="31" x2="167" y1="47" y2="47"/><text fill="#000000" font-family="sans-serif" font-size="14" lengthAdjust="spacing" textLength="126" x="36" y="63.9951">registerObserver()</text><text fill="#000000" font-family="sans-serif" font-size="14" lengthAdjust="spacing" textLength="125" x="36" y="80.292">removeObserver()</text><text fill="#000000" font-family="sans-serif" font-size="14" lengthAdjust="spacing" textLength="118" x="36" y="96.5889">notifyObservers()</text></g><!--MD5=[d40932010816485ec57b44b6eea2392a]
class Observer--><g id="elem_Observer"><rect codeLine="6" fill="#F1F1F1" height="64.2969" id="Observer" rx="2.5" ry="2.5" style="stroke:#181818;stroke-width:0.5;" width="95" x="212.5" y="23.5"/><ellipse cx="227.5" cy="39.5" fill="#B4A7E5" rx="11" ry="11" style="stroke:#181818;stroke-width:1.0;"/><path d="M223.4219,35.2656 L223.4219,33.1094 L230.8125,33.1094 L230.8125,35.2656 L228.3438,35.2656 L228.3438,43.3438 L230.8125,43.3438 L230.8125,45.5 L223.4219,45.5 L223.4219,43.3438 L225.8906,43.3438 L225.8906,35.2656 L223.4219,35.2656 Z " fill="#000000"/><text fill="#000000" font-family="sans-serif" font-size="14" font-style="italic" lengthAdjust="spacing" textLength="63" x="241.5" y="44.3467">Observer</text><line style="stroke:#181818;stroke-width:0.5;" x1="213.5" x2="306.5" y1="55.5" y2="55.5"/><line style="stroke:#181818;stroke-width:0.5;" x1="213.5" x2="306.5" y1="63.5" y2="63.5"/><text fill="#000000" font-family="sans-serif" font-size="14" lengthAdjust="spacing" textLength="59" x="218.5" y="80.4951">update()</text></g><!--MD5=[9182b206835a43bc1550ae1fc8c5ab74]
class ConcreteSubject--><g id="elem_ConcreteSubject"><rect codeLine="10" fill="#F1F1F1" height="129.4844" id="ConcreteSubject" rx="2.5" ry="2.5" style="stroke:#181818;stroke-width:0.5;" width="148" x="7" y="164"/><ellipse cx="22" cy="180" fill="#ADD1B2" rx="11" ry="11" style="stroke:#181818;stroke-width:1.0;"/><path d="M24.9688,185.6406 Q24.3906,185.9375 23.75,186.0781 Q23.1094,186.2344 22.4063,186.2344 Q19.9063,186.2344 18.5781,184.5938 Q17.2656,182.9375 17.2656,179.8125 Q17.2656,176.6875 18.5781,175.0313 Q19.9063,173.375 22.4063,173.375 Q23.1094,173.375 23.75,173.5313 Q24.4063,173.6875 24.9688,173.9844 L24.9688,176.7031 Q24.3438,176.125 23.75,175.8594 Q23.1563,175.5781 22.5313,175.5781 Q21.1875,175.5781 20.5,176.6563 Q19.8125,177.7188 19.8125,179.8125 Q19.8125,181.9063 20.5,182.9844 Q21.1875,184.0469 22.5313,184.0469 Q23.1563,184.0469 23.75,183.7813 Q24.3438,183.5 24.9688,182.9219 L24.9688,185.6406 Z " fill="#000000"/><text fill="#000000" font-family="sans-serif" font-size="14" lengthAdjust="spacing" textLength="116" x="36" y="184.8467">ConcreteSubject</text><line style="stroke:#181818;stroke-width:0.5;" x1="8" x2="154" y1="196" y2="196"/><line style="stroke:#181818;stroke-width:0.5;" x1="8" x2="154" y1="204" y2="204"/><text fill="#000000" font-family="sans-serif" font-size="14" lengthAdjust="spacing" textLength="126" x="13" y="220.9951">registerObserver()</text><text fill="#000000" font-family="sans-serif" font-size="14" lengthAdjust="spacing" textLength="125" x="13" y="237.292">removeObserver()</text><text fill="#000000" font-family="sans-serif" font-size="14" lengthAdjust="spacing" textLength="118" x="13" y="253.5889">notifyObservers()</text><text fill="#000000" font-family="sans-serif" font-size="14" lengthAdjust="spacing" textLength="69" x="13" y="269.8857">getState()</text><text fill="#000000" font-family="sans-serif" font-size="14" lengthAdjust="spacing" textLength="68" x="13" y="286.1826">setState()</text></g><!--MD5=[d80bec951696c7ab326befc0be10e4b8]
class ConcreteObserver--><g id="elem_ConcreteObserver"><rect codeLine="18" fill="#F1F1F1" height="64.2969" id="ConcreteObserver" rx="2.5" ry="2.5" style="stroke:#181818;stroke-width:0.5;" width="159" x="190.5" y="196.5"/><ellipse cx="205.5" cy="212.5" fill="#ADD1B2" rx="11" ry="11" style="stroke:#181818;stroke-width:1.0;"/><path d="M208.4688,218.1406 Q207.8906,218.4375 207.25,218.5781 Q206.6094,218.7344 205.9063,218.7344 Q203.4063,218.7344 202.0781,217.0938 Q200.7656,215.4375 200.7656,212.3125 Q200.7656,209.1875 202.0781,207.5313 Q203.4063,205.875 205.9063,205.875 Q206.6094,205.875 207.25,206.0313 Q207.9063,206.1875 208.4688,206.4844 L208.4688,209.2031 Q207.8438,208.625 207.25,208.3594 Q206.6563,208.0781 206.0313,208.0781 Q204.6875,208.0781 204,209.1563 Q203.3125,210.2188 203.3125,212.3125 Q203.3125,214.4063 204,215.4844 Q204.6875,216.5469 206.0313,216.5469 Q206.6563,216.5469 207.25,216.2813 Q207.8438,216 208.4688,215.4219 L208.4688,218.1406 Z " fill="#000000"/><text fill="#000000" font-family="sans-serif" font-size="14" lengthAdjust="spacing" textLength="127" x="219.5" y="217.3467">ConcreteObserver</text><line style="stroke:#181818;stroke-width:0.5;" x1="191.5" x2="348.5" y1="228.5" y2="228.5"/><line style="stroke:#181818;stroke-width:0.5;" x1="191.5" x2="348.5" y1="236.5" y2="236.5"/><text fill="#000000" font-family="sans-serif" font-size="14" lengthAdjust="spacing" textLength="59" x="196.5" y="253.4951">update()</text></g><!--MD5=[17985df0d7710a982d77374bbb28b463]
link Subject to Observer--><g id="link_Subject_Observer"><path codeLine="9" d="M168.18,55.5 C178.52,55.5 188.86,55.5 199.2,55.5 " fill="none" id="Subject-to-Observer" style="stroke:#181818;stroke-width:1.0;"/><polygon fill="none" points="212.3,55.5,206.3,51.5,200.3,55.5,206.3,59.5,212.3,55.5" style="stroke:#181818;stroke-width:1.0;"/><text fill="#000000" font-family="sans-serif" font-size="13" lengthAdjust="spacing" textLength="23" x="181.345" y="51.5481">1..*</text></g><!--MD5=[add3666d1eb41a24e12d4ec983519b17]
reverse link Subject to ConcreteSubject--><g id="link_Subject_ConcreteSubject"><path codeLine="17" d="M91.89,124.05 C90.51,137.15 89.07,150.85 87.7,163.82 " fill="none" id="Subject-backto-ConcreteSubject" style="stroke:#181818;stroke-width:1.0;stroke-dasharray:7.0,7.0;"/><polygon fill="none" points="84.93,123.29,93.99,104.13,98.85,124.76,84.93,123.29" style="stroke:#181818;stroke-width:1.0;"/></g><!--MD5=[60831cecb420b86f1bc8d63364874a93]
reverse link Observer to ConcreteObserver--><g id="link_Observer_ConcreteObserver"><path codeLine="21" d="M263.01,107.95 C264.69,136.74 266.74,171.68 268.18,196.33 " fill="none" id="Observer-backto-ConcreteObserver" style="stroke:#181818;stroke-width:1.0;stroke-dasharray:7.0,7.0;"/><polygon fill="none" points="256.01,108.24,261.83,87.86,269.99,107.42,256.01,108.24" style="stroke:#181818;stroke-width:1.0;"/></g><!--MD5=[9d2d198d2ec7c386ef1a0d6750201b5a]
reverse link ConcreteSubject to ConcreteObserver--><g id="link_ConcreteSubject_ConcreteObserver"><path codeLine="22" d="M168.31,228.5 C175.6,228.5 182.89,228.5 190.18,228.5 " fill="none" id="ConcreteSubject-backto-ConcreteObserver" style="stroke:#181818;stroke-width:1.0;"/><polygon fill="none" points="155.2,228.5,161.2,232.5,167.2,228.5,161.2,224.5,155.2,228.5" style="stroke:#181818;stroke-width:1.0;"/></g><!--MD5=[3a02234adde6c57edd8e7ca2fa4a9015]
@startuml
interface Subject {
  registerObserver()
  removeObserver()
  notifyObservers()
}
interface Observer{
  update()
}
Subject -right-o "1..*" Observer
class ConcreteSubject{
  registerObserver()
  removeObserver()
  notifyObservers()
  getState()
  setState()
}
ConcreteSubject .up.|> Subject
class ConcreteObserver{
  update()
}
ConcreteObserver .up.|> Observer
ConcreteObserver -left-o ConcreteSubject
@enduml

PlantUML version 1.2022.7(Tue Aug 23 00:01:30 ICT 2022)
(GPL source distribution)
Java Runtime: OpenJDK Runtime Environment
JVM: OpenJDK 64-Bit Server VM
Default Encoding: UTF-8
Language: en
Country: null
--></g></svg>