<?xml version="1.0" encoding="UTF-8" standalone="no"?><svg xmlns="http://www.w3.org/2000/svg" xmlns:xlink="http://www.w3.org/1999/xlink" contentStyleType="text/css" height="235px" preserveAspectRatio="none" style="width:590px;height:235px;background:#FFFFFF;" version="1.1" viewBox="0 0 590 235" width="590px" zoomAndPan="magnify"><defs/><g><!--MD5=[8900b8126f988052b90f9f1b0582e804]
class Algorithm--><g id="elem_Algorithm"><rect codeLine="2" fill="#F1F1F1" height="64.2969" id="Algorithm" rx="2.5" ry="2.5" style="stroke:#181818;stroke-width:0.5;" width="105" x="155" y="23.5"/><ellipse cx="173.15" cy="39.5" fill="#B4A7E5" rx="11" ry="11" style="stroke:#181818;stroke-width:1.0;"/><path d="M169.0719,35.2656 L169.0719,33.1094 L176.4625,33.1094 L176.4625,35.2656 L173.9938,35.2656 L173.9938,43.3438 L176.4625,43.3438 L176.4625,45.5 L169.0719,45.5 L169.0719,43.3438 L171.5406,43.3438 L171.5406,35.2656 L169.0719,35.2656 Z " fill="#000000"/><text fill="#000000" font-family="sans-serif" font-size="14" font-style="italic" lengthAdjust="spacing" textLength="66" x="187.85" y="44.3467">Algorithm</text><line style="stroke:#181818;stroke-width:0.5;" x1="156" x2="259" y1="55.5" y2="55.5"/><line style="stroke:#181818;stroke-width:0.5;" x1="156" x2="259" y1="63.5" y2="63.5"/><text fill="#000000" font-family="sans-serif" font-size="14" lengthAdjust="spacing" textLength="93" x="161" y="80.4951">doAlgorithm()</text></g><!--MD5=[b5da35dfda99c8d4cf0bc2c0e5a793ae]
class SuperClass--><g id="elem_SuperClass"><rect codeLine="5" fill="#F1F1F1" height="96.8906" id="SuperClass" rx="2.5" ry="2.5" style="stroke:#181818;stroke-width:0.5;" width="177" x="295" y="7"/><ellipse cx="341.25" cy="23" fill="#A9DCDF" rx="11" ry="11" style="stroke:#181818;stroke-width:1.0;"/><path d="M341.3594,18.3438 L340.2031,23.4219 L342.5313,23.4219 L341.3594,18.3438 Z M339.875,16.1094 L342.8594,16.1094 L346.2188,28.5 L343.7656,28.5 L343,25.4375 L339.7188,25.4375 L338.9688,28.5 L336.5313,28.5 L339.875,16.1094 Z " fill="#000000"/><text fill="#000000" font-family="sans-serif" font-size="14" font-style="italic" lengthAdjust="spacing" textLength="76" x="361.75" y="27.8467">SuperClass</text><line style="stroke:#181818;stroke-width:0.5;" x1="296" x2="471" y1="39" y2="39"/><rect fill="none" height="6" style="stroke:#C82930;stroke-width:1.0;" width="6" x="303" y="49.6484"/><text fill="#000000" font-family="sans-serif" font-size="14" lengthAdjust="spacing" textLength="128" x="315" y="55.9951">Algorithm behavior</text><line style="stroke:#181818;stroke-width:0.5;" x1="296" x2="471" y1="63.2969" y2="63.2969"/><ellipse cx="306" cy="76.9453" fill="#84BE84" rx="3" ry="3" style="stroke:#038048;stroke-width:1.0;"/><text fill="#000000" font-family="sans-serif" font-size="14" lengthAdjust="spacing" textLength="151" x="315" y="80.292">setBehavior(behavior)</text><ellipse cx="306" cy="93.2422" fill="#84BE84" rx="3" ry="3" style="stroke:#038048;stroke-width:1.0;"/><text fill="#000000" font-family="sans-serif" font-size="14" lengthAdjust="spacing" textLength="124" x="315" y="96.5889">performBehavior()</text></g><!--MD5=[990400c516c77c28e146518f89c81a72]
class Algorithm01--><g id="elem_Algorithm01"><rect codeLine="10" fill="#F1F1F1" height="64.2969" id="Algorithm01" rx="2.5" ry="2.5" style="stroke:#181818;stroke-width:0.5;" width="115" x="7" y="164"/><ellipse cx="22" cy="180" fill="#ADD1B2" rx="11" ry="11" style="stroke:#181818;stroke-width:1.0;"/><path d="M24.9688,185.6406 Q24.3906,185.9375 23.75,186.0781 Q23.1094,186.2344 22.4063,186.2344 Q19.9063,186.2344 18.5781,184.5938 Q17.2656,182.9375 17.2656,179.8125 Q17.2656,176.6875 18.5781,175.0313 Q19.9063,173.375 22.4063,173.375 Q23.1094,173.375 23.75,173.5313 Q24.4063,173.6875 24.9688,173.9844 L24.9688,176.7031 Q24.3438,176.125 23.75,175.8594 Q23.1563,175.5781 22.5313,175.5781 Q21.1875,175.5781 20.5,176.6563 Q19.8125,177.7188 19.8125,179.8125 Q19.8125,181.9063 20.5,182.9844 Q21.1875,184.0469 22.5313,184.0469 Q23.1563,184.0469 23.75,183.7813 Q24.3438,183.5 24.9688,182.9219 L24.9688,185.6406 Z " fill="#000000"/><text fill="#000000" font-family="sans-serif" font-size="14" lengthAdjust="spacing" textLength="83" x="36" y="184.8467">Algorithm01</text><line style="stroke:#181818;stroke-width:0.5;" x1="8" x2="121" y1="196" y2="196"/><line style="stroke:#181818;stroke-width:0.5;" x1="8" x2="121" y1="204" y2="204"/><text fill="#000000" font-family="sans-serif" font-size="14" lengthAdjust="spacing" textLength="93" x="13" y="220.9951">doAlgorithm()</text></g><!--MD5=[fab0c0720966b8c9f70bdba222802dfd]
class Algorithm02--><g id="elem_Algorithm02"><rect codeLine="13" fill="#F1F1F1" height="64.2969" id="Algorithm02" rx="2.5" ry="2.5" style="stroke:#181818;stroke-width:0.5;" width="115" x="157" y="164"/><ellipse cx="172" cy="180" fill="#ADD1B2" rx="11" ry="11" style="stroke:#181818;stroke-width:1.0;"/><path d="M174.9688,185.6406 Q174.3906,185.9375 173.75,186.0781 Q173.1094,186.2344 172.4063,186.2344 Q169.9063,186.2344 168.5781,184.5938 Q167.2656,182.9375 167.2656,179.8125 Q167.2656,176.6875 168.5781,175.0313 Q169.9063,173.375 172.4063,173.375 Q173.1094,173.375 173.75,173.5313 Q174.4063,173.6875 174.9688,173.9844 L174.9688,176.7031 Q174.3438,176.125 173.75,175.8594 Q173.1563,175.5781 172.5313,175.5781 Q171.1875,175.5781 170.5,176.6563 Q169.8125,177.7188 169.8125,179.8125 Q169.8125,181.9063 170.5,182.9844 Q171.1875,184.0469 172.5313,184.0469 Q173.1563,184.0469 173.75,183.7813 Q174.3438,183.5 174.9688,182.9219 L174.9688,185.6406 Z " fill="#000000"/><text fill="#000000" font-family="sans-serif" font-size="14" lengthAdjust="spacing" textLength="83" x="186" y="184.8467">Algorithm02</text><line style="stroke:#181818;stroke-width:0.5;" x1="158" x2="271" y1="196" y2="196"/><line style="stroke:#181818;stroke-width:0.5;" x1="158" x2="271" y1="204" y2="204"/><text fill="#000000" font-family="sans-serif" font-size="14" lengthAdjust="spacing" textLength="93" x="163" y="220.9951">doAlgorithm()</text></g><!--MD5=[8ab32f5d3e1df0cec5c25a5637ced146]
class SubClass01--><g id="elem_SubClass01"><rect fill="#F1F1F1" height="48" id="SubClass01" rx="2.5" ry="2.5" style="stroke:#181818;stroke-width:0.5;" width="114" x="320.5" y="172"/><ellipse cx="335.5" cy="188" fill="#ADD1B2" rx="11" ry="11" style="stroke:#181818;stroke-width:1.0;"/><path d="M338.4688,193.6406 Q337.8906,193.9375 337.25,194.0781 Q336.6094,194.2344 335.9063,194.2344 Q333.4063,194.2344 332.0781,192.5938 Q330.7656,190.9375 330.7656,187.8125 Q330.7656,184.6875 332.0781,183.0313 Q333.4063,181.375 335.9063,181.375 Q336.6094,181.375 337.25,181.5313 Q337.9063,181.6875 338.4688,181.9844 L338.4688,184.7031 Q337.8438,184.125 337.25,183.8594 Q336.6563,183.5781 336.0313,183.5781 Q334.6875,183.5781 334,184.6563 Q333.3125,185.7188 333.3125,187.8125 Q333.3125,189.9063 334,190.9844 Q334.6875,192.0469 336.0313,192.0469 Q336.6563,192.0469 337.25,191.7813 Q337.8438,191.5 338.4688,190.9219 L338.4688,193.6406 Z " fill="#000000"/><text fill="#000000" font-family="sans-serif" font-size="14" lengthAdjust="spacing" textLength="82" x="349.5" y="192.8467">SubClass01</text><line style="stroke:#181818;stroke-width:0.5;" x1="321.5" x2="433.5" y1="204" y2="204"/><line style="stroke:#181818;stroke-width:0.5;" x1="321.5" x2="433.5" y1="212" y2="212"/></g><!--MD5=[3d7904031370cb3429411d435af4015a]
class SubClass02--><g id="elem_SubClass02"><rect fill="#F1F1F1" height="48" id="SubClass02" rx="2.5" ry="2.5" style="stroke:#181818;stroke-width:0.5;" width="114" x="469.5" y="172"/><ellipse cx="484.5" cy="188" fill="#ADD1B2" rx="11" ry="11" style="stroke:#181818;stroke-width:1.0;"/><path d="M487.4688,193.6406 Q486.8906,193.9375 486.25,194.0781 Q485.6094,194.2344 484.9063,194.2344 Q482.4063,194.2344 481.0781,192.5938 Q479.7656,190.9375 479.7656,187.8125 Q479.7656,184.6875 481.0781,183.0313 Q482.4063,181.375 484.9063,181.375 Q485.6094,181.375 486.25,181.5313 Q486.9063,181.6875 487.4688,181.9844 L487.4688,184.7031 Q486.8438,184.125 486.25,183.8594 Q485.6563,183.5781 485.0313,183.5781 Q483.6875,183.5781 483,184.6563 Q482.3125,185.7188 482.3125,187.8125 Q482.3125,189.9063 483,190.9844 Q483.6875,192.0469 485.0313,192.0469 Q485.6563,192.0469 486.25,191.7813 Q486.8438,191.5 487.4688,190.9219 L487.4688,193.6406 Z " fill="#000000"/><text fill="#000000" font-family="sans-serif" font-size="14" lengthAdjust="spacing" textLength="82" x="498.5" y="192.8467">SubClass02</text><line style="stroke:#181818;stroke-width:0.5;" x1="470.5" x2="582.5" y1="204" y2="204"/><line style="stroke:#181818;stroke-width:0.5;" x1="470.5" x2="582.5" y1="212" y2="212"/></g><!--MD5=[18fa05288ecb65f2b5fc3df0235740a0]
reverse link SuperClass to SubClass01--><g id="link_SuperClass_SubClass01"><path codeLine="18" d="M380.56,124.3 C379.82,141.39 379.08,158.59 378.51,171.75 " fill="none" id="SuperClass-backto-SubClass01" style="stroke:#181818;stroke-width:1.0;"/><polygon fill="none" points="373.58,123.84,381.44,104.16,387.56,124.45,373.58,123.84" style="stroke:#181818;stroke-width:1.0;"/></g><!--MD5=[5cbd22f07d9a52505487ecb0b2d94702]
reverse link SuperClass to SubClass02--><g id="link_SuperClass_SubClass02"><path codeLine="19" d="M447.15,118.14 C466.81,137.19 487.28,157.01 502.5,171.75 " fill="none" id="SuperClass-backto-SubClass02" style="stroke:#181818;stroke-width:1.0;"/><polygon fill="none" points="442.21,123.11,432.71,104.16,451.95,113.05,442.21,123.11" style="stroke:#181818;stroke-width:1.0;"/></g><!--MD5=[48c9e07de51e060f98847502ee53f637]
link Algorithm to SuperClass--><g id="link_Algorithm_SuperClass"><path codeLine="21" d="M260.09,55.5 C267.32,55.5 274.56,55.5 281.79,55.5 " fill="none" id="Algorithm-to-SuperClass" style="stroke:#181818;stroke-width:1.0;"/><polygon fill="none" points="294.8,55.5,288.8,51.5,282.8,55.5,288.8,59.5,294.8,55.5" style="stroke:#181818;stroke-width:1.0;"/></g><!--MD5=[3ab8ca2b121e1a3cb6a0ef4bf845c321]
reverse link Algorithm to Algorithm01--><g id="link_Algorithm_Algorithm01"><path codeLine="23" d="M160.89,101.64 C140,121.88 115.87,145.25 96.98,163.54 " fill="none" id="Algorithm-backto-Algorithm01" style="stroke:#181818;stroke-width:1.0;stroke-dasharray:7.0,7.0;"/><polygon fill="none" points="156.17,96.47,175.41,87.58,165.91,106.52,156.17,96.47" style="stroke:#181818;stroke-width:1.0;"/></g><!--MD5=[101009cdf185d331f406562e40cbf458]
reverse link Algorithm to Algorithm02--><g id="link_Algorithm_Algorithm02"><path codeLine="24" d="M210.08,107.62 C211.03,126.37 212.08,147.02 212.91,163.54 " fill="none" id="Algorithm-backto-Algorithm02" style="stroke:#181818;stroke-width:1.0;stroke-dasharray:7.0,7.0;"/><polygon fill="none" points="203.09,107.91,209.07,87.58,217.07,107.2,203.09,107.91" style="stroke:#181818;stroke-width:1.0;"/></g><!--MD5=[253f0c532173c087dfae7e212283fa42]
@startuml

interface Algorithm{
  doAlgorithm()
}
abstract SuperClass{
  -Algorithm behavior
  +setBehavior(behavior)
  +performBehavior()
}
class Algorithm01 {
  doAlgorithm()
}
class Algorithm02 {
  doAlgorithm()
}


SubClass01 -up-|> SuperClass
SubClass02 -up-|> SuperClass

Algorithm -right-o SuperClass

Algorithm01 .up.|> Algorithm
Algorithm02 .up.|> Algorithm


@enduml

PlantUML version 1.2022.7(Tue Aug 23 00:01:30 ICT 2022)
(GPL source distribution)
Java Runtime: OpenJDK Runtime Environment
JVM: OpenJDK 64-Bit Server VM
Default Encoding: UTF-8
Language: en
Country: null
--></g></svg>